  0
SECTION
  2
HEADER
  9
$ACADVER
  1
AC1027
  9
$ACADMAINTVER
 70
   125
  9
$DWGCODEPAGE
  3
ANSI_1252
  9
$REQUIREDVERSIONS
160
                 0
  9
$INSBASE
 10
0.0
 20
0.0
 30
0.0
  9
$EXTMIN
 10
1.000000000000000E+20
 20
1.000000000000000E+20
 30
1.000000000000000E+20
  9
$EXTMAX
 10
-1.000000000000000E+20
 20
-1.000000000000000E+20
 30
-1.000000000000000E+20
  9
$LIMMIN
 10
0.0
 20
0.0
  9
$LIMMAX
 10
12.0
 20
9.0
  9
$ORTHOMODE
 70
     0
  9
$REGENMODE
 70
     1
  9
$FILLMODE
 70
     1
  9
$QTEXTMODE
 70
     0
  9
$MIRRTEXT
 70
     0
  9
$LTSCALE
 40
1.0
  9
$ATTMODE
 70
     1
  9
$TEXTSIZE
 40
0.2
  9
$TRACEWID
 40
0.05
  9
$TEXTSTYLE
  7
Standard
  9
$CLAYER
  8
0
  9
$CELTYPE
  6
ByLayer
  9
$CECOLOR
 62
   256
  9
$CELTSCALE
 40
1.0
  9
$DISPSILH
 70
     0
  9
$DIMSCALE
 40
1.0
  9
$DIMASZ
 40
0.18
  9
$DIMEXO
 40
0.0625
  9
$DIMDLI
 40
0.38
  9
$DIMRND
 40
0.0
  9
$DIMDLE
 40
0.0
  9
$DIMEXE
 40
0.18
  9
$DIMTP
 40
0.0
  9
$DIMTM
 40
0.0
  9
$DIMTXT
 40
0.18
  9
$DIMCEN
 40
0.09
  9
$DIMTSZ
 40
0.0
  9
$DIMTOL
 70
     0
  9
$DIMLIM
 70
     0
  9
$DIMTIH
 70
     1
  9
$DIMTOH
 70
     1
  9
$DIMSE1
 70
     0
  9
$DIMSE2
 70
     0
  9
$DIMTAD
 70
     0
  9
$DIMZIN
 70
     0
  9
$DIMBLK
  1

  9
$DIMASO
 70
     1
  9
$DIMSHO
 70
     1
  9
$DIMPOST
  1

  9
$DIMAPOST
  1

  9
$DIMALT
 70
     0
  9
$DIMALTD
 70
     2
  9
$DIMALTF
 40
25.4
  9
$DIMLFAC
 40
1.0
  9
$DIMTOFL
 70
     0
  9
$DIMTVP
 40
0.0
  9
$DIMTIX
 70
     0
  9
$DIMSOXD
 70
     0
  9
$DIMSAH
 70
     0
  9
$DIMBLK1
  1

  9
$DIMBLK2
  1

  9
$DIMSTYLE
  2
Standard
  9
$DIMCLRD
 70
     0
  9
$DIMCLRE
 70
     0
  9
$DIMCLRT
 70
     0
  9
$DIMTFAC
 40
1.0
  9
$DIMGAP
 40
0.09
  9
$DIMJUST
 70
     0
  9
$DIMSD1
 70
     0
  9
$DIMSD2
 70
     0
  9
$DIMTOLJ
 70
     1
  9
$DIMTZIN
 70
     0
  9
$DIMALTZ
 70
     0
  9
$DIMALTTZ
 70
     0
  9
$DIMUPT
 70
     0
  9
$DIMDEC
 70
     4
  9
$DIMTDEC
 70
     4
  9
$DIMALTU
 70
     2
  9
$DIMALTTD
 70
     2
  9
$DIMTXSTY
  7
Standard
  9
$DIMAUNIT
 70
     0
  9
$DIMADEC
 70
     0
  9
$DIMALTRND
 40
0.0
  9
$DIMAZIN
 70
     0
  9
$DIMDSEP
 70
    46
  9
$DIMATFIT
 70
     3
  9
$DIMFRAC
 70
     0
  9
$DIMLDRBLK
  1

  9
$DIMLUNIT
 70
     2
  9
$DIMLWD
 70
    -2
  9
$DIMLWE
 70
    -2
  9
$DIMTMOVE
 70
     0
  9
$DIMFXL
 40
1.0
  9
$DIMFXLON
 70
     0
  9
$DIMJOGANG
 40
0.7853981633974483
  9
$DIMTFILL
 70
     0
  9
$DIMTFILLCLR
 70
     0
  9
$DIMARCSYM
 70
     0
  9
$DIMLTYPE
  6

  9
$DIMLTEX1
  6

  9
$DIMLTEX2
  6

  9
$DIMTXTDIRECTION
 70
     0
  9
$LUNITS
 70
     2
  9
$LUPREC
 70
     4
  9
$SKETCHINC
 40
0.1
  9
$FILLETRAD
 40
0.0
  9
$AUNITS
 70
     0
  9
$AUPREC
 70
     0
  9
$MENU
  1
.
  9
$ELEVATION
 40
0.0
  9
$PELEVATION
 40
0.0
  9
$THICKNESS
 40
0.0
  9
$LIMCHECK
 70
     0
  9
$CHAMFERA
 40
0.0
  9
$CHAMFERB
 40
0.0
  9
$CHAMFERC
 40
0.0
  9
$CHAMFERD
 40
0.0
  9
$SKPOLY
 70
     0
  9
$TDCREATE
 40
2459558.335428241
  9
$TDUCREATE
 40
2459558.335428241
  9
$TDUPDATE
 40
2459558.335428241
  9
$TDUUPDATE
 40
2459558.335428241
  9
$TDINDWG
 40
0.0000000000
  9
$TDUSRTIMER
 40
0.0000000000
  9
$USRTIMER
 70
     1
  9
$ANGBASE
 50
0.0
  9
$ANGDIR
 70
     0
  9
$PDMODE
 70
     0
  9
$PDSIZE
 40
0.0
  9
$PLINEWID
 40
0.0
  9
$SPLFRAME
 70
     0
  9
$SPLINETYPE
 70
     6
  9
$SPLINESEGS
 70
     8
  9
$HANDSEED
  5
25A
  9
$SURFTAB1
 70
     6
  9
$SURFTAB2
 70
     6
  9
$SURFTYPE
 70
     6
  9
$SURFU
 70
     6
  9
$SURFV
 70
     6
  9
$UCSBASE
  2

  9
$UCSNAME
  2

  9
$UCSORG
 10
0.0
 20
0.0
 30
0.0
  9
$UCSXDIR
 10
1.0
 20
0.0
 30
0.0
  9
$UCSYDIR
 10
0.0
 20
1.0
 30
0.0
  9
$UCSORTHOREF
  2

  9
$UCSORTHOVIEW
 70
     0
  9
$UCSORGTOP
 10
0.0
 20
0.0
 30
0.0
  9
$UCSORGBOTTOM
 10
0.0
 20
0.0
 30
0.0
  9
$UCSORGLEFT
 10
0.0
 20
0.0
 30
0.0
  9
$UCSORGRIGHT
 10
0.0
 20
0.0
 30
0.0
  9
$UCSORGFRONT
 10
0.0
 20
0.0
 30
0.0
  9
$UCSORGBACK
 10
0.0
 20
0.0
 30
0.0
  9
$PUCSBASE
  2

  9
$PUCSNAME
  2

  9
$PUCSORG
 10
0.0
 20
0.0
 30
0.0
  9
$PUCSXDIR
 10
1.0
 20
0.0
 30
0.0
  9
$PUCSYDIR
 10
0.0
 20
1.0
 30
0.0
  9
$PUCSORTHOREF
  2

  9
$PUCSORTHOVIEW
 70
     0
  9
$PUCSORGTOP
 10
0.0
 20
0.0
 30
0.0
  9
$PUCSORGBOTTOM
 10
0.0
 20
0.0
 30
0.0
  9
$PUCSORGLEFT
 10
0.0
 20
0.0
 30
0.0
  9
$PUCSORGRIGHT
 10
0.0
 20
0.0
 30
0.0
  9
$PUCSORGFRONT
 10
0.0
 20
0.0
 30
0.0
  9
$PUCSORGBACK
 10
0.0
 20
0.0
 30
0.0
  9
$USERI1
 70
     0
  9
$USERI2
 70
     0
  9
$USERI3
 70
     0
  9
$USERI4
 70
     0
  9
$USERI5
 70
     0
  9
$USERR1
 40
0.0
  9
$USERR2
 40
0.0
  9
$USERR3
 40
0.0
  9
$USERR4
 40
0.0
  9
$USERR5
 40
0.0
  9
$WORLDVIEW
 70
     1
  9
$SHADEDGE
 70
     3
  9
$SHADEDIF
 70
    70
  9
$TILEMODE
 70
     1
  9
$MAXACTVP
 70
    64
  9
$PINSBASE
 10
0.0
 20
0.0
 30
0.0
  9
$PLIMCHECK
 70
     0
  9
$PEXTMIN
 10
1.000000000000000E+20
 20
1.000000000000000E+20
 30
1.000000000000000E+20
  9
$PEXTMAX
 10
-1.000000000000000E+20
 20
-1.000000000000000E+20
 30
-1.000000000000000E+20
  9
$PLIMMIN
 10
0.0
 20
0.0
  9
$PLIMMAX
 10
12.0
 20
9.0
  9
$UNITMODE
 70
     0
  9
$VISRETAIN
 70
     1
  9
$PLINEGEN
 70
     0
  9
$PSLTSCALE
 70
     1
  9
$TREEDEPTH
 70
  3020
  9
$CMLSTYLE
  2
Standard
  9
$CMLJUST
 70
     0
  9
$CMLSCALE
 40
1.0
  9
$PROXYGRAPHICS
 70
     1
  9
$MEASUREMENT
 70
     0
  9
$CELWEIGHT
370
    -1
  9
$ENDCAPS
280
     0
  9
$JOINSTYLE
280
     0
  9
$LWDISPLAY
290
     0
  9
$INSUNITS
 70
     5
  9
$HYPERLINKBASE
  1

  9
$STYLESHEET
  1

  9
$XEDIT
290
     1
  9
$CEPSNTYPE
380
     0
  9
$PSTYLEMODE
290
     1
  9
$FINGERPRINTGUID
  2
{34BF28C7-2279-4048-83E7-78144512D28C}
  9
$VERSIONGUID
  2
{8E6257B8-8DCF-BE45-8D3D-B5CCE71AAE36}
  9
$EXTNAMES
290
     1
  9
$PSVPSCALE
 40
0.0
  9
$OLESTARTUP
290
     0
  9
$SORTENTS
280
   127
  9
$INDEXCTL
280
     0
  9
$HIDETEXT
280
     1
  9
$XCLIPFRAME
280
     2
  9
$HALOGAP
280
     0
  9
$OBSCOLOR
 70
   257
  9
$OBSLTYPE
280
     0
  9
$INTERSECTIONDISPLAY
280
     0
  9
$INTERSECTIONCOLOR
 70
   257
  9
$DIMASSOC
280
     2
  9
$PROJECTNAME
  1

  9
$CAMERADISPLAY
290
     0
  9
$LENSLENGTH
 40
50.0
  9
$CAMERAHEIGHT
 40
0.0
  9
$STEPSPERSEC
 40
2.0
  9
$STEPSIZE
 40
6.0
  9
$3DDWFPREC
 40
2.0
  9
$PSOLWIDTH
 40
0.25
  9
$PSOLHEIGHT
 40
4.0
  9
$LOFTANG1
 40
1.570796326794896
  9
$LOFTANG2
 40
1.570796326794896
  9
$LOFTMAG1
 40
0.0
  9
$LOFTMAG2
 40
0.0
  9
$LOFTPARAM
 70
     7
  9
$LOFTNORMALS
280
     1
  9
$LATITUDE
 40
37.795
  9
$LONGITUDE
 40
-122.394
  9
$NORTHDIRECTION
 40
0.0
  9
$TIMEZONE
 70
 -8000
  9
$LIGHTGLYPHDISPLAY
280
     1
  9
$TILEMODELIGHTSYNCH
280
     1
  9
$CMATERIAL
347
11
  9
$SOLIDHIST
280
     0
  9
$SHOWHIST
280
     1
  9
$DWFFRAME
280
     2
  9
$DGNFRAME
280
     0
  9
$REALWORLDSCALE
290
     1
  9
$INTERFERECOLOR
 62
     1
  9
$INTERFEREOBJVS
345
33
  9
$INTERFEREVPVS
346
30
  9
$CSHADOW
280
     0
  9
$SHADOWPLANELOCATION
 40
0.0
  0
ENDSEC
  0
SECTION
  2
CLASSES
  0
CLASS
  1
ACDBDICTIONARYWDFLT
  2
AcDbDictionaryWithDefault
  3
ObjectDBX Classes
 90
        0
 91
        1
280
     0
281
     0
  0
CLASS
  1
MATERIAL
  2
AcDbMaterial
  3
ObjectDBX Classes
 90
     1153
 91
        3
280
     0
281
     0
  0
CLASS
  1
VISUALSTYLE
  2
AcDbVisualStyle
  3
ObjectDBX Classes
 90
     4095
 91
       24
280
     0
281
     0
  0
CLASS
  1
SCALE
  2
AcDbScale
  3
ObjectDBX Classes
 90
     1153
 91
       17
280
     0
281
     0
  0
CLASS
  1
TABLESTYLE
  2
AcDbTableStyle
  3
ObjectDBX Classes
 90
     4095
 91
        1
280
     0
281
     0
  0
CLASS
  1
MLEADERSTYLE
  2
AcDbMLeaderStyle
  3
ACDB_MLEADERSTYLE_CLASS
 90
     4095
 91
        1
280
     0
281
     0
  0
CLASS
  1
ACDBSECTIONVIEWSTYLE
  2
AcDbSectionViewStyle
  3
ObjectDBX Classes
 90
     1025
 91
        1
280
     0
281
     0
  0
CLASS
  1
ACDBDETAILVIEWSTYLE
  2
AcDbDetailViewStyle
  3
ObjectDBX Classes
 90
     1025
 91
        1
280
     0
281
     0
  0
CLASS
  1
DICTIONARYVAR
  2
AcDbDictionaryVar
  3
ObjectDBX Classes
 90
        0
 91
        5
280
     0
281
     0
  0
CLASS
  1
CELLSTYLEMAP
  2
AcDbCellStyleMap
  3
ObjectDBX Classes
 90
     1152
 91
        1
280
     0
281
     0
  0
ENDSEC
  0
SECTION
  2
TABLES
  0
TABLE
  2
VPORT
  5
8
330
0
100
AcDbSymbolTable
 70
     1
1001
ACAD
1000
DbSaveVer
1071
      247
  0
VPORT
  5
57
330
8
100
AcDbSymbolTableRecord
100
AcDbViewportTableRecord
  2
*Active
 70
     0
 10
0.0
 20
0.0
 11
1.0
 21
1.0
 12
500.0
 22
500.0
 13
0.0
 23
0.0
 14
1.0
 24
1.0
 15
0.0
 25
0.0
 16
0.0
 26
0.0
 36
1.0
 17
0.0
 27
0.0
 37
0.0
 40
12.0
 41
1.0
 42
50.0
 43
0.0
 44
0.0
 50
0.0
 51
0.0
 71
     0
 72
   100
 73
     1
 74
     1
 75
     0
 76
     0
 77
     0
 78
     0
281
     0
 65
     1
110
0.0
120
0.0
130
0.0
111
1.0
121
0.0
131
0.0
112
0.0
122
1.0
132
0.0
 79
     0
146
0.0
 60
     3
 61
     5
292
     1
282
     1
141
0.0
142
0.0
 63
   250
421
  3355443
  0
ENDTAB
  0
TABLE
  2
LTYPE
  5
5
330
0
100
AcDbSymbolTable
 70
     1
  0
LTYPE
  5
5B
330
5
100
AcDbSymbolTableRecord
100
AcDbLinetypeTableRecord
  2
ByBlock
 70
     0
  3

 72
    65
 73
     0
 40
0.0
  0
LTYPE
  5
5C
330
5
100
AcDbSymbolTableRecord
100
AcDbLinetypeTableRecord
  2
ByLayer
 70
     0
  3

 72
    65
 73
     0
 40
0.0
  0
LTYPE
  5
5D
330
5
100
AcDbSymbolTableRecord
100
AcDbLinetypeTableRecord
  2
Continuous
 70
     0
  3
Solid line
 72
    65
 73
     0
 40
0.0
  0
ENDTAB
  0
TABLE
  2
LAYER
  5
2
330
0
100
AcDbSymbolTable
 70
     2
  0
LAYER
  5
54
330
2
100
AcDbSymbolTableRecord
100
AcDbLayerTableRecord
  2
0
 70
     0
 62
     7
  6
Continuous
370
    -3
390
F
347
21
348
0
  0
LAYER
  5
7A
330
2
100
AcDbSymbolTableRecord
100
AcDbLayerTableRecord
  2
LCF8-8080-Sketch v2_0
 70
     0
 62
     7
  6
Continuous
370
    -3
390
F
347
21
348
0
1001
NFusion_SketchTransform
1000
1.000000;0.000000;0.000000;0.000000;0.000000;1.000000;0.000000;0.000000;0.000000;0.000000;1.000000;0.000000;0.000000;0.000000;0.000000;1.000000
  0
ENDTAB
  0
TABLE
  2
STYLE
  5
3
330
0
100
AcDbSymbolTable
 70
     2
  0
STYLE
  5
55
330
3
100
AcDbSymbolTableRecord
100
AcDbTextStyleTableRecord
  2
Standard
 70
     0
 40
0.0
 41
1.0
 50
0.0
 71
     0
 42
0.2
  3
txt
  4

  0
STYLE
  5
5A
330
3
100
AcDbSymbolTableRecord
100
AcDbTextStyleTableRecord
  2
Annotative
 70
     0
 40
0.0
 41
1.0
 50
0.0
 71
     0
 42
0.2
  3
txt
  4

1001
AcadAnnotative
1000
AnnotativeData
1002
{
1070
     1
1070
     1
1002
}
  0
ENDTAB
  0
TABLE
  2
VIEW
  5
6
330
0
100
AcDbSymbolTable
 70
     0
  0
ENDTAB
  0
TABLE
  2
UCS
  5
7
330
0
100
AcDbSymbolTable
 70
     0
  0
ENDTAB
  0
TABLE
  2
APPID
  5
9
330
0
100
AcDbSymbolTable
 70
     4
  0
APPID
  5
56
330
9
100
AcDbSymbolTableRecord
100
AcDbRegAppTableRecord
  2
ACAD
 70
     0
  0
APPID
  5
5E
330
9
100
AcDbSymbolTableRecord
100
AcDbRegAppTableRecord
  2
AcadAnnotative
 70
     0
  0
APPID
  5
78
330
9
100
AcDbSymbolTableRecord
100
AcDbRegAppTableRecord
  2
EDIT_IN_FUSION_ACAD_ADDIN
 70
     0
  0
APPID
  5
79
330
9
100
AcDbSymbolTableRecord
100
AcDbRegAppTableRecord
  2
NFusion_SketchTransform
 70
     0
  0
ENDTAB
  0
TABLE
  2
DIMSTYLE
  5
A
330
0
100
AcDbSymbolTable
 70
     2
100
AcDbDimStyleTable
 71
     0
  0
DIMSTYLE
105
58
330
A
100
AcDbSymbolTableRecord
100
AcDbDimStyleTableRecord
  2
Standard
 70
     0
340
55
  0
DIMSTYLE
105
59
330
A
100
AcDbSymbolTableRecord
100
AcDbDimStyleTableRecord
  2
Annotative
 70
     0
340
55
1001
AcadAnnotative
1000
AnnotativeData
1002
{
1070
     1
1070
     1
1002
}
  0
ENDTAB
  0
TABLE
  2
BLOCK_RECORD
  5
1
330
0
100
AcDbSymbolTable
 70
     1
  0
BLOCK_RECORD
  5
70
330
1
100
AcDbSymbolTableRecord
100
AcDbBlockTableRecord
  2
*Model_Space
340
73
 70
     0
280
     1
281
     0
  0
BLOCK_RECORD
  5
6C
330
1
100
AcDbSymbolTableRecord
100
AcDbBlockTableRecord
  2
*Paper_Space
340
6F
 70
     0
280
     1
281
     0
  0
BLOCK_RECORD
  5
74
330
1
100
AcDbSymbolTableRecord
100
AcDbBlockTableRecord
  2
*Paper_Space0
340
77
 70
     0
280
     1
281
     0
  0
ENDTAB
  0
ENDSEC
  0
SECTION
  2
BLOCKS
  0
BLOCK
  5
71
330
70
100
AcDbEntity
  8
0
100
AcDbBlockBegin
  2
*Model_Space
 70
     0
 10
0.0
 20
0.0
 30
0.0
  3
*Model_Space
  1

  0
ENDBLK
  5
72
330
70
100
AcDbEntity
  8
0
100
AcDbBlockEnd
  0
BLOCK
  5
6D
330
6C
100
AcDbEntity
 67
     1
  8
0
100
AcDbBlockBegin
  2
*Paper_Space
 70
     0
 10
0.0
 20
0.0
 30
0.0
  3
*Paper_Space
  1

  0
ENDBLK
  5
6E
330
6C
100
AcDbEntity
 67
     1
  8
0
100
AcDbBlockEnd
  0
BLOCK
  5
75
330
74
100
AcDbEntity
 67
     1
  8
0
100
AcDbBlockBegin
  2
*Paper_Space0
 70
     0
 10
0.0
 20
0.0
 30
0.0
  3
*Paper_Space0
  1

  0
ENDBLK
  5
76
330
74
100
AcDbEntity
 67
     1
  8
0
100
AcDbBlockEnd
  0
ENDSEC
  0
SECTION
  2
ENTITIES
  0
LINE
  5
7B
330
70
100
AcDbEntity
  8
LCF8-8080-Sketch v2_0
100
AcDbLine
 10
-2.778786796564625
 20
-1.397989898731969
 30
0.0
 11
-3.192989898732079
 21
-0.9837867965645166
 31
0.0
  0
ARC
  5
7C
330
70
100
AcDbEntity
  8
LCF8-8080-Sketch v2_0
100
AcDbCircle
 10
-3.214203102167923
 20
-1.005000000000359
 30
0.0
 40
0.0300000000003493
100
AcDbArc
 50
44.99999999999805
 51
89.99999999999916
  0
ARC
  5
7D
330
70
100
AcDbEntity
  8
LCF8-8080-Sketch v2_0
100
AcDbCircle
 10
-2.580796897832592
 20
2.800000000000457
 30
0.0
 40
0.0300000000000067
100
AcDbArc
 50
225.0000000000024
 51
270.0000000000017
  0
LINE
  5
7E
330
70
100
AcDbEntity
  8
LCF8-8080-Sketch v2_0
100
AcDbLine
 10
-2.50999999999998
 20
-3.919999999999978
 30
0.0
 11
-2.50999999999995
 21
-3.969999999999907
 31
0.0
  0
LINE
  5
7F
330
70
100
AcDbEntity
  8
LCF8-8080-Sketch v2_0
100
AcDbLine
 10
-3.549999999999878
 20
-1.369999999999971
 30
0.0
 11
-3.549999999999831
 21
-1.55999999999995
 31
0.0
  0
ARC
  5
80
330
70
100
AcDbEntity
  8
LCF8-8080-Sketch v2_0
100
AcDbCircle
 10
3.579999999999743
 20
-1.55999999999996
 30
0.0
 40
0.0299999999999128
210
0.0
220
0.0
230
-1.0
100
AcDbArc
 50
179.9999999999809
 51
270.0000000001162
  0
LINE
  5
81
330
70
100
AcDbEntity
  8
LCF8-8080-Sketch v2_0
100
AcDbLine
 10
-3.579999999999875
 20
1.340000000000064
 30
0.0
 11
-3.69999999999989
 21
1.340000000000071
 31
0.0
  0
ARC
  5
82
330
70
100
AcDbEntity
  8
LCF8-8080-Sketch v2_0
100
AcDbCircle
 10
-2.800000000000189
 20
1.419203102167553
 30
0.0
 40
0.0299999999999523
100
AcDbArc
 50
314.9999999999949
 51
0.0000000000025444
  0
LINE
  5
83
330
70
100
AcDbEntity
  8
LCF8-8080-Sketch v2_0
100
AcDbLine
 10
-3.214203102167665
 20
3.024999999999934
 30
0.0
 11
-3.69999999999985
 21
3.024999999999934
 31
0.0
  0
LINE
  5
84
330
70
100
AcDbEntity
  8
LCF8-8080-Sketch v2_0
100
AcDbLine
 10
-3.69999999999989
 20
-1.339999999999886
 30
0.0
 11
-3.579999999999908
 21
-1.33999999999994
 31
0.0
  0
LINE
  5
85
330
70
100
AcDbEntity
  8
LCF8-8080-Sketch v2_0
100
AcDbLine
 10
-2.770000000000235
 20
-2.58079689783235
 30
0.0
 11
-2.770000000000234
 21
-1.419203102167536
 31
0.0
  0
ARC
  5
86
330
70
100
AcDbEntity
  8
LCF8-8080-Sketch v2_0
100
AcDbCircle
 10
-2.800000000000194
 20
-1.419203102167536
 30
0.0
 40
0.0299999999999594
100
AcDbArc
 50
0.0
 51
44.99999999999729
  0
ARC
  5
87
330
70
100
AcDbEntity
  8
LCF8-8080-Sketch v2_0
100
AcDbCircle
 10
-3.21420310216775
 20
1.00500000000001
 30
0.0
 40
0.0300000000000127
100
AcDbArc
 50
270.0000000000441
 51
315.0000000000367
  0
LINE
  5
88
330
70
100
AcDbEntity
  8
LCF8-8080-Sketch v2_0
100
AcDbLine
 10
-2.770000000000237
 20
1.419203102167554
 30
0.0
 11
-2.770000000000236
 21
2.580796897832538
 31
0.0
  0
ARC
  5
89
330
70
100
AcDbEntity
  8
LCF8-8080-Sketch v2_0
100
AcDbCircle
 10
-3.214203102167667
 20
2.994999999999982
 30
0.0
 40
0.0299999999999524
100
AcDbArc
 50
44.9999999999994
 51
89.99999999999745
  0
LINE
  5
8A
330
70
100
AcDbEntity
  8
LCF8-8080-Sketch v2_0
100
AcDbLine
 10
-3.969999999999853
 20
-2.509999999999977
 30
0.0
 11
-3.919999999999931
 21
-2.510000000000029
 31
0.0
  0
LINE
  5
8B
330
70
100
AcDbEntity
  8
LCF8-8080-Sketch v2_0
100
AcDbLine
 10
-1.559999999999951
 20
3.900000000000009
 30
0.0
 11
-1.509999999999944
 21
3.899999999999982
 31
0.0
  0
LINE
  5
8C
330
70
100
AcDbEntity
  8
LCF8-8080-Sketch v2_0
100
AcDbLine
 10
-3.99999999999988
 20
2.540000000000064
 30
0.0
 11
-3.999999999999845
 21
3.55000000000002
 31
0.0
  0
ARC
  5
8D
330
70
100
AcDbEntity
  8
LCF8-8080-Sketch v2_0
100
AcDbCircle
 10
-2.924999999999984
 20
3.700000000000003
 30
0.0
 40
0.0999999999999895
100
AcDbArc
 50
90.00000000000049
 51
180.0
  0
LINE
  5
8E
330
70
100
AcDbEntity
  8
LCF8-8080-Sketch v2_0
100
AcDbLine
 10
-3.69999999999989
 20
2.660000000000035
 30
0.0
 11
-3.579999999999963
 21
2.660000000000037
 31
0.0
  0
LINE
  5
8F
330
70
100
AcDbEntity
  8
LCF8-8080-Sketch v2_0
100
AcDbLine
 10
-1.339999999999983
 20
3.700000000000012
 30
0.0
 11
-1.339999999999947
 21
3.58000000000004
 31
0.0
  0
ARC
  5
90
330
70
100
AcDbEntity
  8
LCF8-8080-Sketch v2_0
100
AcDbCircle
 10
-1.560000000000032
 20
3.870000000000018
 30
0.0
 40
0.0299999999999909
210
0.0
220
0.0
230
-1.0
100
AcDbArc
 50
90.00000000000211
 51
179.9999999999381
  0
ARC
  5
91
330
70
100
AcDbEntity
  8
LCF8-8080-Sketch v2_0
100
AcDbCircle
 10
-3.69999999999985
 20
2.924999999999937
 30
0.0
 40
0.099999999999997
100
AcDbArc
 50
90.0
 51
180.0000000000002
  0
LINE
  5
92
330
70
100
AcDbEntity
  8
LCF8-8080-Sketch v2_0
100
AcDbLine
 10
-3.919999999999873
 20
2.510000000000043
 30
0.0
 11
-3.969999999999865
 21
2.510000000000053
 31
0.0
  0
ARC
  5
93
330
70
100
AcDbEntity
  8
LCF8-8080-Sketch v2_0
100
AcDbCircle
 10
3.969999999999858
 20
2.540000000000075
 30
0.0
 40
0.0300000000000216
210
0.0
220
0.0
230
-1.0
100
AcDbArc
 50
270.0000000000135
 51
359.9999999999797
  0
ARC
  5
94
330
70
100
AcDbEntity
  8
LCF8-8080-Sketch v2_0
100
AcDbCircle
 10
3.549999999999876
 20
3.55000000000003
 30
0.0
 40
0.4499999999999691
210
0.0
220
0.0
230
-1.0
100
AcDbArc
 50
359.9999999999987
 51
90.00000000000012
  0
LINE
  5
95
330
70
100
AcDbEntity
  8
LCF8-8080-Sketch v2_0
100
AcDbLine
 10
-2.509999999999989
 20
3.970000000000007
 30
0.0
 11
-2.510000000000028
 21
3.920000000000045
 31
0.0
  0
ARC
  5
96
330
70
100
AcDbEntity
  8
LCF8-8080-Sketch v2_0
100
AcDbCircle
 10
-1.075000000000015
 20
3.700000000000022
 30
0.0
 40
0.0999999999999883
100
AcDbArc
 50
0.0000000000002544
 51
90.00000000000039
  0
ARC
  5
97
330
70
100
AcDbEntity
  8
LCF8-8080-Sketch v2_0
100
AcDbCircle
 10
-3.919999999999876
 20
2.490000000000047
 30
0.0
 40
0.0199999999999965
100
AcDbArc
 50
0.0000000000025444
 51
89.99999999999237
  0
LINE
  5
98
330
70
100
AcDbEntity
  8
LCF8-8080-Sketch v2_0
100
AcDbLine
 10
-1.075000000000016
 20
3.80000000000001
 30
0.0
 11
-1.239999999999984
 21
3.800000000000009
 31
0.0
  0
LINE
  5
99
330
70
100
AcDbEntity
  8
LCF8-8080-Sketch v2_0
100
AcDbLine
 10
1.490000000000014
 20
3.97000000000005
 30
0.0
 11
1.490000000000023
 21
3.920000000000045
 31
0.0
  0
ARC
  5
9A
330
70
100
AcDbEntity
  8
LCF8-8080-Sketch v2_0
100
AcDbCircle
 10
2.440000000000043
 20
3.869999999999928
 30
0.0
 40
0.0300000000000806
210
0.0
220
0.0
230
-1.0
100
AcDbArc
 50
89.99999999999745
 51
180.0000000000297
  0
ARC
  5
9B
330
70
100
AcDbEntity
  8
LCF8-8080-Sketch v2_0
100
AcDbCircle
 10
-2.994999999999796
 20
3.214203102167891
 30
0.0
 40
0.0300000000001477
100
AcDbArc
 50
180.0000000000687
 51
224.9999999999406
  0
ARC
  5
9C
330
70
100
AcDbEntity
  8
LCF8-8080-Sketch v2_0
100
AcDbCircle
 10
1.459999999999952
 20
3.970000000000018
 30
0.0
 40
0.0299999999999825
210
0.0
220
0.0
230
-1.0
100
AcDbArc
 50
0.0000000000619148
 51
89.99999999997966
  0
LINE
  5
9D
330
70
100
AcDbEntity
  8
LCF8-8080-Sketch v2_0
100
AcDbLine
 10
1.340000000000023
 20
3.580000000000027
 30
0.0
 11
1.340000000000017
 21
3.700000000000022
 31
0.0
  0
ARC
  5
9E
330
70
100
AcDbEntity
  8
LCF8-8080-Sketch v2_0
100
AcDbCircle
 10
1.240000000000029
 20
3.700000000000022
 30
0.0
 40
0.0999999999999883
100
AcDbArc
 50
0.0
 51
90.00000000000039
  0
LINE
  5
9F
330
70
100
AcDbEntity
  8
LCF8-8080-Sketch v2_0
100
AcDbLine
 10
-1.589999999999947
 20
3.580000000000027
 30
0.0
 11
-1.589999999999942
 21
3.87000000000005
 31
0.0
  0
LINE
  5
A0
330
70
100
AcDbEntity
  8
LCF8-8080-Sketch v2_0
100
AcDbLine
 10
-3.899999999999886
 20
2.440000000000076
 30
0.0
 11
-3.899999999999879
 21
2.490000000000048
 31
0.0
  0
LINE
  5
A1
330
70
100
AcDbEntity
  8
LCF8-8080-Sketch v2_0
100
AcDbLine
 10
-1.489999999999963
 20
3.919999999999935
 30
0.0
 11
-1.489999999999934
 21
3.97000000000005
 31
0.0
  0
ARC
  5
A2
330
70
100
AcDbEntity
  8
LCF8-8080-Sketch v2_0
100
AcDbCircle
 10
3.579999999999962
 20
2.629999999999965
 30
0.0
 40
0.0300000000000726
210
0.0
220
0.0
230
-1.0
100
AcDbArc
 50
89.99999999999831
 51
179.9999999999991
  0
ARC
  5
A3
330
70
100
AcDbEntity
  8
LCF8-8080-Sketch v2_0
100
AcDbCircle
 10
-1.509999999999915
 20
3.919999999999935
 30
0.0
 40
0.0199999999999521
100
AcDbArc
 50
269.999999999916
 51
0.0
  0
LINE
  5
A4
330
70
100
AcDbEntity
  8
LCF8-8080-Sketch v2_0
100
AcDbLine
 10
-2.490000000000003
 20
3.899999999999999
 30
0.0
 11
-2.440000000000044
 21
3.900000000000009
 31
0.0
  0
LINE
  5
A5
330
70
100
AcDbEntity
  8
LCF8-8080-Sketch v2_0
100
AcDbLine
 10
-3.54999999999989
 20
2.629999999999965
 30
0.0
 11
-3.549999999999858
 21
2.440000000000065
 31
0.0
  0
ARC
  5
A6
330
70
100
AcDbEntity
  8
LCF8-8080-Sketch v2_0
100
AcDbCircle
 10
-3.699999999999891
 20
2.76000000000003
 30
0.0
 40
0.0999999999999948
100
AcDbArc
 50
180.0000000000002
 51
270.0000000000005
  0
ARC
  5
A7
330
70
100
AcDbEntity
  8
LCF8-8080-Sketch v2_0
100
AcDbCircle
 10
2.540000000000044
 20
3.96999999999993
 30
0.0
 40
0.0300000000000549
210
0.0
220
0.0
230
-1.0
100
AcDbArc
 50
90.00000000004835
 51
179.9999999998524
  0
LINE
  5
A8
330
70
100
AcDbEntity
  8
LCF8-8080-Sketch v2_0
100
AcDbLine
 10
-2.409999999999962
 20
3.869999999999913
 30
0.0
 11
-2.409999999999961
 21
3.579999999999957
 31
0.0
  0
LINE
  5
A9
330
70
100
AcDbEntity
  8
LCF8-8080-Sketch v2_0
100
AcDbLine
 10
1.510000000000041
 20
3.900000000000005
 30
0.0
 11
1.560000000000033
 21
3.900000000000009
 31
0.0
  0
ARC
  5
AA
330
70
100
AcDbEntity
  8
LCF8-8080-Sketch v2_0
100
AcDbCircle
 10
-1.239999999999984
 20
3.70000000000001
 30
0.0
 40
0.0999999999999992
100
AcDbArc
 50
90.0
 51
179.9999999999992
  0
LINE
  5
AB
330
70
100
AcDbEntity
  8
LCF8-8080-Sketch v2_0
100
AcDbLine
 10
-2.759999999999973
 20
3.799999999999992
 30
0.0
 11
-2.924999999999985
 21
3.799999999999993
 31
0.0
  0
ARC
  5
AC
330
70
100
AcDbEntity
  8
LCF8-8080-Sketch v2_0
100
AcDbCircle
 10
3.57999999999981
 20
2.440000000000065
 30
0.0
 40
0.0299999999999514
210
0.0
220
0.0
230
-1.0
100
AcDbArc
 50
180.0
 51
270.0000000000941
  0
ARC
  5
AD
330
70
100
AcDbEntity
  8
LCF8-8080-Sketch v2_0
100
AcDbCircle
 10
-2.490000000000016
 20
3.92000000000001
 30
0.0
 40
0.020000000000012
100
AcDbArc
 50
179.999999999902
 51
270.0000000000356
  0
LINE
  5
AE
330
70
100
AcDbEntity
  8
LCF8-8080-Sketch v2_0
100
AcDbLine
 10
-1.397989898731639
 20
2.778786796564989
 30
0.0
 11
-0.9750000000000271
 21
3.201776695296563
 31
0.0
  0
ARC
  5
AF
330
70
100
AcDbEntity
  8
LCF8-8080-Sketch v2_0
100
AcDbCircle
 10
1.369999999999978
 20
3.58000000000004
 30
0.0
 40
0.0300000000000309
210
0.0
220
0.0
230
-1.0
100
AcDbArc
 50
179.9999999999991
 51
269.9999999999838
  0
LINE
  5
B0
330
70
100
AcDbEntity
  8
LCF8-8080-Sketch v2_0
100
AcDbLine
 10
-0.9750000000000271
 20
3.201776695296563
 30
0.0
 11
-0.9750000000000271
 21
3.700000000000022
 31
0.0
  0
LINE
  5
B1
330
70
100
AcDbEntity
  8
LCF8-8080-Sketch v2_0
100
AcDbLine
 10
-1.459999999999962
 20
4.0
 30
0.0
 11
1.460000000000043
 21
4.0
 31
0.0
  0
ARC
  5
B2
330
70
100
AcDbEntity
  8
LCF8-8080-Sketch v2_0
100
AcDbCircle
 10
1.510000000000029
 20
3.920000000000011
 30
0.0
 40
0.020000000000006
100
AcDbArc
 50
179.9999999999033
 51
270.0000000000362
  0
ARC
  5
B3
330
70
100
AcDbEntity
  8
LCF8-8080-Sketch v2_0
100
AcDbCircle
 10
-1.559999999999995
 20
3.580000000000039
 30
0.0
 40
0.0300000000000307
210
0.0
220
0.0
230
-1.0
100
AcDbArc
 50
179.9999999999974
 51
269.9999999999856
  0
LINE
  5
B4
330
70
100
AcDbEntity
  8
LCF8-8080-Sketch v2_0
100
AcDbLine
 10
-3.024999999999973
 20
3.700000000000003
 30
0.0
 11
-3.024999999999944
 21
3.214203102167855
 31
0.0
  0
ARC
  5
B5
330
70
100
AcDbEntity
  8
LCF8-8080-Sketch v2_0
100
AcDbCircle
 10
3.869999999999857
 20
2.440000000000075
 30
0.0
 40
0.0300000000000287
210
0.0
220
0.0
230
-1.0
100
AcDbArc
 50
270.0000000000144
 51
0.0000000000016963
  0
LINE
  5
B6
330
70
100
AcDbEntity
  8
LCF8-8080-Sketch v2_0
100
AcDbLine
 10
-3.549999999999875
 20
4.0
 30
0.0
 11
-2.540000000000018
 21
3.999999999999985
 31
0.0
  0
LINE
  5
B7
330
70
100
AcDbEntity
  8
LCF8-8080-Sketch v2_0
100
AcDbLine
 10
-1.369999999999969
 20
3.550000000000009
 30
0.0
 11
-1.559999999999951
 21
3.550000000000009
 31
0.0
  0
ARC
  5
B8
330
70
100
AcDbEntity
  8
LCF8-8080-Sketch v2_0
100
AcDbCircle
 10
1.55999999999995
 20
3.870000000000017
 30
0.0
 40
0.0299999999999914
210
0.0
220
0.0
230
-1.0
100
AcDbArc
 50
0.0000000000636111
 51
89.99999999999831
  0
ARC
  5
B9
330
70
100
AcDbEntity
  8
LCF8-8080-Sketch v2_0
100
AcDbCircle
 10
1.559999999999928
 20
3.580000000000028
 30
0.0
 40
0.0300000000000185
210
0.0
220
0.0
230
-1.0
100
AcDbArc
 50
270.0000000000433
 51
359.9999999999992
  0
ARC
  5
BA
330
70
100
AcDbEntity
  8
LCF8-8080-Sketch v2_0
100
AcDbCircle
 10
2.439999999999909
 20
3.579999999999957
 30
0.0
 40
0.0299999999999483
210
0.0
220
0.0
230
-1.0
100
AcDbArc
 50
180.0000000000008
 51
269.9999999999754
  0
ARC
  5
BB
330
70
100
AcDbEntity
  8
LCF8-8080-Sketch v2_0
100
AcDbCircle
 10
2.62999999999994
 20
3.58000000000004
 30
0.0
 40
0.030000000000034
210
0.0
220
0.0
230
-1.0
100
AcDbArc
 50
270.0000000000127
 51
0.0
  0
LINE
  5
BC
330
70
100
AcDbEntity
  8
LCF8-8080-Sketch v2_0
100
AcDbLine
 10
-3.579999999999859
 20
2.410000000000113
 30
0.0
 11
-3.869999999999865
 21
2.410000000000046
 31
0.0
  0
LINE
  5
BD
330
70
100
AcDbEntity
  8
LCF8-8080-Sketch v2_0
100
AcDbLine
 10
-2.659999999999974
 20
3.58000000000004
 30
0.0
 11
-2.659999999999982
 21
3.700000000000003
 31
0.0
  0
LINE
  5
BE
330
70
100
AcDbEntity
  8
LCF8-8080-Sketch v2_0
100
AcDbLine
 10
-3.799999999999847
 20
2.924999999999937
 30
0.0
 11
-3.799999999999886
 21
2.760000000000029
 31
0.0
  0
LINE
  5
BF
330
70
100
AcDbEntity
  8
LCF8-8080-Sketch v2_0
100
AcDbLine
 10
1.560000000000003
 20
3.550000000000008
 30
0.0
 11
1.370000000000024
 21
3.550000000000006
 31
0.0
  0
ARC
  5
C0
330
70
100
AcDbEntity
  8
LCF8-8080-Sketch v2_0
100
AcDbCircle
 10
-1.370000000000045
 20
3.580000000000027
 30
0.0
 40
0.0300000000000211
210
0.0
220
0.0
230
-1.0
100
AcDbArc
 50
270.0000000000403
 51
0.0
  0
LINE
  5
C1
330
70
100
AcDbEntity
  8
LCF8-8080-Sketch v2_0
100
AcDbLine
 10
1.590000000000023
 20
3.87000000000005
 30
0.0
 11
1.590000000000026
 21
3.58000000000004
 31
0.0
  0
ARC
  5
C2
330
70
100
AcDbEntity
  8
LCF8-8080-Sketch v2_0
100
AcDbCircle
 10
-1.419203102167574
 20
2.800000000000847
 30
0.0
 40
0.0300000000004244
100
AcDbArc
 50
270.0000000001204
 51
315.0000000001043
  0
LINE
  5
C3
330
70
100
AcDbEntity
  8
LCF8-8080-Sketch v2_0
100
AcDbLine
 10
1.240000000000028
 20
3.800000000000011
 30
0.0
 11
1.075000000000016
 21
3.800000000000011
 31
0.0
  0
LINE
  5
C4
330
70
100
AcDbEntity
  8
LCF8-8080-Sketch v2_0
100
AcDbLine
 10
-3.016213203435519
 20
3.192989898732212
 30
0.0
 11
-2.602010101268192
 21
2.778786796564855
 31
0.0
  0
LINE
  5
C5
330
70
100
AcDbEntity
  8
LCF8-8080-Sketch v2_0
100
AcDbLine
 10
-2.439999999999896
 20
3.550000000000009
 30
0.0
 11
-2.629999999999947
 21
3.550000000000006
 31
0.0
  0
ARC
  5
C6
330
70
100
AcDbEntity
  8
LCF8-8080-Sketch v2_0
100
AcDbCircle
 10
-1.830640211182785
 20
2.328963921925721
 30
0.0
 40
0.0299999999998251
100
AcDbArc
 50
242.7593289193304
 51
311.1286258782322
  0
ARC
  5
C7
330
70
100
AcDbEntity
  8
LCF8-8080-Sketch v2_0
100
AcDbCircle
 10
-2.759999999999971
 20
3.700000000000003
 30
0.0
 40
0.099999999999989
100
AcDbArc
 50
0.0
 51
90.00000000000103
  0
ARC
  5
C8
330
70
100
AcDbEntity
  8
LCF8-8080-Sketch v2_0
100
AcDbCircle
 10
-1.460000000000031
 20
3.970000000000017
 30
0.0
 40
0.0299999999999834
210
0.0
220
0.0
230
-1.0
100
AcDbArc
 50
90.00000000002248
 51
179.9999999999372
  0
ARC
  5
C9
330
70
100
AcDbEntity
  8
LCF8-8080-Sketch v2_0
100
AcDbCircle
 10
1.075000000000016
 20
3.700000000000011
 30
0.0
 40
0.0999999999999992
100
AcDbArc
 50
90.0
 51
179.9999999999997
  0
LINE
  5
CA
330
70
100
AcDbEntity
  8
LCF8-8080-Sketch v2_0
100
AcDbLine
 10
-2.580796897832591
 20
2.770000000000451
 30
0.0
 11
-1.419203102167511
 21
2.770000000000423
 31
0.0
  0
LINE
  5
CB
330
70
100
AcDbEntity
  8
LCF8-8080-Sketch v2_0
100
AcDbLine
 10
2.660000000000053
 20
3.700000000000003
 30
0.0
 11
2.660000000000055
 21
3.58000000000004
 31
0.0
  0
ARC
  5
CC
330
70
100
AcDbEntity
  8
LCF8-8080-Sketch v2_0
100
AcDbCircle
 10
1.999999999997046
 20
1.999999999995163
 30
0.0
 40
0.3399999999990238
210
0.0
220
0.0
230
-1.0
100
AcDbArc
 50
152.5020771616881
 51
207.497922838686
  0
ARC
  5
CD
330
70
100
AcDbEntity
  8
LCF8-8080-Sketch v2_0
100
AcDbCircle
 10
-1.671799798169643
 20
1.829164911327955
 30
0.0
 40
0.0300000000002742
100
AcDbArc
 50
152.5020771613147
 51
220.8713741208382
  0
ARC
  5
CE
330
70
100
AcDbEntity
  8
LCF8-8080-Sketch v2_0
100
AcDbCircle
 10
2.330254293665591
 20
2.327298359586426
 30
0.0
 40
0.074999999999947
210
0.0
220
0.0
230
-1.0
100
AcDbArc
 50
318.8713741210124
 51
130.8713741198964
  0
LINE
  5
CF
330
70
100
AcDbEntity
  8
LCF8-8080-Sketch v2_0
100
AcDbLine
 10
0.975000000000017
 20
3.700000000000012
 30
0.0
 11
0.975000000000017
 21
3.201776695296574
 31
0.0
  0
ARC
  5
D0
330
70
100
AcDbEntity
  8
LCF8-8080-Sketch v2_0
100
AcDbCircle
 10
1.629999999999939
 20
-1.630000000000031
 30
0.0
 40
0.4000000000000213
210
0.0
220
0.0
230
-1.0
100
AcDbArc
 50
90.00000000000222
 51
179.9999999999984
  0
ARC
  5
D1
330
70
100
AcDbEntity
  8
LCF8-8080-Sketch v2_0
100
AcDbCircle
 10
-2.630000000000024
 20
3.58000000000004
 30
0.0
 40
0.0300000000000309
210
0.0
220
0.0
230
-1.0
100
AcDbArc
 50
180.0000000000008
 51
269.9999999999873
  0
LINE
  5
D2
330
70
100
AcDbEntity
  8
LCF8-8080-Sketch v2_0
100
AcDbLine
 10
1.419203102167458
 20
2.770000000000451
 30
0.0
 11
2.580796897832626
 21
2.77000000000045
 31
0.0
  0
ARC
  5
D3
330
70
100
AcDbEntity
  8
LCF8-8080-Sketch v2_0
100
AcDbCircle
 10
3.274999999999968
 20
-3.704999999999833
 30
0.0
 40
0.0999999999999912
100
AcDbArc
 50
180.0000000000015
 51
270.0000000000025
  0
ARC
  5
D4
330
70
100
AcDbEntity
  8
LCF8-8080-Sketch v2_0
100
AcDbCircle
 10
-2.440000000000082
 20
3.580000000000083
 30
0.0
 40
0.0300000000000629
210
0.0
220
0.0
230
-1.0
100
AcDbArc
 50
270.0000000000526
 51
359.9999999999567
  0
LINE
  5
D5
330
70
100
AcDbEntity
  8
LCF8-8080-Sketch v2_0
100
AcDbLine
 10
2.440000000000052
 20
3.900000000000009
 30
0.0
 11
2.490000000000041
 21
3.900000000000002
 31
0.0
  0
ARC
  5
D6
330
70
100
AcDbEntity
  8
LCF8-8080-Sketch v2_0
100
AcDbCircle
 10
-2.540000000000051
 20
3.970000000000017
 30
0.0
 40
0.0299999999999825
210
0.0
220
0.0
230
-1.0
100
AcDbArc
 50
0.0000000000636111
 51
89.99999999997625
  0
ARC
  5
D7
330
70
100
AcDbEntity
  8
LCF8-8080-Sketch v2_0
100
AcDbCircle
 10
2.760000000000052
 20
3.700000000000003
 30
0.0
 40
0.0999999999999992
100
AcDbArc
 50
89.99999999999872
 51
179.9999999999997
  0
ARC
  5
D8
330
70
100
AcDbEntity
  8
LCF8-8080-Sketch v2_0
100
AcDbCircle
 10
1.669745706334054
 20
1.672701640408595
 30
0.0
 40
0.0750000000000624
210
0.0
220
0.0
230
-1.0
100
AcDbArc
 50
138.8713741258233
 51
310.8713741148962
  0
LINE
  5
D9
330
70
100
AcDbEntity
  8
LCF8-8080-Sketch v2_0
100
AcDbLine
 10
-0.7249999999999549
 20
-3.181066017177969
 30
0.0
 11
-0.7249999999999778
 21
-3.680000000000005
 31
0.0
  0
LINE
  5
DA
330
70
100
AcDbEntity
  8
LCF8-8080-Sketch v2_0
100
AcDbLine
 10
2.63000000000003
 20
3.550000000000009
 30
0.0
 11
2.440000000000055
 21
3.55000000000002
 31
0.0
  0
ARC
  5
DB
330
70
100
AcDbEntity
  8
LCF8-8080-Sketch v2_0
100
AcDbCircle
 10
3.274999999999917
 20
-3.274999999999898
 30
0.0
 40
0.1000000000000143
100
AcDbArc
 50
89.99999999999058
 51
179.9999999999799
  0
LINE
  5
DC
330
70
100
AcDbEntity
  8
LCF8-8080-Sketch v2_0
100
AcDbLine
 10
3.274999999999973
 20
-3.804999999999825
 30
0.0
 11
3.549999999999875
 21
-3.804999999999824
 31
0.0
  0
ARC
  5
DD
330
70
100
AcDbEntity
  8
LCF8-8080-Sketch v2_0
100
AcDbCircle
 10
-2.16935978881098
 20
1.67103607806442
 30
0.0
 40
0.0299999999998353
100
AcDbArc
 50
62.7593289194029
 51
131.1286258783705
  0
LINE
  5
DE
330
70
100
AcDbEntity
  8
LCF8-8080-Sketch v2_0
100
AcDbLine
 10
2.510000000000063
 20
3.920000000000045
 30
0.0
 11
2.510000000000068
 21
3.97000000000005
 31
0.0
  0
LINE
  5
DF
330
70
100
AcDbEntity
  8
LCF8-8080-Sketch v2_0
100
AcDbLine
 10
3.799999999999885
 20
-3.554999999999818
 30
0.0
 11
3.799999999999878
 21
-3.274999999999904
 31
0.0
  0
ARC
  5
E0
330
70
100
AcDbEntity
  8
LCF8-8080-Sketch v2_0
100
AcDbCircle
 10
-2.440000000000051
 20
3.870000000000017
 30
0.0
 40
0.0299999999999914
210
0.0
220
0.0
230
-1.0
100
AcDbArc
 50
0.0000000000627629
 51
90.00000000000087
  0
LINE
  5
E1
330
70
100
AcDbEntity
  8
LCF8-8080-Sketch v2_0
100
AcDbLine
 10
2.925000000000019
 20
3.799999999999992
 30
0.0
 11
2.760000000000054
 21
3.800000000000002
 31
0.0
  0
ARC
  5
E2
330
70
100
AcDbEntity
  8
LCF8-8080-Sketch v2_0
100
AcDbCircle
 10
1.999999999997045
 20
1.999999999995162
 30
0.0
 40
0.3399999999990246
210
0.0
220
0.0
230
-1.0
100
AcDbArc
 50
332.5020771613266
 51
27.4979228384468
  0
ARC
  5
E3
330
70
100
AcDbEntity
  8
LCF8-8080-Sketch v2_0
100
AcDbCircle
 10
2.580796897832627
 20
2.800000000000453
 30
0.0
 40
0.0300000000000029
100
AcDbArc
 50
269.9999999999992
 51
315.0000000000048
  0
ARC
  5
E4
330
70
100
AcDbEntity
  8
LCF8-8080-Sketch v2_0
100
AcDbCircle
 10
1.419203102167458
 20
2.80000000000075
 30
0.0
 40
0.0300000000002997
100
AcDbArc
 50
225.0000000000006
 51
269.9999999999988
  0
ARC
  5
E5
330
70
100
AcDbEntity
  8
LCF8-8080-Sketch v2_0
100
AcDbCircle
 10
-2.32820020182438
 20
1.829164911328082
 30
0.0
 40
0.0300000000001541
100
AcDbArc
 50
319.1286258785131
 51
27.49792283867363
  0
LINE
  5
E6
330
70
100
AcDbEntity
  8
LCF8-8080-Sketch v2_0
100
AcDbLine
 10
-1.694485212980876
 20
1.809534018458329
 30
0.0
 11
-1.613253091591425
 21
1.722033014599369
 31
0.0
  0
ARC
  5
E7
330
70
100
AcDbEntity
  8
LCF8-8080-Sketch v2_0
100
AcDbCircle
 10
3.699999999999886
 20
-3.274999999999908
 30
0.0
 40
0.0999999999999917
100
AcDbArc
 50
0.00000000000229
 51
90.0000000000028
  0
LINE
  5
E8
330
70
100
AcDbEntity
  8
LCF8-8080-Sketch v2_0
100
AcDbLine
 10
2.602010101268227
 20
2.778786796564856
 30
0.0
 11
3.016213203435623
 21
3.192989898732239
 31
0.0
  0
LINE
  5
E9
330
70
100
AcDbEntity
  8
LCF8-8080-Sketch v2_0
100
AcDbLine
 10
2.540000000000038
 20
4.0
 30
0.0
 11
3.549999999999956
 21
4.0
 31
0.0
  0
LINE
  5
EA
330
70
100
AcDbEntity
  8
LCF8-8080-Sketch v2_0
100
AcDbLine
 10
-2.384011896608775
 20
1.718822938506991
 30
0.0
 11
-2.30551478701346
 21
1.809534018458277
 31
0.0
  0
LINE
  5
EB
330
70
100
AcDbEntity
  8
LCF8-8080-Sketch v2_0
100
AcDbLine
 10
-1.615988103377645
 20
2.281177061489803
 30
0.0
 11
-1.694485212979469
 21
2.190465981530842
 31
0.0
  0
ARC
  5
EC
330
70
100
AcDbEntity
  8
LCF8-8080-Sketch v2_0
100
AcDbCircle
 10
-1.830640211183481
 20
1.671036078064121
 30
0.0
 40
0.0299999999999319
100
AcDbArc
 50
48.87137412091401
 51
117.2406710805217
  0
ARC
  5
ED
330
70
100
AcDbEntity
  8
LCF8-8080-Sketch v2_0
100
AcDbCircle
 10
-2.32820020182556
 20
2.170835088661208
 30
0.0
 40
0.0300000000007235
100
AcDbArc
 50
332.5020771615513
 51
40.87137412234103
  0
LINE
  5
EE
330
70
100
AcDbEntity
  8
LCF8-8080-Sketch v2_0
100
AcDbLine
 10
-2.28117706149294
 20
2.384011896614755
 30
0.0
 11
-2.189092338489232
 21
2.306366876030884
 31
0.0
  0
ARC
  5
EF
330
70
100
AcDbEntity
  8
LCF8-8080-Sketch v2_0
100
AcDbCircle
 10
2.490000000000054
 20
3.920000000000011
 30
0.0
 40
0.0200000000000094
100
AcDbArc
 50
269.9999999999619
 51
0.0000000000966889
  0
ARC
  5
F0
330
70
100
AcDbEntity
  8
LCF8-8080-Sketch v2_0
100
AcDbCircle
 10
-2.169359788810888
 20
2.328963921926177
 30
0.0
 40
0.0300000000000389
100
AcDbArc
 50
228.8713741206877
 51
297.2406710805601
  0
LINE
  5
F1
330
70
100
AcDbEntity
  8
LCF8-8080-Sketch v2_0
100
AcDbLine
 10
-2.189092338488819
 20
1.693633123959885
 30
0.0
 11
-2.277966985393487
 21
1.613253091587855
 31
0.0
  0
LINE
  5
F2
330
70
100
AcDbEntity
  8
LCF8-8080-Sketch v2_0
100
AcDbLine
 10
-1.229999999999918
 20
-1.63000000000002
 30
0.0
 11
-1.229999999999955
 21
-2.593223304703396
 31
0.0
  0
ARC
  5
F3
330
70
100
AcDbEntity
  8
LCF8-8080-Sketch v2_0
100
AcDbCircle
 10
1.999999999997046
 20
1.999999999995163
 30
0.0
 40
0.3399999999990242
210
0.0
220
0.0
230
-1.0
100
AcDbArc
 50
242.7593289194774
 51
297.2406710805943
  0
ARC
  5
F4
330
70
100
AcDbEntity
  8
LCF8-8080-Sketch v2_0
100
AcDbCircle
 10
2.995000000000062
 20
3.214203102167812
 30
0.0
 40
0.0299999999999587
100
AcDbArc
 50
314.9999999999838
 51
359.9999999999992
  0
ARC
  5
F5
330
70
100
AcDbEntity
  8
LCF8-8080-Sketch v2_0
100
AcDbCircle
 10
0.9249999999998117
 20
-3.181066017177935
 30
0.0
 40
0.1999999999998569
210
0.0
220
0.0
230
-1.0
100
AcDbArc
 50
135.0000000000096
 51
180.0000000000095
  0
ARC
  5
F6
330
70
100
AcDbEntity
  8
LCF8-8080-Sketch v2_0
100
AcDbCircle
 10
2.92500000000002
 20
3.700000000000004
 30
0.0
 40
0.0999999999999881
100
AcDbArc
 50
359.9999999999997
 51
90.00000000000076
  0
LINE
  5
F7
330
70
100
AcDbEntity
  8
LCF8-8080-Sketch v2_0
100
AcDbLine
 10
3.174999999999903
 20
-3.274999999999863
 30
0.0
 11
3.174999999999977
 21
-3.704999999999836
 31
0.0
  0
ARC
  5
F8
330
70
100
AcDbEntity
  8
LCF8-8080-Sketch v2_0
100
AcDbCircle
 10
-1.671799798167931
 20
2.17083508866054
 30
0.0
 40
0.0300000000009473
100
AcDbArc
 50
139.1286258785667
 51
207.4979228383142
  0
LINE
  5
F9
330
70
100
AcDbEntity
  8
LCF8-8080-Sketch v2_0
100
AcDbLine
 10
-1.718822938501832
 20
1.615988103375895
 30
0.0
 11
-1.810907661505297
 21
1.693633123959412
 31
0.0
  0
LINE
  5
FA
330
70
100
AcDbEntity
  8
LCF8-8080-Sketch v2_0
100
AcDbLine
 10
2.410000000000019
 20
3.58000000000006
 30
0.0
 11
2.41000000000006
 21
3.87000000000005
 31
0.0
  0
LINE
  5
FB
330
70
100
AcDbEntity
  8
LCF8-8080-Sketch v2_0
100
AcDbLine
 10
3.699999999999881
 20
-3.174999999999917
 30
0.0
 11
3.274999999999934
 21
-3.174999999999883
 31
0.0
  0
LINE
  5
FC
330
70
100
AcDbEntity
  8
LCF8-8080-Sketch v2_0
100
AcDbLine
 10
0.7250000000000228
 20
-3.680000000000005
 30
0.0
 11
0.7249999999999491
 21
-3.181066017178086
 31
0.0
  0
ARC
  5
FD
330
70
100
AcDbEntity
  8
LCF8-8080-Sketch v2_0
100
AcDbCircle
 10
2.327298359581724
 20
1.669745706332694
 30
0.0
 40
0.0750000000000576
210
0.0
220
0.0
230
-1.0
100
AcDbArc
 50
228.8713741283935
 51
40.87137412148629
  0
ARC
  5
FE
330
70
100
AcDbEntity
  8
LCF8-8080-Sketch v2_0
100
AcDbCircle
 10
3.549999999999869
 20
-3.554999999999808
 30
0.0
 40
0.2500000000000155
100
AcDbArc
 50
270.0000000000014
 51
359.9999999999978
  0
ARC
  5
FF
330
70
100
AcDbEntity
  8
LCF8-8080-Sketch v2_0
100
AcDbCircle
 10
-0.9250000000001513
 20
-3.181066017178086
 30
0.0
 40
0.2000000000002022
210
0.0
220
0.0
230
-1.0
100
AcDbArc
 50
0.0000000000002544
 51
45.00000000000961
  0
LINE
  5
100
330
70
100
AcDbEntity
  8
LCF8-8080-Sketch v2_0
100
AcDbLine
 10
-3.181066017177897
 20
0.7250000000000979
 30
0.0
 11
-3.679999999999864
 21
0.7250000000001082
 31
0.0
  0
LINE
  5
101
330
70
100
AcDbEntity
  8
LCF8-8080-Sketch v2_0
100
AcDbLine
 10
-2.305514787014503
 20
2.190465981531724
 30
0.0
 11
-2.386746908403992
 21
2.277966985390984
 31
0.0
  0
LINE
  5
102
330
70
100
AcDbEntity
  8
LCF8-8080-Sketch v2_0
100
AcDbLine
 10
-1.810907661505007
 20
2.306366876030217
 30
0.0
 11
-1.722033014600299
 21
2.386746908402292
 31
0.0
  0
LINE
  5
103
330
70
100
AcDbEntity
  8
LCF8-8080-Sketch v2_0
100
AcDbLine
 10
0.975000000000017
 20
3.201776695296574
 30
0.0
 11
1.39798989873165
 21
2.778786796564942
 31
0.0
  0
ARC
  5
104
330
70
100
AcDbEntity
  8
LCF8-8080-Sketch v2_0
100
AcDbCircle
 10
-0.6249999999999801
 20
-3.680000000000019
 30
0.0
 40
0.0999999999999978
100
AcDbArc
 50
179.9999999999916
 51
269.9999999999985
  0
ARC
  5
105
330
70
100
AcDbEntity
  8
LCF8-8080-Sketch v2_0
100
AcDbCircle
 10
1.999999999997046
 20
1.999999999995163
 30
0.0
 40
0.3399999999990205
210
0.0
220
0.0
230
-1.0
100
AcDbArc
 50
62.75932891943718
 51
117.2406710806511
  0
ARC
  5
106
330
70
100
AcDbEntity
  8
LCF8-8080-Sketch v2_0
100
AcDbCircle
 10
0.6250000000000218
 20
-3.680000000000016
 30
0.0
 40
0.100000000000001
100
AcDbArc
 50
269.999999999999
 51
0.0000000000066156
  0
LINE
  5
107
330
70
100
AcDbEntity
  8
LCF8-8080-Sketch v2_0
100
AcDbLine
 10
-1.229999999999955
 20
-2.593223304703396
 30
0.0
 11
-0.7835786437625796
 21
-3.039644660940751
 31
0.0
  0
LINE
  5
108
330
70
100
AcDbEntity
  8
LCF8-8080-Sketch v2_0
100
AcDbLine
 10
-0.6249999999999827
 20
-3.780000000000017
 30
0.0
 11
0.62500000000002
 21
-3.780000000000017
 31
0.0
  0
LINE
  5
109
330
70
100
AcDbEntity
  8
LCF8-8080-Sketch v2_0
100
AcDbLine
 10
3.025000000000021
 20
3.214203102167812
 30
0.0
 11
3.025000000000008
 21
3.700000000000003
 31
0.0
  0
ARC
  5
10A
330
70
100
AcDbEntity
  8
LCF8-8080-Sketch v2_0
100
AcDbCircle
 10
1.672701640404679
 20
2.330254293664002
 30
0.0
 40
0.0749999999999807
210
0.0
220
0.0
230
-1.0
100
AcDbArc
 50
48.87137412085494
 51
220.871374121438
  0
LINE
  5
10B
330
70
100
AcDbEntity
  8
LCF8-8080-Sketch v2_0
100
AcDbLine
 10
3.679999999999947
 20
0.7250000000000979
 30
0.0
 11
3.181066017178026
 21
0.7250000000001693
 31
0.0
  0
ARC
  5
10C
330
70
100
AcDbEntity
  8
LCF8-8080-Sketch v2_0
100
AcDbCircle
 10
3.679999999999948
 20
0.6250000000001098
 30
0.0
 40
0.0999999999999881
100
AcDbArc
 50
359.9999999999994
 51
90.00000000000076
  0
ARC
  5
10D
330
70
100
AcDbEntity
  8
LCF8-8080-Sketch v2_0
100
AcDbCircle
 10
3.181066017178085
 20
-0.9249999999999298
 30
0.0
 40
0.2000000000000303
210
0.0
220
0.0
230
-1.0
100
AcDbArc
 50
89.99999999999987
 51
135.0
  0
LINE
  5
10E
330
70
100
AcDbEntity
  8
LCF8-8080-Sketch v2_0
100
AcDbLine
 10
1.22999999999997
 20
1.63000000000012
 30
0.0
 11
1.22999999999999
 21
2.593223304703418
 31
0.0
  0
LINE
  5
10F
330
70
100
AcDbEntity
  8
LCF8-8080-Sketch v2_0
100
AcDbLine
 10
-3.699999999999846
 20
3.175000000000072
 30
0.0
 11
-3.274999999999844
 21
3.175000000000107
 31
0.0
  0
ARC
  5
110
330
70
100
AcDbEntity
  8
LCF8-8080-Sketch v2_0
100
AcDbCircle
 10
-3.181066017177957
 20
0.9250000000002989
 30
0.0
 40
0.2000000000001296
210
0.0
220
0.0
230
-1.0
100
AcDbArc
 50
269.9999999999802
 51
314.9999999999998
  0
LINE
  5
111
330
70
100
AcDbEntity
  8
LCF8-8080-Sketch v2_0
100
AcDbLine
 10
0.7250000000000132
 20
3.181066017178102
 30
0.0
 11
0.7250000000000155
 21
3.680000000000115
 31
0.0
  0
LINE
  5
112
330
70
100
AcDbEntity
  8
LCF8-8080-Sketch v2_0
100
AcDbLine
 10
3.039644660940556
 20
0.7835786437628974
 30
0.0
 11
2.593223304703333
 21
1.230000000000119
 31
0.0
  0
LINE
  5
113
330
70
100
AcDbEntity
  8
LCF8-8080-Sketch v2_0
100
AcDbLine
 10
3.779999999999941
 20
-0.6249999999998646
 30
0.0
 11
3.779999999999936
 21
0.6250000000001088
 31
0.0
  0
ARC
  5
114
330
70
100
AcDbEntity
  8
LCF8-8080-Sketch v2_0
100
AcDbCircle
 10
1.671799798170728
 20
-1.829164911328873
 30
0.0
 40
0.0300000000003172
100
AcDbArc
 50
332.5020771613246
 51
40.87137412077312
  0
ARC
  5
115
330
70
100
AcDbEntity
  8
LCF8-8080-Sketch v2_0
100
AcDbCircle
 10
-3.549999999999832
 20
3.555000000000009
 30
0.0
 40
0.2500000000000151
100
AcDbArc
 50
90.0
 51
179.9999999999974
  0
LINE
  5
116
330
70
100
AcDbEntity
  8
LCF8-8080-Sketch v2_0
100
AcDbLine
 10
-3.039644660940754
 20
-0.7835786437625992
 30
0.0
 11
-2.593223304703301
 21
-1.230000000000009
 31
0.0
  0
ARC
  5
117
330
70
100
AcDbEntity
  8
LCF8-8080-Sketch v2_0
100
AcDbCircle
 10
1.629999999999784
 20
1.629999999999975
 30
0.0
 40
0.3999999999998556
210
0.0
220
0.0
230
-1.0
100
AcDbArc
 50
179.9999999999951
 51
270.0000000000088
  0
ARC
  5
118
330
70
100
AcDbEntity
  8
LCF8-8080-Sketch v2_0
100
AcDbCircle
 10
-1.672701640401906
 20
-2.330254293670486
 30
0.0
 40
0.0749999999999914
210
0.0
220
0.0
230
-1.0
100
AcDbArc
 50
228.871374115843
 51
40.87137412144175
  0
ARC
  5
119
330
70
100
AcDbEntity
  8
LCF8-8080-Sketch v2_0
100
AcDbCircle
 10
-1.999999999999032
 20
-1.999999999996471
 30
0.0
 40
0.3399999999999604
210
0.0
220
0.0
230
-1.0
100
AcDbArc
 50
332.5020771616433
 51
27.49792283867515
  0
LINE
  5
11A
330
70
100
AcDbEntity
  8
LCF8-8080-Sketch v2_0
100
AcDbLine
 10
1.22999999999997
 20
-2.593223304703418
 30
0.0
 11
1.229999999999948
 21
-1.630000000000009
 31
0.0
  0
LINE
  5
11B
330
70
100
AcDbEntity
  8
LCF8-8080-Sketch v2_0
100
AcDbLine
 10
-2.593223304703296
 20
1.230000000000119
 30
0.0
 11
-3.039644660940581
 21
0.7835786437627869
 31
0.0
  0
LINE
  5
11C
330
70
100
AcDbEntity
  8
LCF8-8080-Sketch v2_0
100
AcDbLine
 10
-3.799999999999847
 20
3.55500000000002
 30
0.0
 11
-3.799999999999847
 21
3.275000000000083
 31
0.0
  0
ARC
  5
11D
330
70
100
AcDbEntity
  8
LCF8-8080-Sketch v2_0
100
AcDbCircle
 10
0.625000000000018
 20
3.680000000000131
 30
0.0
 40
0.0999999999999974
100
AcDbArc
 50
359.9999999999911
 51
89.99999999999879
  0
ARC
  5
11E
330
70
100
AcDbEntity
  8
LCF8-8080-Sketch v2_0
100
AcDbCircle
 10
-3.699999999999847
 20
3.275000000000072
 30
0.0
 40
0.1000000000000001
100
AcDbArc
 50
179.9999999999936
 51
270.0000000000007
  0
ARC
  5
11F
330
70
100
AcDbEntity
  8
LCF8-8080-Sketch v2_0
100
AcDbCircle
 10
3.679999999999889
 20
-0.6249999999998438
 30
0.0
 40
0.100000000000052
100
AcDbArc
 50
270.0000000000176
 51
359.9999999999881
  0
ARC
  5
120
330
70
100
AcDbEntity
  8
LCF8-8080-Sketch v2_0
100
AcDbCircle
 10
-1.999999999999033
 20
-1.999999999996471
 30
0.0
 40
0.3399999999999652
210
0.0
220
0.0
230
-1.0
100
AcDbArc
 50
242.7593289194475
 51
297.2406710805669
  0
LINE
  5
121
330
70
100
AcDbEntity
  8
LCF8-8080-Sketch v2_0
100
AcDbLine
 10
-2.593223304703301
 20
-1.230000000000009
 30
0.0
 11
-1.629999999999924
 21
-1.23000000000001
 31
0.0
  0
ARC
  5
122
330
70
100
AcDbEntity
  8
LCF8-8080-Sketch v2_0
100
AcDbCircle
 10
1.830640211184939
 20
-1.671036078064691
 30
0.0
 40
0.0299999999998929
100
AcDbArc
 50
228.8713741209806
 51
297.2406710805436
  0
ARC
  5
123
330
70
100
AcDbEntity
  8
LCF8-8080-Sketch v2_0
100
AcDbCircle
 10
-1.999999999999033
 20
-1.999999999996472
 30
0.0
 40
0.3399999999999625
210
0.0
220
0.0
230
-1.0
100
AcDbArc
 50
62.75932891945704
 51
117.240671080113
  0
ARC
  5
124
330
70
100
AcDbEntity
  8
LCF8-8080-Sketch v2_0
100
AcDbCircle
 10
2.169359788810737
 20
-1.67103607806327
 30
0.0
 40
0.0300000000000621
100
AcDbArc
 50
242.7593289198835
 51
311.1286258781218
  0
ARC
  5
125
330
70
100
AcDbEntity
  8
LCF8-8080-Sketch v2_0
100
AcDbCircle
 10
-0.9250000000001573
 20
3.181066017178103
 30
0.0
 40
0.2000000000001444
210
0.0
220
0.0
230
-1.0
100
AcDbArc
 50
315.0000000000154
 51
359.9999999999997
  0
ARC
  5
126
330
70
100
AcDbEntity
  8
LCF8-8080-Sketch v2_0
100
AcDbCircle
 10
-1.629999999999959
 20
-1.63000000000002
 30
0.0
 40
0.4000000000000111
210
0.0
220
0.0
230
-1.0
100
AcDbArc
 50
0.0000000000015585
 51
90.00000000000005
  0
LINE
  5
127
330
70
100
AcDbEntity
  8
LCF8-8080-Sketch v2_0
100
AcDbLine
 10
0.7835786437627226
 20
-3.03964466094061
 30
0.0
 11
1.22999999999997
 21
-2.593223304703418
 31
0.0
  0
ARC
  5
128
330
70
100
AcDbEntity
  8
LCF8-8080-Sketch v2_0
100
AcDbCircle
 10
1.67179979816941
 20
-2.170835088662441
 30
0.0
 40
0.0300000000007348
100
AcDbArc
 50
319.1286258785587
 51
27.49792283836383
  0
ARC
  5
129
330
70
100
AcDbEntity
  8
LCF8-8080-Sketch v2_0
100
AcDbCircle
 10
-1.629999999999959
 20
1.630000000000132
 30
0.0
 40
0.3999999999999895
210
0.0
220
0.0
230
-1.0
100
AcDbArc
 50
270.000000000001
 51
359.9999999999984
  0
LINE
  5
12A
330
70
100
AcDbEntity
  8
LCF8-8080-Sketch v2_0
100
AcDbLine
 10
1.629999999999959
 20
-1.230000000000009
 30
0.0
 11
2.593223304703418
 21
-1.230000000000009
 31
0.0
  0
LINE
  5
12B
330
70
100
AcDbEntity
  8
LCF8-8080-Sketch v2_0
100
AcDbLine
 10
-3.274999999999936
 20
3.805000000000024
 30
0.0
 11
-3.549999999999832
 21
3.805000000000024
 31
0.0
  0
LINE
  5
12C
330
70
100
AcDbEntity
  8
LCF8-8080-Sketch v2_0
100
AcDbLine
 10
-3.174999999999891
 20
3.275000000000039
 30
0.0
 11
-3.174999999999941
 21
3.705000000000036
 31
0.0
  0
LINE
  5
12D
330
70
100
AcDbEntity
  8
LCF8-8080-Sketch v2_0
100
AcDbLine
 10
1.694485212982016
 20
-1.809534018459244
 30
0.0
 11
1.613253091592554
 21
-1.722033014600257
 31
0.0
  0
ARC
  5
12E
330
70
100
AcDbEntity
  8
LCF8-8080-Sketch v2_0
100
AcDbCircle
 10
-3.274999999999932
 20
3.705000000000033
 30
0.0
 40
0.0999999999999912
100
AcDbArc
 50
0.0000000000012722
 51
90.0000000000023
  0
LINE
  5
12F
330
70
100
AcDbEntity
  8
LCF8-8080-Sketch v2_0
100
AcDbLine
 10
1.718822938503344
 20
-1.615988103376511
 30
0.0
 11
1.810907661506806
 21
-1.693633123959975
 31
0.0
  0
LINE
  5
130
330
70
100
AcDbEntity
  8
LCF8-8080-Sketch v2_0
100
AcDbLine
 10
-1.629999999999846
 20
1.230000000000119
 30
0.0
 11
-2.593223304703296
 21
1.230000000000119
 31
0.0
  0
LINE
  5
131
330
70
100
AcDbEntity
  8
LCF8-8080-Sketch v2_0
100
AcDbLine
 10
2.593223304703418
 20
-1.230000000000009
 30
0.0
 11
3.039644660940757
 21
-0.7835786437626689
 31
0.0
  0
LINE
  5
132
330
70
100
AcDbEntity
  8
LCF8-8080-Sketch v2_0
100
AcDbLine
 10
1.22999999999999
 20
2.593223304703418
 30
0.0
 11
0.783578643762708
 21
3.039644660940729
 31
0.0
  0
ARC
  5
133
330
70
100
AcDbEntity
  8
LCF8-8080-Sketch v2_0
100
AcDbCircle
 10
-3.679999999999903
 20
-0.62499999999994
 30
0.0
 40
0.0999999999999584
100
AcDbArc
 50
179.9999999999886
 51
270.0000000000122
  0
LINE
  5
134
330
70
100
AcDbEntity
  8
LCF8-8080-Sketch v2_0
100
AcDbLine
 10
1.615988103374867
 20
-2.281177061496276
 30
0.0
 11
1.694485212980784
 21
-2.190465981532608
 31
0.0
  0
LINE
  5
135
330
70
100
AcDbEntity
  8
LCF8-8080-Sketch v2_0
100
AcDbLine
 10
-3.679999999999882
 20
-0.724999999999898
 30
0.0
 11
-3.181066017178085
 21
-0.7249999999998997
 31
0.0
  0
LINE
  5
136
330
70
100
AcDbEntity
  8
LCF8-8080-Sketch v2_0
100
AcDbLine
 10
3.181066017178256
 20
-0.7249999999998999
 30
0.0
 11
3.67999999999992
 21
-0.7249999999998959
 31
0.0
  0
LINE
  5
137
330
70
100
AcDbEntity
  8
LCF8-8080-Sketch v2_0
100
AcDbLine
 10
-1.229999999999934
 20
2.593223304703439
 30
0.0
 11
-1.229999999999929
 21
1.630000000000009
 31
0.0
  0
ARC
  5
138
330
70
100
AcDbEntity
  8
LCF8-8080-Sketch v2_0
100
AcDbCircle
 10
1.830640211184831
 20
-2.328963921928119
 30
0.0
 40
0.0299999999998218
100
AcDbArc
 50
62.75932891942783
 51
131.1286258786479
  0
LINE
  5
139
330
70
100
AcDbEntity
  8
LCF8-8080-Sketch v2_0
100
AcDbLine
 10
0.6250000000000201
 20
3.780000000000128
 30
0.0
 11
-0.6249999999999826
 21
3.780000000000115
 31
0.0
  0
LINE
  5
13A
330
70
100
AcDbEntity
  8
LCF8-8080-Sketch v2_0
100
AcDbLine
 10
2.593223304703333
 20
1.230000000000119
 30
0.0
 11
1.629999999999952
 21
1.230000000000142
 31
0.0
  0
ARC
  5
13B
330
70
100
AcDbEntity
  8
LCF8-8080-Sketch v2_0
100
AcDbCircle
 10
-1.669745706332535
 20
-1.672701640406523
 30
0.0
 40
0.0750000000000138
210
0.0
220
0.0
230
-1.0
100
AcDbArc
 50
318.8713741227902
 51
130.8713741179903
  0
ARC
  5
13C
330
70
100
AcDbEntity
  8
LCF8-8080-Sketch v2_0
100
AcDbCircle
 10
3.181066017177903
 20
0.9250000000001321
 30
0.0
 40
0.2000000000000342
210
0.0
220
0.0
230
-1.0
100
AcDbArc
 50
225.0000000000047
 51
269.9999999999981
  0
ARC
  5
13D
330
70
100
AcDbEntity
  8
LCF8-8080-Sketch v2_0
100
AcDbCircle
 10
0.9249999999998149
 20
3.181066017178047
 30
0.0
 40
0.1999999999998778
210
0.0
220
0.0
230
-1.0
100
AcDbArc
 50
179.9999999999903
 51
225.0000000000103
  0
ARC
  5
13E
330
70
100
AcDbEntity
  8
LCF8-8080-Sketch v2_0
100
AcDbCircle
 10
-3.679999999999866
 20
0.6250000000001092
 30
0.0
 40
0.0999999999999991
100
AcDbArc
 50
89.99999999999898
 51
180.0000000000001
  0
ARC
  5
13F
330
70
100
AcDbEntity
  8
LCF8-8080-Sketch v2_0
100
AcDbCircle
 10
-3.274999999999856
 20
3.275000000000072
 30
0.0
 40
0.099999999999965
100
AcDbArc
 50
270.0000000000069
 51
359.9999999999814
  0
ARC
  5
140
330
70
100
AcDbEntity
  8
LCF8-8080-Sketch v2_0
100
AcDbCircle
 10
-0.6249999999999775
 20
3.680000000000132
 30
0.0
 40
0.0999999999999828
100
AcDbArc
 50
90.00000000000291
 51
180.0000000000096
  0
LINE
  5
141
330
70
100
AcDbEntity
  8
LCF8-8080-Sketch v2_0
100
AcDbLine
 10
1.810907661506891
 20
-2.30636687603276
 30
0.0
 11
1.722033014602475
 21
-2.386746908404469
 31
0.0
  0
ARC
  5
142
330
70
100
AcDbEntity
  8
LCF8-8080-Sketch v2_0
100
AcDbCircle
 10
-3.181066017178256
 20
-0.9250000000001698
 30
0.0
 40
0.2000000000002699
210
0.0
220
0.0
230
-1.0
100
AcDbArc
 50
45.00000000000024
 51
89.99999999999987
  0
LINE
  5
143
330
70
100
AcDbEntity
  8
LCF8-8080-Sketch v2_0
100
AcDbLine
 10
-0.783578643762617
 20
3.039644660940798
 30
0.0
 11
-1.229999999999934
 21
2.593223304703439
 31
0.0
  0
ARC
  5
144
330
70
100
AcDbEntity
  8
LCF8-8080-Sketch v2_0
100
AcDbCircle
 10
2.328200201826162
 20
-1.829164911326749
 30
0.0
 40
0.0300000000002531
100
AcDbArc
 50
139.1286258784787
 51
207.4979228390492
  0
LINE
  5
145
330
70
100
AcDbEntity
  8
LCF8-8080-Sketch v2_0
100
AcDbLine
 10
-2.190465981532144
 20
-1.694485212976159
 30
0.0
 11
-2.281177061493808
 21
-1.615988103371846
 31
0.0
  0
LINE
  5
146
330
70
100
AcDbEntity
  8
LCF8-8080-Sketch v2_0
100
AcDbLine
 10
-0.7249999999999604
 20
3.680000000000115
 30
0.0
 11
-0.7249999999999371
 21
3.181066017178081
 31
0.0
  0
LINE
  5
147
330
70
100
AcDbEntity
  8
LCF8-8080-Sketch v2_0
100
AcDbLine
 10
2.189092338488627
 20
-1.693633123958991
 30
0.0
 11
2.27796698539348
 21
-1.613253091586782
 31
0.0
  0
LINE
  5
148
330
70
100
AcDbEntity
  8
LCF8-8080-Sketch v2_0
100
AcDbLine
 10
-3.779999999999865
 20
0.6250000000001088
 30
0.0
 11
-3.779999999999862
 21
-0.6249999999999201
 31
0.0
  0
ARC
  5
149
330
70
100
AcDbEntity
  8
LCF8-8080-Sketch v2_0
100
AcDbCircle
 10
-2.327298359588682
 20
-1.669745706325443
 30
0.0
 40
0.0749999999999853
210
0.0
220
0.0
230
-1.0
100
AcDbArc
 50
48.87137412128113
 51
220.8713741215186
  0
LINE
  5
14A
330
70
100
AcDbEntity
  8
LCF8-8080-Sketch v2_0
100
AcDbLine
 10
2.384011896615652
 20
-1.718822938499725
 30
0.0
 11
2.30551478701518
 21
-1.809534018456866
 31
0.0
  0
LINE
  5
14B
330
70
100
AcDbEntity
  8
LCF8-8080-Sketch v2_0
100
AcDbLine
 10
1.693633123957455
 20
2.189092338489407
 30
0.0
 11
1.613253091585542
 21
2.277966985393964
 31
0.0
  0
LINE
  5
14C
330
70
100
AcDbEntity
  8
LCF8-8080-Sketch v2_0
100
AcDbLine
 10
3.174999999999953
 20
3.705000000000036
 30
0.0
 11
3.174999999999947
 21
3.275000000000017
 31
0.0
  0
ARC
  5
14D
330
70
100
AcDbEntity
  8
LCF8-8080-Sketch v2_0
100
AcDbCircle
 10
-1.999999999993496
 20
1.999999999997404
 30
0.0
 40
0.3399999999999275
210
0.0
220
0.0
230
-1.0
100
AcDbArc
 50
332.7593289194786
 51
27.24067108055526
  0
LINE
  5
14E
330
70
100
AcDbEntity
  8
LCF8-8080-Sketch v2_0
100
AcDbLine
 10
-1.809534018458969
 20
-2.305514787010786
 30
0.0
 11
-1.71882293850478
 21
-2.38401189660864
 31
0.0
  0
ARC
  5
14F
330
70
100
AcDbEntity
  8
LCF8-8080-Sketch v2_0
100
AcDbCircle
 10
-1.999999999999031
 20
-1.999999999996471
 30
0.0
 40
0.3399999999999645
210
0.0
220
0.0
230
-1.0
100
AcDbArc
 50
152.5020771609491
 51
207.4979228384704
  0
LINE
  5
150
330
70
100
AcDbEntity
  8
LCF8-8080-Sketch v2_0
100
AcDbLine
 10
2.281177061493546
 20
1.615988103373052
 30
0.0
 11
2.190465981529704
 21
1.694485212979124
 31
0.0
  0
ARC
  5
151
330
70
100
AcDbEntity
  8
LCF8-8080-Sketch v2_0
100
AcDbCircle
 10
-2.330254293667738
 20
1.672701640400068
 30
0.0
 40
0.0749999999999623
210
0.0
220
0.0
230
-1.0
100
AcDbArc
 50
138.8713741159644
 51
310.871374121443
  0
ARC
  5
152
330
70
100
AcDbEntity
  8
LCF8-8080-Sketch v2_0
100
AcDbCircle
 10
-1.669745706330516
 20
-2.327298359581653
 30
0.0
 40
0.0749999999999872
100
AcDbArc
 50
229.1286258785008
 51
41.12862587493466
  0
ARC
  5
153
330
70
100
AcDbEntity
  8
LCF8-8080-Sketch v2_0
100
AcDbCircle
 10
1.829164911328805
 20
-2.328200201821728
 30
0.0
 40
0.0300000000001916
210
0.0
220
0.0
230
-1.0
100
AcDbArc
 50
62.50207716133552
 51
130.8713741215044
  0
ARC
  5
154
330
70
100
AcDbEntity
  8
LCF8-8080-Sketch v2_0
100
AcDbCircle
 10
-1.999999999993497
 20
1.999999999997401
 30
0.0
 40
0.3399999999999328
210
0.0
220
0.0
230
-1.0
100
AcDbArc
 50
62.50207716131204
 51
117.4979228387002
  0
ARC
  5
155
330
70
100
AcDbEntity
  8
LCF8-8080-Sketch v2_0
100
AcDbCircle
 10
-1.999999999993497
 20
1.999999999997405
 30
0.0
 40
0.3399999999999319
210
0.0
220
0.0
230
-1.0
100
AcDbArc
 50
242.5020771616592
 51
297.4979228386958
  0
ARC
  5
156
330
70
100
AcDbEntity
  8
LCF8-8080-Sketch v2_0
100
AcDbCircle
 10
-2.327298359586681
 20
2.330254293665912
 30
0.0
 40
0.0749999999999839
210
0.0
220
0.0
230
-1.0
100
AcDbArc
 50
48.87137412091766
 51
220.871374120899
  0
LINE
  5
157
330
70
100
AcDbEntity
  8
LCF8-8080-Sketch v2_0
100
AcDbLine
 10
2.384011896614179
 20
2.281177061492245
 30
0.0
 11
2.306366876030335
 21
2.1890923384885
 31
0.0
  0
LINE
  5
158
330
70
100
AcDbEntity
  8
LCF8-8080-Sketch v2_0
100
AcDbLine
 10
2.190465981531988
 20
2.305514787014976
 30
0.0
 11
2.277966985391121
 21
2.386746908404259
 31
0.0
  0
ARC
  5
159
330
70
100
AcDbEntity
  8
LCF8-8080-Sketch v2_0
100
AcDbCircle
 10
-2.330254293668105
 20
-1.672701640398883
 30
0.0
 40
0.0750000000000464
100
AcDbArc
 50
49.12862587850713
 51
221.1286258821115
  0
LINE
  5
15A
330
70
100
AcDbEntity
  8
LCF8-8080-Sketch v2_0
100
AcDbLine
 10
-1.72203301459833
 20
-1.613253091589129
 30
0.0
 11
-1.809534018457482
 21
-1.694485212978705
 31
0.0
  0
ARC
  5
15B
330
70
100
AcDbEntity
  8
LCF8-8080-Sketch v2_0
100
AcDbCircle
 10
1.671036078061634
 20
2.169359788811632
 30
0.0
 40
0.0300000000000623
100
AcDbArc
 50
332.7593289194391
 51
41.12862587782998
  0
LINE
  5
15C
330
70
100
AcDbEntity
  8
LCF8-8080-Sketch v2_0
100
AcDbLine
 10
2.305514787017228
 20
-2.190465981533404
 30
0.0
 11
2.386746908406808
 21
-2.277966985392698
 31
0.0
  0
LINE
  5
15D
330
70
100
AcDbEntity
  8
LCF8-8080-Sketch v2_0
100
AcDbLine
 10
3.54999999999987
 20
3.805000000000024
 30
0.0
 11
3.274999999999973
 21
3.80500000000004
 31
0.0
  0
ARC
  5
15E
330
70
100
AcDbEntity
  8
LCF8-8080-Sketch v2_0
100
AcDbCircle
 10
3.699999999999887
 20
3.275000000000076
 30
0.0
 40
0.0999999999999886
100
AcDbArc
 50
269.9999999999967
 51
0.0000000000040711
  0
ARC
  5
15F
330
70
100
AcDbEntity
  8
LCF8-8080-Sketch v2_0
100
AcDbCircle
 10
1.671036078064796
 20
-2.169359788807988
 30
0.0
 40
0.0299999999999182
210
0.0
220
0.0
230
-1.0
100
AcDbArc
 50
318.871374122011
 51
27.24067108057949
  0
LINE
  5
160
330
70
100
AcDbEntity
  8
LCF8-8080-Sketch v2_0
100
AcDbLine
 10
-1.693633123958697
 20
-1.810907661504546
 30
0.0
 11
-1.615988103375628
 21
-1.718822938501656
 31
0.0
  0
ARC
  5
161
330
70
100
AcDbEntity
  8
LCF8-8080-Sketch v2_0
100
AcDbCircle
 10
1.829164911326763
 20
-1.671799798167317
 30
0.0
 40
0.0300000000001652
210
0.0
220
0.0
230
-1.0
100
AcDbArc
 50
229.1286258798561
 51
297.4979228390225
  0
ARC
  5
162
330
70
100
AcDbEntity
  8
LCF8-8080-Sketch v2_0
100
AcDbCircle
 10
2.170835088661865
 20
-1.671799798164706
 30
0.0
 40
0.0300000000008669
210
0.0
220
0.0
230
-1.0
100
AcDbArc
 50
242.5020771616478
 51
310.8713741215043
  0
LINE
  5
163
330
70
100
AcDbEntity
  8
LCF8-8080-Sketch v2_0
100
AcDbLine
 10
1.615988103373592
 20
1.718822938501835
 30
0.0
 11
1.693633123957215
 21
1.810907661505538
 31
0.0
  0
ARC
  5
164
330
70
100
AcDbEntity
  8
LCF8-8080-Sketch v2_0
100
AcDbCircle
 10
-1.672701640403726
 20
1.669745706331206
 30
0.0
 40
0.0749999999999882
210
0.0
220
0.0
230
-1.0
100
AcDbArc
 50
228.8713741231078
 51
40.87137411782588
  0
ARC
  5
165
330
70
100
AcDbEntity
  8
LCF8-8080-Sketch v2_0
100
AcDbCircle
 10
-1.999999999996057
 20
-1.99999999999397
 30
0.0
 40
0.3399999999994412
100
AcDbArc
 50
332.7593289194315
 51
27.24067108009296
  0
LINE
  5
166
330
70
100
AcDbEntity
  8
LCF8-8080-Sketch v2_0
100
AcDbLine
 10
-3.174999999999943
 20
-3.704999999999836
 30
0.0
 11
-3.174999999999946
 21
-3.274999999999883
 31
0.0
  0
ARC
  5
167
330
70
100
AcDbEntity
  8
LCF8-8080-Sketch v2_0
100
AcDbCircle
 10
2.170835088659442
 20
1.671799798167627
 30
0.0
 40
0.0300000000008903
100
AcDbArc
 50
49.12862587857455
 51
117.4979228383635
  0
ARC
  5
168
330
70
100
AcDbEntity
  8
LCF8-8080-Sketch v2_0
100
AcDbCircle
 10
-1.999999999996057
 20
-1.999999999993973
 30
0.0
 40
0.3399999999994394
100
AcDbArc
 50
242.5020771615587
 51
297.497922838667
  0
ARC
  5
169
330
70
100
AcDbEntity
  8
LCF8-8080-Sketch v2_0
100
AcDbCircle
 10
2.32820020182815
 20
-2.170835088663005
 30
0.0
 40
0.0300000000005444
100
AcDbArc
 50
152.5020771615252
 51
220.8713741223423
  0
ARC
  5
16A
330
70
100
AcDbEntity
  8
LCF8-8080-Sketch v2_0
100
AcDbCircle
 10
-1.669745706326448
 20
2.327298359586654
 30
0.0
 40
0.075000000000024
210
0.0
220
0.0
230
-1.0
100
AcDbArc
 50
318.8713741238558
 51
130.8713741215343
  0
ARC
  5
16B
330
70
100
AcDbEntity
  8
LCF8-8080-Sketch v2_0
100
AcDbCircle
 10
2.328963921925343
 20
1.830640211183233
 30
0.0
 40
0.0300000000000176
100
AcDbArc
 50
152.7593289194686
 51
221.1286258796395
  0
LINE
  5
16C
330
70
100
AcDbEntity
  8
LCF8-8080-Sketch v2_0
100
AcDbLine
 10
2.306366876030178
 20
1.810907661504773
 30
0.0
 11
2.386746908401804
 21
1.722033014600498
 31
0.0
  0
ARC
  5
16D
330
70
100
AcDbEntity
  8
LCF8-8080-Sketch v2_0
100
AcDbCircle
 10
-2.327298359588388
 20
-2.330254293663425
 30
0.0
 40
0.0750000000000247
100
AcDbArc
 50
139.128625878281
 51
311.1286258799902
  0
ARC
  5
16E
330
70
100
AcDbEntity
  8
LCF8-8080-Sketch v2_0
100
AcDbCircle
 10
1.829164911325821
 20
1.671799798169249
 30
0.0
 40
0.0300000000002508
100
AcDbArc
 50
62.50207716129791
 51
130.8713741211557
  0
LINE
  5
16F
330
70
100
AcDbEntity
  8
LCF8-8080-Sketch v2_0
100
AcDbLine
 10
1.809534018456084
 20
1.694485212980355
 30
0.0
 11
1.72203301459713
 21
1.613253091590971
 31
0.0
  0
ARC
  5
170
330
70
100
AcDbEntity
  8
LCF8-8080-Sketch v2_0
100
AcDbCircle
 10
1.671036078061617
 20
1.830640211183421
 30
0.0
 40
0.0299999999999643
100
AcDbArc
 50
318.8713741217342
 51
27.24067108051359
  0
ARC
  5
171
330
70
100
AcDbEntity
  8
LCF8-8080-Sketch v2_0
100
AcDbCircle
 10
2.328963921927629
 20
-1.830640211179979
 30
0.0
 40
0.0300000000001876
210
0.0
220
0.0
230
-1.0
100
AcDbArc
 50
138.8713741220555
 51
207.2406710805564
  0
LINE
  5
172
330
70
100
AcDbEntity
  8
LCF8-8080-Sketch v2_0
100
AcDbLine
 10
1.718822938500771
 20
2.384011896613638
 30
0.0
 11
1.809534018456229
 21
2.305514787014562
 31
0.0
  0
ARC
  5
173
330
70
100
AcDbEntity
  8
LCF8-8080-Sketch v2_0
100
AcDbCircle
 10
2.170835088662335
 20
-2.328200201823006
 30
0.0
 40
0.0300000000008759
210
0.0
220
0.0
230
-1.0
100
AcDbArc
 50
49.12862587762649
 51
117.4979228384463
  0
ARC
  5
174
330
70
100
AcDbEntity
  8
LCF8-8080-Sketch v2_0
100
AcDbCircle
 10
-1.999999999996058
 20
-1.999999999993972
 30
0.0
 40
0.3399999999994361
100
AcDbArc
 50
152.7593289194571
 51
207.2406710805453
  0
ARC
  5
175
330
70
100
AcDbEntity
  8
LCF8-8080-Sketch v2_0
100
AcDbCircle
 10
-2.330254293670519
 20
-2.327298359590659
 30
0.0
 40
0.0750000000000136
210
0.0
220
0.0
230
-1.0
100
AcDbArc
 50
138.8713741185026
 51
310.8713741232266
  0
LINE
  5
176
330
70
100
AcDbEntity
  8
LCF8-8080-Sketch v2_0
100
AcDbLine
 10
-2.38674690840389
 20
-1.722033014597471
 30
0.0
 11
-2.306366876031753
 21
-1.810907661502076
 31
0.0
  0
ARC
  5
177
330
70
100
AcDbEntity
  8
LCF8-8080-Sketch v2_0
100
AcDbCircle
 10
2.169359788813282
 20
-2.328963921928417
 30
0.0
 40
0.0300000000001087
100
AcDbArc
 50
48.87137412201554
 51
117.2406710805543
  0
LINE
  5
178
330
70
100
AcDbEntity
  8
LCF8-8080-Sketch v2_0
100
AcDbLine
 10
-1.613253091588596
 20
-2.277966985390181
 30
0.0
 11
-1.693633123960454
 21
-2.189092338485731
 31
0.0
  0
ARC
  5
179
330
70
100
AcDbEntity
  8
LCF8-8080-Sketch v2_0
100
AcDbCircle
 10
-1.672701640402723
 20
-1.669745706327474
 30
0.0
 40
0.0750000000000147
100
AcDbArc
 50
319.1286258786017
 51
131.1286258791107
  0
LINE
  5
17A
330
70
100
AcDbEntity
  8
LCF8-8080-Sketch v2_0
100
AcDbLine
 10
-2.306366876032117
 20
-2.189092338486143
 30
0.0
 11
-2.384011896615215
 21
-2.281177061488919
 31
0.0
  0
LINE
  5
17B
330
70
100
AcDbEntity
  8
LCF8-8080-Sketch v2_0
100
AcDbLine
 10
3.274999999999914
 20
3.17500000000005
 30
0.0
 11
3.699999999999881
 21
3.175000000000087
 31
0.0
  0
LINE
  5
17C
330
70
100
AcDbEntity
  8
LCF8-8080-Sketch v2_0
100
AcDbLine
 10
2.281177061494527
 20
-2.384011896616186
 30
0.0
 11
2.189092338491148
 21
-2.306366876032614
 31
0.0
  0
ARC
  5
17D
330
70
100
AcDbEntity
  8
LCF8-8080-Sketch v2_0
100
AcDbCircle
 10
1.67103607806339
 20
-1.830640211182688
 30
0.0
 40
0.0299999999999159
210
0.0
220
0.0
230
-1.0
100
AcDbArc
 50
332.7593289199052
 51
41.12862587900244
  0
ARC
  5
17E
330
70
100
AcDbEntity
  8
LCF8-8080-Sketch v2_0
100
AcDbCircle
 10
1.829164911325959
 20
2.328200201825382
 30
0.0
 40
0.0300000000000299
100
AcDbArc
 50
229.1286258784969
 51
297.4979228387128
  0
ARC
  5
17F
330
70
100
AcDbEntity
  8
LCF8-8080-Sketch v2_0
100
AcDbCircle
 10
2.328963921925779
 20
2.16935978881051
 30
0.0
 40
0.0299999999999189
100
AcDbArc
 50
138.8713741213861
 51
207.2406710803704
  0
ARC
  5
180
330
70
100
AcDbEntity
  8
LCF8-8080-Sketch v2_0
100
AcDbCircle
 10
-3.274999999999872
 20
-3.274999999999843
 30
0.0
 40
0.0999999999999259
100
AcDbArc
 50
359.9999999999771
 51
89.99999999999491
  0
ARC
  5
181
330
70
100
AcDbEntity
  8
LCF8-8080-Sketch v2_0
100
AcDbCircle
 10
3.274999999999964
 20
3.705000000000028
 30
0.0
 40
0.1000000000000116
100
AcDbArc
 50
89.99999999999516
 51
179.9999999999959
  0
ARC
  5
182
330
70
100
AcDbEntity
  8
LCF8-8080-Sketch v2_0
100
AcDbCircle
 10
-3.274999999999935
 20
-3.704999999999836
 30
0.0
 40
0.0999999999999912
100
AcDbArc
 50
269.9999999999993
 51
359.9999999999997
  0
ARC
  5
183
330
70
100
AcDbEntity
  8
LCF8-8080-Sketch v2_0
100
AcDbCircle
 10
2.170835088661404
 20
2.328200201825948
 30
0.0
 40
0.0300000000007032
100
AcDbArc
 50
242.5020771612987
 51
310.8713741225457
  0
LINE
  5
184
330
70
100
AcDbEntity
  8
LCF8-8080-Sketch v2_0
100
AcDbLine
 10
-2.277966985391906
 20
-2.386746908401021
 30
0.0
 11
-2.190465981532964
 21
-2.305514787011845
 31
0.0
  0
ARC
  5
185
330
70
100
AcDbEntity
  8
LCF8-8080-Sketch v2_0
100
AcDbCircle
 10
2.32896392192747
 20
-2.169359788807901
 30
0.0
 40
0.0300000000000164
210
0.0
220
0.0
230
-1.0
100
AcDbArc
 50
152.7593289194417
 51
221.1286258790912
  0
ARC
  5
186
330
70
100
AcDbEntity
  8
LCF8-8080-Sketch v2_0
100
AcDbCircle
 10
-1.999999999996062
 20
-1.999999999993971
 30
0.0
 40
0.3399999999994343
100
AcDbArc
 50
62.50207716097275
 51
117.4979228383605
  0
ARC
  5
187
330
70
100
AcDbEntity
  8
LCF8-8080-Sketch v2_0
100
AcDbCircle
 10
-1.999999999993496
 20
1.999999999997403
 30
0.0
 40
0.3399999999999321
210
0.0
220
0.0
230
-1.0
100
AcDbArc
 50
152.7593289196283
 51
207.2406710805504
  0
ARC
  5
188
330
70
100
AcDbEntity
  8
LCF8-8080-Sketch v2_0
100
AcDbCircle
 10
3.274999999999936
 20
3.275000000000039
 30
0.0
 40
0.099999999999989
100
AcDbArc
 50
180.0000000000127
 51
269.9999999999873
  0
ARC
  5
189
330
70
100
AcDbEntity
  8
LCF8-8080-Sketch v2_0
100
AcDbCircle
 10
3.54999999999987
 20
3.555000000000009
 30
0.0
 40
0.2500000000000146
100
AcDbArc
 50
0.0000000000024427
 51
90.0000000000001
  0
LINE
  5
18A
330
70
100
AcDbEntity
  8
LCF8-8080-Sketch v2_0
100
AcDbLine
 10
3.799999999999875
 20
3.275000000000083
 30
0.0
 11
3.799999999999885
 21
3.55500000000002
 31
0.0
  0
ARC
  5
18B
330
70
100
AcDbEntity
  8
LCF8-8080-Sketch v2_0
100
AcDbCircle
 10
-3.549999999999831
 20
-3.554999999999809
 30
0.0
 40
0.2500000000000155
100
AcDbArc
 50
180.000000000002
 51
269.9999999999984
  0
ARC
  5
18C
330
70
100
AcDbEntity
  8
LCF8-8080-Sketch v2_0
100
AcDbCircle
 10
-3.699999999999848
 20
-3.274999999999906
 30
0.0
 40
0.0999999999999908
100
AcDbArc
 50
89.99999999999872
 51
179.9999999999992
  0
LINE
  5
18D
330
70
100
AcDbEntity
  8
LCF8-8080-Sketch v2_0
100
AcDbLine
 10
-3.799999999999839
 20
-3.274999999999904
 30
0.0
 11
-3.799999999999847
 21
-3.554999999999818
 31
0.0
  0
LINE
  5
18E
330
70
100
AcDbEntity
  8
LCF8-8080-Sketch v2_0
100
AcDbLine
 10
-3.549999999999839
 20
-3.804999999999825
 30
0.0
 11
-3.274999999999936
 21
-3.804999999999827
 31
0.0
  0
LINE
  5
18F
330
70
100
AcDbEntity
  8
LCF8-8080-Sketch v2_0
100
AcDbLine
 10
3.969999999999932
 20
2.510000000000046
 30
0.0
 11
3.919999999999935
 21
2.510000000000046
 31
0.0
  0
ARC
  5
190
330
70
100
AcDbEntity
  8
LCF8-8080-Sketch v2_0
100
AcDbCircle
 10
-3.549999999999938
 20
3.550000000000019
 30
0.0
 40
0.4499999999999802
210
0.0
220
0.0
230
-1.0
100
AcDbArc
 50
90.00000000000222
 51
179.9999999999999
  0
LINE
  5
191
330
70
100
AcDbEntity
  8
LCF8-8080-Sketch v2_0
100
AcDbLine
 10
3.999999999999919
 20
3.55000000000002
 30
0.0
 11
3.999999999999929
 21
2.540000000000064
 31
0.0
  0
ARC
  5
192
330
70
100
AcDbEntity
  8
LCF8-8080-Sketch v2_0
100
AcDbCircle
 10
-3.96999999999991
 20
2.540000000000065
 30
0.0
 40
0.0300000000000189
210
0.0
220
0.0
230
-1.0
100
AcDbArc
 50
180.0000000000008
 51
269.9999999999593
  0
LINE
  5
193
330
70
100
AcDbEntity
  8
LCF8-8080-Sketch v2_0
100
AcDbLine
 10
3.580000000000117
 20
-1.33999999999986
 30
0.0
 11
3.699999999999928
 21
-1.339999999999871
 31
0.0
  0
LINE
  5
194
330
70
100
AcDbEntity
  8
LCF8-8080-Sketch v2_0
100
AcDbLine
 10
3.899999999999922
 20
1.560000000000039
 30
0.0
 11
3.899999999999929
 21
1.510000000000158
 31
0.0
  0
ARC
  5
195
330
70
100
AcDbEntity
  8
LCF8-8080-Sketch v2_0
100
AcDbCircle
 10
-3.869999999999894
 20
1.560000000000017
 30
0.0
 40
0.030000000000028
210
0.0
220
0.0
230
-1.0
100
AcDbArc
 50
90.00000000001357
 51
179.9999999999576
  0
LINE
  5
196
330
70
100
AcDbEntity
  8
LCF8-8080-Sketch v2_0
100
AcDbLine
 10
3.579999999999843
 20
1.590000000000056
 30
0.0
 11
3.869999999999901
 21
1.590000000000045
 31
0.0
  0
LINE
  5
197
330
70
100
AcDbEntity
  8
LCF8-8080-Sketch v2_0
100
AcDbLine
 10
-3.274999999999863
 20
-3.174999999999917
 30
0.0
 11
-3.699999999999846
 21
-3.174999999999915
 31
0.0
  0
ARC
  5
198
330
70
100
AcDbEntity
  8
LCF8-8080-Sketch v2_0
100
AcDbCircle
 10
3.699999999999928
 20
-1.239999999999874
 30
0.0
 40
0.099999999999997
100
AcDbArc
 50
269.9999999999998
 51
0.0000000000003817
  0
LINE
  5
199
330
70
100
AcDbEntity
  8
LCF8-8080-Sketch v2_0
100
AcDbLine
 10
3.899999999999929
 20
2.490000000000059
 30
0.0
 11
3.899999999999929
 21
2.440000000000065
 31
0.0
  0
LINE
  5
19A
330
70
100
AcDbEntity
  8
LCF8-8080-Sketch v2_0
100
AcDbLine
 10
3.699999999999894
 20
3.024999999999934
 30
0.0
 11
3.21420310216785
 21
3.024999999999934
 31
0.0
  0
LINE
  5
19B
330
70
100
AcDbEntity
  8
LCF8-8080-Sketch v2_0
100
AcDbLine
 10
3.549999999999939
 20
2.440000000000098
 30
0.0
 11
3.549999999999982
 21
2.630000000000087
 31
0.0
  0
LINE
  5
19C
330
70
100
AcDbEntity
  8
LCF8-8080-Sketch v2_0
100
AcDbLine
 10
3.192989898732252
 20
3.01621320343553
 30
0.0
 11
2.778786796564665
 21
2.602010101267943
 31
0.0
  0
LINE
  5
19D
330
70
100
AcDbEntity
  8
LCF8-8080-Sketch v2_0
100
AcDbLine
 10
3.579999999999968
 20
2.66000000000004
 30
0.0
 11
3.699999999999928
 21
2.660000000000032
 31
0.0
  0
ARC
  5
19E
330
70
100
AcDbEntity
  8
LCF8-8080-Sketch v2_0
100
AcDbCircle
 10
3.699999999999895
 20
2.924999999999945
 30
0.0
 40
0.0999999999999895
100
AcDbArc
 50
0.0000000000002544
 51
90.00000000000049
  0
ARC
  5
19F
330
70
100
AcDbEntity
  8
LCF8-8080-Sketch v2_0
100
AcDbCircle
 10
-3.86999999999991
 20
2.440000000000065
 30
0.0
 40
0.0300000000000194
210
0.0
220
0.0
230
-1.0
100
AcDbArc
 50
180.0000000000008
 51
269.9999999999584
  0
ARC
  5
1A0
330
70
100
AcDbEntity
  8
LCF8-8080-Sketch v2_0
100
AcDbCircle
 10
3.21420310216785
 20
2.994999999999932
 30
0.0
 40
0.0300000000000025
100
AcDbArc
 50
89.99999999999916
 51
134.9999999999988
  0
LINE
  5
1A1
330
70
100
AcDbEntity
  8
LCF8-8080-Sketch v2_0
100
AcDbLine
 10
3.799999999999925
 20
-1.239999999999874
 30
0.0
 11
3.799999999999864
 21
-1.074999999999903
 31
0.0
  0
LINE
  5
1A2
330
70
100
AcDbEntity
  8
LCF8-8080-Sketch v2_0
100
AcDbLine
 10
3.549999999999917
 20
-1.55999999999995
 30
0.0
 11
3.549999999999929
 21
-1.370000000000015
 31
0.0
  0
LINE
  5
1A3
330
70
100
AcDbEntity
  8
LCF8-8080-Sketch v2_0
100
AcDbLine
 10
3.91999999999993
 20
1.490000000000158
 30
0.0
 11
3.969999999999885
 21
1.490000000000158
 31
0.0
  0
ARC
  5
1A4
330
70
100
AcDbEntity
  8
LCF8-8080-Sketch v2_0
100
AcDbCircle
 10
-3.579999999999843
 20
1.560000000000149
 30
0.0
 40
0.0299999999999066
210
0.0
220
0.0
230
-1.0
100
AcDbArc
 50
0.0000000000004241
 51
90.00000000000087
  0
ARC
  5
1A5
330
70
100
AcDbEntity
  8
LCF8-8080-Sketch v2_0
100
AcDbCircle
 10
-3.969999999999885
 20
1.460000000000124
 30
0.0
 40
0.0300000000000338
210
0.0
220
0.0
230
-1.0
100
AcDbArc
 50
90.0
 51
179.9999999999991
  0
ARC
  5
1A6
330
70
100
AcDbEntity
  8
LCF8-8080-Sketch v2_0
100
AcDbCircle
 10
3.92000000000001
 20
-1.509999999999934
 30
0.0
 40
0.0200000000000726
100
AcDbArc
 50
90.00000000014376
 51
180.0
  0
LINE
  5
1A7
330
70
100
AcDbEntity
  8
LCF8-8080-Sketch v2_0
100
AcDbLine
 10
2.770000000000273
 20
2.580796897832373
 30
0.0
 11
2.770000000000269
 21
1.419203102167554
 31
0.0
  0
ARC
  5
1A8
330
70
100
AcDbEntity
  8
LCF8-8080-Sketch v2_0
100
AcDbCircle
 10
-3.580000000000117
 20
-1.370000000000048
 30
0.0
 40
0.0300000000001877
210
0.0
220
0.0
230
-1.0
100
AcDbArc
 50
0.000000000063187
 51
90.0
  0
ARC
  5
1A9
330
70
100
AcDbEntity
  8
LCF8-8080-Sketch v2_0
100
AcDbCircle
 10
3.699999999999928
 20
2.760000000000029
 30
0.0
 40
0.0999999999999974
100
AcDbArc
 50
270.0
 51
0.0000000000002544
  0
ARC
  5
1AA
330
70
100
AcDbEntity
  8
LCF8-8080-Sketch v2_0
100
AcDbCircle
 10
3.919999999999916
 20
2.490000000000059
 30
0.0
 40
0.0199999999999872
100
AcDbArc
 50
89.99999999994656
 51
180.0
  0
LINE
  5
1AB
330
70
100
AcDbEntity
  8
LCF8-8080-Sketch v2_0
100
AcDbLine
 10
3.699999999999928
 20
-0.9749999999999571
 30
0.0
 11
3.214203102167754
 21
-0.9750000000000099
 31
0.0
  0
ARC
  5
1AC
330
70
100
AcDbEntity
  8
LCF8-8080-Sketch v2_0
100
AcDbCircle
 10
-3.970000000000028
 20
-1.45999999999996
 30
0.0
 40
0.029999999999907
210
0.0
220
0.0
230
-1.0
100
AcDbArc
 50
179.9999999999801
 51
270.0000000001162
  0
LINE
  5
1AD
330
70
100
AcDbEntity
  8
LCF8-8080-Sketch v2_0
100
AcDbLine
 10
3.969999999999968
 20
-1.489999999999867
 30
0.0
 11
3.919999999999959
 21
-1.489999999999861
 31
0.0
  0
ARC
  5
1AE
330
70
100
AcDbEntity
  8
LCF8-8080-Sketch v2_0
100
AcDbCircle
 10
3.699999999999928
 20
1.075000000000092
 30
0.0
 40
0.0999999999999971
100
AcDbArc
 50
270.0000000000002
 51
0.0000000000066156
  0
ARC
  5
1AF
330
70
100
AcDbEntity
  8
LCF8-8080-Sketch v2_0
100
AcDbCircle
 10
3.699999999999928
 20
1.240000000000075
 30
0.0
 40
0.0999999999999886
100
AcDbArc
 50
359.9999999999997
 51
90.00000000000026
  0
LINE
  5
1B0
330
70
100
AcDbEntity
  8
LCF8-8080-Sketch v2_0
100
AcDbLine
 10
3.549999999999927
 20
1.370000000000104
 30
0.0
 11
3.549999999999936
 21
1.560000000000149
 31
0.0
  0
ARC
  5
1B1
330
70
100
AcDbEntity
  8
LCF8-8080-Sketch v2_0
100
AcDbCircle
 10
-3.579999999999968
 20
2.630000000000054
 30
0.0
 40
0.0299999999999852
210
0.0
220
0.0
230
-1.0
100
AcDbArc
 50
0.0000000000627629
 51
90.00000000000087
  0
ARC
  5
1B2
330
70
100
AcDbEntity
  8
LCF8-8080-Sketch v2_0
100
AcDbCircle
 10
3.214203102167449
 20
1.00499999999951
 30
0.0
 40
0.0299999999994252
100
AcDbArc
 50
225.000000000048
 51
270.0000000000305
  0
LINE
  5
1B3
330
70
100
AcDbEntity
  8
LCF8-8080-Sketch v2_0
100
AcDbLine
 10
3.899999999999937
 20
-1.509999999999934
 30
0.0
 11
3.899999999999939
 21
-1.55999999999995
 31
0.0
  0
LINE
  5
1B4
330
70
100
AcDbEntity
  8
LCF8-8080-Sketch v2_0
100
AcDbLine
 10
2.77878679656466
 20
1.397989898731987
 30
0.0
 11
3.192989898732276
 21
0.9837867965643031
 31
0.0
  0
ARC
  5
1B5
330
70
100
AcDbEntity
  8
LCF8-8080-Sketch v2_0
100
AcDbCircle
 10
3.699999999999928
 20
-1.074999999999892
 30
0.0
 40
0.0999999999999357
100
AcDbArc
 50
359.9999999999937
 51
90.00000000000026
  0
LINE
  5
1B6
330
70
100
AcDbEntity
  8
LCF8-8080-Sketch v2_0
100
AcDbLine
 10
3.699999999999928
 20
1.340000000000063
 30
0.0
 11
3.579999999999963
 21
1.340000000000076
 31
0.0
  0
ARC
  5
1B7
330
70
100
AcDbEntity
  8
LCF8-8080-Sketch v2_0
100
AcDbCircle
 10
3.919999999999929
 20
1.510000000000158
 30
0.0
 40
0.02
100
AcDbArc
 50
179.9999999999987
 51
270.0000000000013
  0
LINE
  5
1B8
330
70
100
AcDbEntity
  8
LCF8-8080-Sketch v2_0
100
AcDbLine
 10
3.869999999999968
 20
-1.589999999999874
 30
0.0
 11
3.579999999999828
 21
-1.589999999999871
 31
0.0
  0
ARC
  5
1B9
330
70
100
AcDbEntity
  8
LCF8-8080-Sketch v2_0
100
AcDbCircle
 10
2.800000000000233
 20
2.580796897832374
 30
0.0
 40
0.0299999999999603
100
AcDbArc
 50
135.0
 51
180.0000000000034
  0
LINE
  5
1BA
330
70
100
AcDbEntity
  8
LCF8-8080-Sketch v2_0
100
AcDbLine
 10
3.214203102167465
 20
0.9750000000000857
 30
0.0
 11
3.699999999999929
 21
0.9750000000000952
 31
0.0
  0
ARC
  5
1BB
330
70
100
AcDbEntity
  8
LCF8-8080-Sketch v2_0
100
AcDbCircle
 10
-3.580000000000003
 20
2.440000000000121
 30
0.0
 40
0.0300000000000638
210
0.0
220
0.0
230
-1.0
100
AcDbArc
 50
270.0000000000534
 51
359.9999999999559
  0
LINE
  5
1BC
330
70
100
AcDbEntity
  8
LCF8-8080-Sketch v2_0
100
AcDbLine
 10
3.799999999999925
 20
2.760000000000029
 30
0.0
 11
3.799999999999885
 21
2.924999999999945
 31
0.0
  0
LINE
  5
1BD
330
70
100
AcDbEntity
  8
LCF8-8080-Sketch v2_0
100
AcDbLine
 10
3.799999999999925
 20
1.075000000000103
 30
0.0
 11
3.799999999999917
 21
1.240000000000074
 31
0.0
  0
LINE
  5
1BE
330
70
100
AcDbEntity
  8
LCF8-8080-Sketch v2_0
100
AcDbLine
 10
3.899999999999929
 20
-2.439999999999964
 30
0.0
 11
3.899999999999929
 21
-2.490000000000081
 31
0.0
  0
ARC
  5
1BF
330
70
100
AcDbEntity
  8
LCF8-8080-Sketch v2_0
100
AcDbCircle
 10
-3.579999999999882
 20
-2.630000000000042
 30
0.0
 40
0.0299999999998986
210
0.0
220
0.0
230
-1.0
100
AcDbArc
 50
270.0
 51
0.0000000000016963
  0
LINE
  5
1C0
330
70
100
AcDbEntity
  8
LCF8-8080-Sketch v2_0
100
AcDbLine
 10
3.549999999999984
 20
-2.630000000000041
 30
0.0
 11
3.549999999999954
 21
-2.440000000000009
 31
0.0
  0
ARC
  5
1C1
330
70
100
AcDbEntity
  8
LCF8-8080-Sketch v2_0
100
AcDbCircle
 10
-3.579999999999828
 20
-1.55999999999996
 30
0.0
 40
0.0299999999999108
210
0.0
220
0.0
230
-1.0
100
AcDbArc
 50
269.9999999999992
 51
0.0000000000190833
  0
LINE
  5
1C2
330
70
100
AcDbEntity
  8
LCF8-8080-Sketch v2_0
100
AcDbLine
 10
3.869999999999932
 20
2.410000000000046
 30
0.0
 11
3.579999999999975
 21
2.410000000000057
 31
0.0
  0
ARC
  5
1C3
330
70
100
AcDbEntity
  8
LCF8-8080-Sketch v2_0
100
AcDbCircle
 10
2.80000000000023
 20
1.419203102167554
 30
0.0
 40
0.0299999999999607
100
AcDbArc
 50
180.0000000000004
 51
224.9999999999961
  0
ARC
  5
1C4
330
70
100
AcDbEntity
  8
LCF8-8080-Sketch v2_0
100
AcDbCircle
 10
-3.579999999999978
 20
1.370000000000126
 30
0.0
 40
0.0300000000000502
210
0.0
220
0.0
230
-1.0
100
AcDbArc
 50
270.0000000000279
 51
359.999999999958
  0
LINE
  5
1C5
330
70
100
AcDbEntity
  8
LCF8-8080-Sketch v2_0
100
AcDbLine
 10
3.999999999999919
 20
1.460000000000125
 30
0.0
 11
3.999999999999935
 21
-1.45999999999995
 31
0.0
  0
LINE
  5
1C6
330
70
100
AcDbEntity
  8
LCF8-8080-Sketch v2_0
100
AcDbLine
 10
3.699999999999928
 20
-2.659999999999923
 30
0.0
 11
3.579999999999882
 21
-2.65999999999994
 31
0.0
  0
ARC
  5
1C7
330
70
100
AcDbEntity
  8
LCF8-8080-Sketch v2_0
100
AcDbCircle
 10
-3.579999999999976
 20
-2.439999999999986
 30
0.0
 40
0.0300000000000225
210
0.0
220
0.0
230
-1.0
100
AcDbArc
 50
359.9999999999567
 51
90.0
  0
LINE
  5
1C8
330
70
100
AcDbEntity
  8
LCF8-8080-Sketch v2_0
100
AcDbLine
 10
3.579999999999976
 20
-2.409999999999964
 30
0.0
 11
3.869999999999899
 21
-2.409999999999934
 31
0.0
  0
ARC
  5
1C9
330
70
100
AcDbEntity
  8
LCF8-8080-Sketch v2_0
100
AcDbCircle
 10
-3.870000000000027
 20
-1.559999999999962
 30
0.0
 40
0.0299999999999123
210
0.0
220
0.0
230
-1.0
100
AcDbArc
 50
179.9999999999779
 51
270.0000000001128
  0
ARC
  5
1CA
330
70
100
AcDbEntity
  8
LCF8-8080-Sketch v2_0
100
AcDbCircle
 10
3.919999999999875
 20
-2.490000000000081
 30
0.0
 40
0.0199999999999467
100
AcDbArc
 50
180.0000000000013
 51
269.9999999999988
  0
ARC
  5
1CB
330
70
100
AcDbEntity
  8
LCF8-8080-Sketch v2_0
100
AcDbCircle
 10
3.699999999999928
 20
-2.759999999999928
 30
0.0
 40
0.1000000000000054
100
AcDbArc
 50
359.9999999999997
 51
90.00000000000026
  0
LINE
  5
1CC
330
70
100
AcDbEntity
  8
LCF8-8080-Sketch v2_0
100
AcDbLine
 10
3.214203102167539
 20
-3.024999999999903
 30
0.0
 11
3.699999999999928
 21
-3.024999999999909
 31
0.0
  0
ARC
  5
1CD
330
70
100
AcDbEntity
  8
LCF8-8080-Sketch v2_0
100
AcDbCircle
 10
-3.8699999999999
 20
-2.439999999999963
 30
0.0
 40
0.0300000000000296
210
0.0
220
0.0
230
-1.0
100
AcDbArc
 50
89.99999999999916
 51
180.0000000000008
  0
ARC
  5
1CE
330
70
100
AcDbEntity
  8
LCF8-8080-Sketch v2_0
100
AcDbCircle
 10
2.800000000000229
 20
-2.580796897832351
 30
0.0
 40
0.0299999999999567
100
AcDbArc
 50
179.9999999999974
 51
224.9999999999934
  0
ARC
  5
1CF
330
70
100
AcDbEntity
  8
LCF8-8080-Sketch v2_0
100
AcDbCircle
 10
3.214203102167754
 20
-1.004999999999952
 30
0.0
 40
0.0299999999999422
100
AcDbArc
 50
89.99999999999916
 51
134.9999999999997
  0
LINE
  5
1D0
330
70
100
AcDbEntity
  8
LCF8-8080-Sketch v2_0
100
AcDbLine
 10
3.192989898732198
 20
-0.9837867965643965
 30
0.0
 11
2.778786796564661
 21
-1.397989898731885
 31
0.0
  0
LINE
  5
1D1
330
70
100
AcDbEntity
  8
LCF8-8080-Sketch v2_0
100
AcDbLine
 10
2.770000000000277
 20
-1.419203102167443
 30
0.0
 11
2.770000000000273
 21
-2.58079689783235
 31
0.0
  0
ARC
  5
1D2
330
70
100
AcDbEntity
  8
LCF8-8080-Sketch v2_0
100
AcDbCircle
 10
2.800000000000229
 20
-1.419203102167443
 30
0.0
 40
0.0299999999999523
100
AcDbArc
 50
135.0000000000141
 51
180.0000000000008
  0
LINE
  5
1D3
330
70
100
AcDbEntity
  8
LCF8-8080-Sketch v2_0
100
AcDbLine
 10
3.799999999999925
 20
-2.924999999999899
 30
0.0
 11
3.799999999999934
 21
-2.759999999999929
 31
0.0
  0
LINE
  5
1D4
330
70
100
AcDbEntity
  8
LCF8-8080-Sketch v2_0
100
AcDbLine
 10
2.778786796564661
 20
-2.602010101267914
 30
0.0
 11
3.192989898732335
 21
-3.016213203435699
 31
0.0
  0
ARC
  5
1D5
330
70
100
AcDbEntity
  8
LCF8-8080-Sketch v2_0
100
AcDbCircle
 10
3.214203102167494
 20
-2.995000000000481
 30
0.0
 40
0.0299999999994227
100
AcDbArc
 50
225.0000000000803
 51
270.0000000000865
  0
ARC
  5
1D6
330
70
100
AcDbEntity
  8
LCF8-8080-Sketch v2_0
100
AcDbCircle
 10
3.699999999999928
 20
-2.924999999999912
 30
0.0
 40
0.099999999999997
100
AcDbArc
 50
269.9999999999998
 51
0.0000000000071244
  0
LINE
  5
1D7
330
70
100
AcDbEntity
  8
LCF8-8080-Sketch v2_0
100
AcDbLine
 10
3.016213203435599
 20
-3.192989898732101
 30
0.0
 11
2.602010101268289
 21
-2.77878679656488
 31
0.0
  0
ARC
  5
1D8
330
70
100
AcDbEntity
  8
LCF8-8080-Sketch v2_0
100
AcDbCircle
 10
1.41920310216729
 20
-2.799999999999867
 30
0.0
 40
0.0299999999995637
100
AcDbArc
 50
89.99999999997582
 51
134.9999999999277
  0
ARC
  5
1D9
330
70
100
AcDbEntity
  8
LCF8-8080-Sketch v2_0
100
AcDbCircle
 10
1.459999999999958
 20
-3.969999999999961
 30
0.0
 40
0.0300000000000309
210
0.0
220
0.0
230
-1.0
100
AcDbArc
 50
270.0000000000144
 51
359.9999999999797
  0
ARC
  5
1DA
330
70
100
AcDbEntity
  8
LCF8-8080-Sketch v2_0
100
AcDbCircle
 10
1.559999999999939
 20
-3.579999999999951
 30
0.0
 40
0.0300000000000289
210
0.0
220
0.0
230
-1.0
100
AcDbArc
 50
359.9999999999584
 51
90.00000000013571
  0
LINE
  5
1DB
330
70
100
AcDbEntity
  8
LCF8-8080-Sketch v2_0
100
AcDbLine
 10
-1.559999999999868
 20
-3.549999999999922
 30
0.0
 11
-1.370000000000015
 21
-3.549999999999897
 31
0.0
  0
ARC
  5
1DC
330
70
100
AcDbEntity
  8
LCF8-8080-Sketch v2_0
100
AcDbCircle
 10
-1.239999999999948
 20
-3.699999999999915
 30
0.0
 40
0.0999999999999886
100
AcDbArc
 50
179.9999999999997
 51
270.0000000000013
  0
ARC
  5
1DD
330
70
100
AcDbEntity
  8
LCF8-8080-Sketch v2_0
100
AcDbCircle
 10
-2.44000000000006
 20
-3.579999999999949
 30
0.0
 40
0.0300000000000513
210
0.0
220
0.0
230
-1.0
100
AcDbArc
 50
0.0000000001280703
 51
89.99999999996946
  0
LINE
  5
1DE
330
70
100
AcDbEntity
  8
LCF8-8080-Sketch v2_0
100
AcDbLine
 10
-1.406776695296302
 20
-2.770000000000338
 30
0.0
 11
-2.593223304703571
 21
-2.770000000000292
 31
0.0
  0
LINE
  5
1DF
330
70
100
AcDbEntity
  8
LCF8-8080-Sketch v2_0
100
AcDbLine
 10
-3.024999999999972
 20
-3.214203102167977
 30
0.0
 11
-3.024999999999973
 21
-3.699999999999914
 31
0.0
  0
LINE
  5
1E0
330
70
100
AcDbEntity
  8
LCF8-8080-Sketch v2_0
100
AcDbLine
 10
1.397989898732029
 20
-2.778786796564552
 30
0.0
 11
0.9750000000000175
 21
-3.201776695296578
 31
0.0
  0
ARC
  5
1E1
330
70
100
AcDbEntity
  8
LCF8-8080-Sketch v2_0
100
AcDbCircle
 10
-2.629999999999922
 20
-3.580000000000028
 30
0.0
 40
0.0300000000001313
210
0.0
220
0.0
230
-1.0
100
AcDbArc
 50
90.00000000010857
 51
180.0000000000034
  0
LINE
  5
1E2
330
70
100
AcDbEntity
  8
LCF8-8080-Sketch v2_0
100
AcDbLine
 10
-1.339999999999982
 20
-3.579999999999931
 30
0.0
 11
-1.339999999999937
 21
-3.699999999999914
 31
0.0
  0
ARC
  5
1E3
330
70
100
AcDbEntity
  8
LCF8-8080-Sketch v2_0
100
AcDbCircle
 10
-1.559999999999977
 20
-3.579999999999949
 30
0.0
 40
0.0300000000000562
210
0.0
220
0.0
230
-1.0
100
AcDbArc
 50
90.00000000002799
 51
180.0000000000008
  0
ARC
  5
1E4
330
70
100
AcDbEntity
  8
LCF8-8080-Sketch v2_0
100
AcDbCircle
 10
1.370000000000016
 20
-3.579999999999931
 30
0.0
 40
0.0300000000000336
210
0.0
220
0.0
230
-1.0
100
AcDbArc
 50
90.00000000000127
 51
180.0000000000016
  0
LINE
  5
1E5
330
70
100
AcDbEntity
  8
LCF8-8080-Sketch v2_0
100
AcDbLine
 10
1.075000000000017
 20
-3.799999999999903
 30
0.0
 11
1.240000000000027
 21
-3.799999999999913
 31
0.0
  0
LINE
  5
1E6
330
70
100
AcDbEntity
  8
LCF8-8080-Sketch v2_0
100
AcDbLine
 10
-1.489999999999988
 20
-3.969999999999972
 30
0.0
 11
-1.490000000000033
 21
-3.920000000000001
 31
0.0
  0
ARC
  5
1E7
330
70
100
AcDbEntity
  8
LCF8-8080-Sketch v2_0
100
AcDbCircle
 10
-1.560000000000169
 20
-3.870000000000029
 30
0.0
 40
0.0299999999998943
210
0.0
220
0.0
230
-1.0
100
AcDbArc
 50
179.9999999999576
 51
270.0000000001102
  0
LINE
  5
1E8
330
70
100
AcDbEntity
  8
LCF8-8080-Sketch v2_0
100
AcDbLine
 10
-2.593223304703571
 20
-2.770000000000292
 30
0.0
 11
-3.016213203435505
 21
-3.192989898732227
 31
0.0
  0
ARC
  5
1E9
330
70
100
AcDbEntity
  8
LCF8-8080-Sketch v2_0
100
AcDbCircle
 10
-1.460000000000167
 20
-3.970000000000028
 30
0.0
 40
0.0299999999998839
210
0.0
220
0.0
230
-1.0
100
AcDbArc
 50
180.0000000001263
 51
270.0000000001077
  0
LINE
  5
1EA
330
70
100
AcDbEntity
  8
LCF8-8080-Sketch v2_0
100
AcDbLine
 10
1.460000000000111
 20
-3.999999999999912
 30
0.0
 11
-1.459999999999965
 21
-3.999999999999992
 31
0.0
  0
ARC
  5
1EB
330
70
100
AcDbEntity
  8
LCF8-8080-Sketch v2_0
100
AcDbCircle
 10
-2.759999999999971
 20
-3.699999999999914
 30
0.0
 40
0.1000000000000001
100
AcDbArc
 50
269.9999999999993
 51
359.9999999999995
  0
ARC
  5
1EC
330
70
100
AcDbEntity
  8
LCF8-8080-Sketch v2_0
100
AcDbCircle
 10
2.629999999999921
 20
-3.579999999999949
 30
0.0
 40
0.0300000000000522
210
0.0
220
0.0
230
-1.0
100
AcDbArc
 50
0.0000000001272222
 51
89.99999999996692
  0
LINE
  5
1ED
330
70
100
AcDbEntity
  8
LCF8-8080-Sketch v2_0
100
AcDbLine
 10
-2.629999999999938
 20
-3.549999999999897
 30
0.0
 11
-2.439999999999987
 21
-3.549999999999897
 31
0.0
  0
LINE
  5
1EE
330
70
100
AcDbEntity
  8
LCF8-8080-Sketch v2_0
100
AcDbLine
 10
2.510000000000067
 20
-3.970000000000078
 30
0.0
 11
2.510000000000077
 21
-3.92000000000009
 31
0.0
  0
ARC
  5
1EF
330
70
100
AcDbEntity
  8
LCF8-8080-Sketch v2_0
100
AcDbCircle
 10
2.440000000000025
 20
-3.86999999999985
 30
0.0
 40
0.0300000000000802
210
0.0
220
0.0
230
-1.0
100
AcDbArc
 50
180.0000000001272
 51
269.9999999999686
  0
ARC
  5
1F0
330
70
100
AcDbEntity
  8
LCF8-8080-Sketch v2_0
100
AcDbCircle
 10
1.510000000000013
 20
-3.919999999999968
 30
0.0
 40
0.0199999999999774
100
AcDbArc
 50
89.99999999994212
 51
179.9999999999987
  0
ARC
  5
1F1
330
70
100
AcDbEntity
  8
LCF8-8080-Sketch v2_0
100
AcDbCircle
 10
1.240000000000028
 20
-3.699999999999916
 30
0.0
 40
0.0999999999999974
100
AcDbArc
 50
269.9999999999994
 51
0.0000000000007633
  0
LINE
  5
1F2
330
70
100
AcDbEntity
  8
LCF8-8080-Sketch v2_0
100
AcDbLine
 10
-2.440000000000008
 20
-3.899999999999931
 30
0.0
 11
-2.489999999999991
 21
-3.90000000000001
 31
0.0
  0
LINE
  5
1F3
330
70
100
AcDbEntity
  8
LCF8-8080-Sketch v2_0
100
AcDbLine
 10
2.440000000000044
 20
-3.549999999999898
 30
0.0
 11
2.629999999999979
 21
-3.549999999999897
 31
0.0
  0
ARC
  5
1F4
330
70
100
AcDbEntity
  8
LCF8-8080-Sketch v2_0
100
AcDbCircle
 10
-1.369999999999889
 20
-3.579999999999773
 30
0.0
 40
0.0299999999998744
210
0.0
220
0.0
230
-1.0
100
AcDbArc
 50
359.9999999999593
 51
89.99999999999916
  0
LINE
  5
1F5
330
70
100
AcDbEntity
  8
LCF8-8080-Sketch v2_0
100
AcDbLine
 10
1.340000000000026
 20
-3.699999999999914
 30
0.0
 11
1.340000000000015
 21
-3.579999999999794
 31
0.0
  0
LINE
  5
1F6
330
70
100
AcDbEntity
  8
LCF8-8080-Sketch v2_0
100
AcDbLine
 10
-2.659999999999971
 20
-3.699999999999914
 30
0.0
 11
-2.659999999999973
 21
-3.579999999999882
 31
0.0
  0
ARC
  5
1F7
330
70
100
AcDbEntity
  8
LCF8-8080-Sketch v2_0
100
AcDbCircle
 10
3.969999999999992
 20
-1.459999999999961
 30
0.0
 40
0.0299999999999032
210
0.0
220
0.0
230
-1.0
100
AcDbArc
 50
269.9999999998855
 51
0.0000000000229
  0
ARC
  5
1F8
330
70
100
AcDbEntity
  8
LCF8-8080-Sketch v2_0
100
AcDbCircle
 10
-3.699999999999851
 20
-1.075000000000007
 30
0.0
 40
0.0999999999999967
100
AcDbArc
 50
90.00000000000049
 51
180.0000000000001
  0
ARC
  5
1F9
330
70
100
AcDbEntity
  8
LCF8-8080-Sketch v2_0
100
AcDbCircle
 10
-2.489999999999989
 20
-3.92
 30
0.0
 40
0.0199999999999907
100
AcDbArc
 50
90.00000000000509
 51
179.9999999999377
  0
ARC
  5
1FA
330
70
100
AcDbEntity
  8
LCF8-8080-Sketch v2_0
100
AcDbCircle
 10
3.869999999999972
 20
1.560000000000149
 30
0.0
 40
0.0299999999999048
210
0.0
220
0.0
230
-1.0
100
AcDbArc
 50
359.9999999999152
 51
90.00000000009585
  0
LINE
  5
1FB
330
70
100
AcDbEntity
  8
LCF8-8080-Sketch v2_0
100
AcDbLine
 10
1.369999999999889
 20
-3.549999999999899
 30
0.0
 11
1.559999999999992
 21
-3.549999999999893
 31
0.0
  0
LINE
  5
1FC
330
70
100
AcDbEntity
  8
LCF8-8080-Sketch v2_0
100
AcDbLine
 10
-2.540000000000008
 20
-3.999999999999927
 30
0.0
 11
-3.549999999999662
 21
-3.999999999999991
 31
0.0
  0
LINE
  5
1FD
330
70
100
AcDbEntity
  8
LCF8-8080-Sketch v2_0
100
AcDbLine
 10
-3.869999999999942
 20
-2.409999999999936
 30
0.0
 11
-3.579999999999925
 21
-2.409999999999934
 31
0.0
  0
ARC
  5
1FE
330
70
100
AcDbEntity
  8
LCF8-8080-Sketch v2_0
100
AcDbCircle
 10
3.579999999999908
 20
-1.36999999999997
 30
0.0
 40
0.03000000000003
210
0.0
220
0.0
230
-1.0
100
AcDbArc
 50
90.0
 51
180.0000000000021
  0
ARC
  5
1FF
330
70
100
AcDbEntity
  8
LCF8-8080-Sketch v2_0
100
AcDbCircle
 10
3.579999999999942
 20
-2.439999999999986
 30
0.0
 40
0.0300000000000522
210
0.0
220
0.0
230
-1.0
100
AcDbArc
 50
90.00000000003138
 51
179.9999999998728
  0
ARC
  5
200
330
70
100
AcDbEntity
  8
LCF8-8080-Sketch v2_0
100
AcDbCircle
 10
3.579999999999942
 20
-2.629999999999889
 30
0.0
 40
0.0300000000000513
210
0.0
220
0.0
230
-1.0
100
AcDbArc
 50
180.0000000001051
 51
269.9999999999677
  0
LINE
  5
201
330
70
100
AcDbEntity
  8
LCF8-8080-Sketch v2_0
100
AcDbLine
 10
-3.79999999999989
 20
-2.759999999999929
 30
0.0
 11
-3.799999999999903
 21
-2.924999999999899
 31
0.0
  0
ARC
  5
202
330
70
100
AcDbEntity
  8
LCF8-8080-Sketch v2_0
100
AcDbCircle
 10
3.870000000000014
 20
-2.439999999999819
 30
0.0
 40
0.0299999999998835
210
0.0
220
0.0
230
-1.0
100
AcDbArc
 50
359.9999999999567
 51
90.00000000013654
  0
ARC
  5
203
330
70
100
AcDbEntity
  8
LCF8-8080-Sketch v2_0
100
AcDbCircle
 10
-3.699999999999893
 20
1.240000000000074
 30
0.0
 40
0.099999999999997
100
AcDbArc
 50
89.99999999999849
 51
180.0
  0
ARC
  5
204
330
70
100
AcDbEntity
  8
LCF8-8080-Sketch v2_0
100
AcDbCircle
 10
-3.214203102167812
 20
-2.994999999999827
 30
0.0
 40
0.03000000000011
100
AcDbArc
 50
270.0000000000593
 51
314.9999999999987
  0
LINE
  5
205
330
70
100
AcDbEntity
  8
LCF8-8080-Sketch v2_0
100
AcDbLine
 10
-3.69999999999989
 20
0.9750000000000758
 30
0.0
 11
-3.214203102167727
 21
0.974999999999998
 31
0.0
  0
LINE
  5
206
330
70
100
AcDbEntity
  8
LCF8-8080-Sketch v2_0
100
AcDbLine
 10
-3.54999999999989
 20
-2.43999999999992
 30
0.0
 11
-3.549999999999891
 21
-2.629999999999944
 31
0.0
  0
ARC
  5
207
330
70
100
AcDbEntity
  8
LCF8-8080-Sketch v2_0
100
AcDbCircle
 10
2.540000000000025
 20
-3.969999999999851
 30
0.0
 40
0.0300000000000753
210
0.0
220
0.0
230
-1.0
100
AcDbArc
 50
180.0000000001069
 51
269.9999999999686
  0
ARC
  5
208
330
70
100
AcDbEntity
  8
LCF8-8080-Sketch v2_0
100
AcDbCircle
 10
-2.800000000000195
 20
2.580796897832549
 30
0.0
 40
0.0299999999999594
100
AcDbArc
 50
359.9999999999797
 51
45.00000000000059
  0
LINE
  5
209
330
70
100
AcDbEntity
  8
LCF8-8080-Sketch v2_0
100
AcDbLine
 10
-2.778786796564628
 20
2.602010101268117
 30
0.0
 11
-3.192989898732104
 21
3.016213203435544
 31
0.0
  0
LINE
  5
20A
330
70
100
AcDbEntity
  8
LCF8-8080-Sketch v2_0
100
AcDbLine
 10
-3.999999999999886
 20
-3.549999999999809
 30
0.0
 11
-3.999999999999841
 21
-2.540000000000036
 31
0.0
  0
LINE
  5
20B
330
70
100
AcDbEntity
  8
LCF8-8080-Sketch v2_0
100
AcDbLine
 10
-3.899999999999897
 20
-2.489999999999892
 30
0.0
 11
-3.899999999999897
 21
-2.439999999999842
 31
0.0
  0
LINE
  5
20C
330
70
100
AcDbEntity
  8
LCF8-8080-Sketch v2_0
100
AcDbLine
 10
-3.869999999999922
 20
1.590000000000054
 30
0.0
 11
-3.579999999999886
 21
1.590000000000058
 31
0.0
  0
ARC
  5
20D
330
70
100
AcDbEntity
  8
LCF8-8080-Sketch v2_0
100
AcDbCircle
 10
-3.919999999999988
 20
-1.509999999999956
 30
0.0
 40
0.0200000000000911
100
AcDbArc
 50
0.00000000003435
 51
89.99999999983334
  0
ARC
  5
20E
330
70
100
AcDbEntity
  8
LCF8-8080-Sketch v2_0
100
AcDbCircle
 10
-3.699999999999892
 20
-2.75999999999993
 30
0.0
 40
0.0999999999999979
100
AcDbArc
 50
89.99999999999923
 51
179.9999999999992
  0
LINE
  5
20F
330
70
100
AcDbEntity
  8
LCF8-8080-Sketch v2_0
100
AcDbLine
 10
-3.899999999999896
 20
-1.55999999999995
 30
0.0
 11
-3.899999999999897
 21
-1.509999999999944
 31
0.0
  0
LINE
  5
210
330
70
100
AcDbEntity
  8
LCF8-8080-Sketch v2_0
100
AcDbLine
 10
-3.192989898732138
 20
-3.016213203435501
 30
0.0
 11
-2.778786796564625
 21
-2.602010101267914
 31
0.0
  0
ARC
  5
211
330
70
100
AcDbEntity
  8
LCF8-8080-Sketch v2_0
100
AcDbCircle
 10
-3.699999999999892
 20
1.075000000000092
 30
0.0
 40
0.100000000000017
100
AcDbArc
 50
179.9999999999935
 51
270.0000000000007
  0
ARC
  5
212
330
70
100
AcDbEntity
  8
LCF8-8080-Sketch v2_0
100
AcDbCircle
 10
3.579999999999908
 20
1.56000000000005
 30
0.0
 40
0.0300000000000089
210
0.0
220
0.0
230
-1.0
100
AcDbArc
 50
90.0000000000424
 51
179.9999999999996
  0
LINE
  5
213
330
70
100
AcDbEntity
  8
LCF8-8080-Sketch v2_0
100
AcDbLine
 10
-3.549999999999899
 20
1.56000000000005
 30
0.0
 11
-3.549999999999881
 21
1.370000000000082
 31
0.0
  0
LINE
  5
214
330
70
100
AcDbEntity
  8
LCF8-8080-Sketch v2_0
100
AcDbLine
 10
-3.91999999999993
 20
-1.489999999999865
 30
0.0
 11
-3.969999999999932
 21
-1.489999999999865
 31
0.0
  0
ARC
  5
215
330
70
100
AcDbEntity
  8
LCF8-8080-Sketch v2_0
100
AcDbCircle
 10
3.549999999999705
 20
-3.54999999999981
 30
0.0
 40
0.450000000000181
210
0.0
220
0.0
230
-1.0
100
AcDbArc
 50
269.9999999999945
 51
0.0000000000000565
  0
ARC
  5
216
330
70
100
AcDbEntity
  8
LCF8-8080-Sketch v2_0
100
AcDbCircle
 10
-3.699999999999891
 20
-1.239999999999874
 30
0.0
 40
0.1000000000000116
100
AcDbArc
 50
179.9999999999998
 51
270.0000000000005
  0
LINE
  5
217
330
70
100
AcDbEntity
  8
LCF8-8080-Sketch v2_0
100
AcDbLine
 10
-3.579999999999925
 20
-2.65999999999994
 30
0.0
 11
-3.69999999999989
 21
-2.659999999999932
 31
0.0
  0
ARC
  5
218
330
70
100
AcDbEntity
  8
LCF8-8080-Sketch v2_0
100
AcDbCircle
 10
-3.699999999999891
 20
-2.924999999999911
 30
0.0
 40
0.1000000000000116
100
AcDbArc
 50
179.9999999999931
 51
270.0000000000005
  0
LINE
  5
219
330
70
100
AcDbEntity
  8
LCF8-8080-Sketch v2_0
100
AcDbLine
 10
-3.579999999999804
 20
-1.589999999999873
 30
0.0
 11
-3.869999999999933
 21
-1.589999999999864
 31
0.0
  0
LINE
  5
21A
330
70
100
AcDbEntity
  8
LCF8-8080-Sketch v2_0
100
AcDbLine
 10
-3.214203102167923
 20
-0.9750000000000103
 30
0.0
 11
-3.699999999999852
 21
-0.9750000000000108
 31
0.0
  0
LINE
  5
21B
330
70
100
AcDbEntity
  8
LCF8-8080-Sketch v2_0
100
AcDbLine
 10
-3.999999999999895
 20
-1.45999999999995
 30
0.0
 11
-3.999999999999845
 21
1.460000000000217
 31
0.0
  0
ARC
  5
21C
330
70
100
AcDbEntity
  8
LCF8-8080-Sketch v2_0
100
AcDbCircle
 10
3.969999999999905
 20
1.460000000000216
 30
0.0
 40
0.0299999999999408
210
0.0
220
0.0
230
-1.0
100
AcDbArc
 50
0.0000000000016963
 51
89.99999999999831
  0
LINE
  5
21D
330
70
100
AcDbEntity
  8
LCF8-8080-Sketch v2_0
100
AcDbLine
 10
-3.89999999999989
 20
1.510000000000067
 30
0.0
 11
-3.899999999999877
 21
1.560000000000105
 31
0.0
  0
ARC
  5
21E
330
70
100
AcDbEntity
  8
LCF8-8080-Sketch v2_0
100
AcDbCircle
 10
3.579999999999888
 20
1.37000000000007
 30
0.0
 40
0.0300000000000069
210
0.0
220
0.0
230
-1.0
100
AcDbArc
 50
179.9999999999775
 51
269.9999999999754
  0
LINE
  5
21F
330
70
100
AcDbEntity
  8
LCF8-8080-Sketch v2_0
100
AcDbLine
 10
-3.79999999999989
 20
1.240000000000074
 30
0.0
 11
-3.799999999999909
 21
1.075000000000103
 31
0.0
  0
ARC
  5
220
330
70
100
AcDbEntity
  8
LCF8-8080-Sketch v2_0
100
AcDbCircle
 10
-2.800000000000193
 20
-2.58079689783235
 30
0.0
 40
0.0299999999999574
100
AcDbArc
 50
315.0000000000042
 51
0.0
  0
LINE
  5
221
330
70
100
AcDbEntity
  8
LCF8-8080-Sketch v2_0
100
AcDbLine
 10
-3.69999999999989
 20
-3.024999999999923
 30
0.0
 11
-3.214203102167781
 21
-3.024999999999937
 31
0.0
  0
ARC
  5
222
330
70
100
AcDbEntity
  8
LCF8-8080-Sketch v2_0
100
AcDbCircle
 10
-3.919999999999991
 20
-2.489999999999935
 30
0.0
 40
0.0200000000000933
100
AcDbArc
 50
270.0000000001705
 51
0.0000000001246777
  0
ARC
  5
223
330
70
100
AcDbEntity
  8
LCF8-8080-Sketch v2_0
100
AcDbCircle
 10
-3.919999999999833
 20
1.5100000000001
 30
0.0
 40
0.0199999999999432
100
AcDbArc
 50
269.9999999999466
 51
359.9999999999052
  0
LINE
  5
224
330
70
100
AcDbEntity
  8
LCF8-8080-Sketch v2_0
100
AcDbLine
 10
-3.969999999999906
 20
1.490000000000157
 30
0.0
 11
-3.919999999999852
 21
1.490000000000157
 31
0.0
  0
ARC
  5
225
330
70
100
AcDbEntity
  8
LCF8-8080-Sketch v2_0
100
AcDbCircle
 10
3.969999999999854
 20
-2.539999999999964
 30
0.0
 40
0.0299999999999878
210
0.0
220
0.0
230
-1.0
100
AcDbArc
 50
359.9999999998634
 51
90.0000000000017
  0
ARC
  5
226
330
70
100
AcDbEntity
  8
LCF8-8080-Sketch v2_0
100
AcDbCircle
 10
3.869999999999993
 20
-1.559999999999961
 30
0.0
 40
0.0299999999999032
210
0.0
220
0.0
230
-1.0
100
AcDbArc
 50
269.9999999998846
 51
0.0000000000199315
  0
LINE
  5
227
330
70
100
AcDbEntity
  8
LCF8-8080-Sketch v2_0
100
AcDbLine
 10
-3.192989898732131
 20
0.9837867965644191
 30
0.0
 11
-2.778786796564628
 21
1.397989898731988
 31
0.0
  0
LINE
  5
228
330
70
100
AcDbEntity
  8
LCF8-8080-Sketch v2_0
100
AcDbLine
 10
-3.799999999999847
 20
-1.075000000000007
 30
0.0
 11
-3.799999999999903
 21
-1.239999999999874
 31
0.0
  0
LINE
  5
229
330
70
100
AcDbEntity
  8
LCF8-8080-Sketch v2_0
100
AcDbLine
 10
3.549999999999932
 20
-3.999999999999992
 30
0.0
 11
2.53999999999998
 21
-3.999999999999992
 31
0.0
  0
ARC
  5
22A
330
70
100
AcDbEntity
  8
LCF8-8080-Sketch v2_0
100
AcDbCircle
 10
-3.969999999999948
 20
-2.539999999999999
 30
0.0
 40
0.029999999999971
210
0.0
220
0.0
230
-1.0
100
AcDbArc
 50
89.99999999999916
 51
180.0000000000008
  0
LINE
  5
22B
330
70
100
AcDbEntity
  8
LCF8-8080-Sketch v2_0
100
AcDbLine
 10
3.919999999999875
 20
-2.510000000000028
 30
0.0
 11
3.969999999999947
 21
-2.510000000000028
 31
0.0
  0
LINE
  5
22C
330
70
100
AcDbEntity
  8
LCF8-8080-Sketch v2_0
100
AcDbLine
 10
1.490000000000035
 20
-3.919999999999968
 30
0.0
 11
1.490000000000051
 21
-3.970000000000094
 31
0.0
  0
LINE
  5
22D
330
70
100
AcDbEntity
  8
LCF8-8080-Sketch v2_0
100
AcDbLine
 10
-1.58999999999999
 20
-3.869999999999962
 30
0.0
 11
-1.589999999999968
 21
-3.579999999999972
 31
0.0
  0
LINE
  5
22E
330
70
100
AcDbEntity
  8
LCF8-8080-Sketch v2_0
100
AcDbLine
 10
0.9750000000000175
 20
-3.201776695296578
 30
0.0
 11
0.9750000000000271
 21
-3.699999999999914
 31
0.0
  0
LINE
  5
22F
330
70
100
AcDbEntity
  8
LCF8-8080-Sketch v2_0
100
AcDbLine
 10
3.025000000000019
 20
-3.699999999999914
 30
0.0
 11
3.025000000000023
 21
-3.214203102167745
 31
0.0
  0
LINE
  5
230
330
70
100
AcDbEntity
  8
LCF8-8080-Sketch v2_0
100
AcDbLine
 10
2.48999999999997
 20
-3.899999999999879
 30
0.0
 11
2.439999999999891
 21
-3.899999999999931
 31
0.0
  0
LINE
  5
231
330
70
100
AcDbEntity
  8
LCF8-8080-Sketch v2_0
100
AcDbLine
 10
1.590000000000033
 20
-3.57999999999995
 30
0.0
 11
1.590000000000063
 21
-3.870000000000007
 31
0.0
  0
LINE
  5
232
330
70
100
AcDbEntity
  8
LCF8-8080-Sketch v2_0
100
AcDbLine
 10
-1.239999999999946
 20
-3.799999999999903
 30
0.0
 11
-1.074999999999981
 21
-3.799999999999926
 31
0.0
  0
ARC
  5
233
330
70
100
AcDbEntity
  8
LCF8-8080-Sketch v2_0
100
AcDbCircle
 10
-2.994999999999755
 20
-3.214203102167977
 30
0.0
 40
0.0300000000002174
100
AcDbArc
 50
134.9999999999994
 51
179.9999999999991
  0
ARC
  5
234
330
70
100
AcDbEntity
  8
LCF8-8080-Sketch v2_0
100
AcDbCircle
 10
-2.539999999999981
 20
-3.970000000000078
 30
0.0
 40
0.0299999999999137
210
0.0
220
0.0
230
-1.0
100
AcDbArc
 50
270.0000000000025
 51
0.0
  0
LINE
  5
235
330
70
100
AcDbEntity
  8
LCF8-8080-Sketch v2_0
100
AcDbLine
 10
-2.924999999999983
 20
-3.799999999999903
 30
0.0
 11
-2.759999999999973
 21
-3.799999999999914
 31
0.0
  0
ARC
  5
236
330
70
100
AcDbEntity
  8
LCF8-8080-Sketch v2_0
100
AcDbCircle
 10
-3.549999999999932
 20
-3.550000000000004
 30
0.0
 40
0.4499999999999882
210
0.0
220
0.0
230
-1.0
100
AcDbArc
 50
180.0000000000001
 51
269.9999999999999
  0
ARC
  5
237
330
70
100
AcDbEntity
  8
LCF8-8080-Sketch v2_0
100
AcDbCircle
 10
2.760000000000053
 20
-3.699999999999914
 30
0.0
 40
0.099999999999989
100
AcDbArc
 50
180.0
 51
270.000000000001
  0
LINE
  5
238
330
70
100
AcDbEntity
  8
LCF8-8080-Sketch v2_0
100
AcDbLine
 10
2.760000000000054
 20
-3.799999999999903
 30
0.0
 11
2.925000000000019
 21
-3.799999999999915
 31
0.0
  0
ARC
  5
239
330
70
100
AcDbEntity
  8
LCF8-8080-Sketch v2_0
100
AcDbCircle
 10
2.925000000000018
 20
-3.699999999999914
 30
0.0
 40
0.1000000000000014
100
AcDbArc
 50
270.0000000000005
 51
359.9999999999995
  0
LINE
  5
23A
330
70
100
AcDbEntity
  8
LCF8-8080-Sketch v2_0
100
AcDbLine
 10
3.999999999999919
 20
-2.539999999999999
 30
0.0
 11
3.99999999999992
 21
-3.550000000000005
 31
0.0
  0
LINE
  5
23B
330
70
100
AcDbEntity
  8
LCF8-8080-Sketch v2_0
100
AcDbLine
 10
-1.51000000000013
 20
-3.899999999999949
 30
0.0
 11
-1.559999999999966
 21
-3.899999999999993
 31
0.0
  0
LINE
  5
23C
330
70
100
AcDbEntity
  8
LCF8-8080-Sketch v2_0
100
AcDbLine
 10
1.560000000000111
 20
-3.899999999999923
 30
0.0
 11
1.510000000000033
 21
-3.899999999999991
 31
0.0
  0
ARC
  5
23D
330
70
100
AcDbEntity
  8
LCF8-8080-Sketch v2_0
100
AcDbCircle
 10
-1.07499999999998
 20
-3.699999999999915
 30
0.0
 40
0.1000000000000116
100
AcDbArc
 50
269.9999999999995
 51
0.0000000000002544
  0
LINE
  5
23E
330
70
100
AcDbEntity
  8
LCF8-8080-Sketch v2_0
100
AcDbLine
 10
2.660000000000053
 20
-3.58000000000003
 30
0.0
 11
2.660000000000064
 21
-3.699999999999914
 31
0.0
  0
ARC
  5
23F
330
70
100
AcDbEntity
  8
LCF8-8080-Sketch v2_0
100
AcDbCircle
 10
1.075000000000015
 20
-3.699999999999915
 30
0.0
 40
0.0999999999999883
100
AcDbArc
 50
179.9999999999997
 51
270.0000000000014
  0
LINE
  5
240
330
70
100
AcDbEntity
  8
LCF8-8080-Sketch v2_0
100
AcDbLine
 10
-0.9749999999999692
 20
-3.699999999999914
 30
0.0
 11
-0.9750000000000271
 21
-3.201776695296568
 31
0.0
  0
LINE
  5
241
330
70
100
AcDbEntity
  8
LCF8-8080-Sketch v2_0
100
AcDbLine
 10
-0.9750000000000271
 20
-3.201776695296568
 30
0.0
 11
-1.406776695296302
 21
-2.770000000000338
 31
0.0
  0
ARC
  5
242
330
70
100
AcDbEntity
  8
LCF8-8080-Sketch v2_0
100
AcDbCircle
 10
-2.924999999999985
 20
-3.699999999999914
 30
0.0
 40
0.0999999999999886
100
AcDbArc
 50
180.0
 51
270.0000000000007
  0
ARC
  5
243
330
70
100
AcDbEntity
  8
LCF8-8080-Sketch v2_0
100
AcDbCircle
 10
1.559999999999959
 20
-3.869999999999962
 30
0.0
 40
0.0300000000000309
210
0.0
220
0.0
230
-1.0
100
AcDbArc
 50
270.0000000000135
 51
0.0
  0
ARC
  5
244
330
70
100
AcDbEntity
  8
LCF8-8080-Sketch v2_0
100
AcDbCircle
 10
2.994999999999878
 20
-3.214203102167778
 30
0.0
 40
0.030000000000145
100
AcDbArc
 50
0.0000000000619148
 51
44.99999999994183
  0
ARC
  5
245
330
70
100
AcDbEntity
  8
LCF8-8080-Sketch v2_0
100
AcDbCircle
 10
-1.510000000000129
 20
-3.920000000000045
 30
0.0
 40
0.0200000000000955
100
AcDbArc
 50
0.00000000012595
 51
90.00000000000381
  0
ARC
  5
246
330
70
100
AcDbEntity
  8
LCF8-8080-Sketch v2_0
100
AcDbCircle
 10
-2.439999999999891
 20
-3.870000000000101
 30
0.0
 40
0.0299999999998306
210
0.0
220
0.0
230
-1.0
100
AcDbArc
 50
270.0
 51
0.0000000000016963
  0
ARC
  5
247
330
70
100
AcDbEntity
  8
LCF8-8080-Sketch v2_0
100
AcDbCircle
 10
2.48999999999991
 20
-3.920000000000046
 30
0.0
 40
0.0200000000001666
100
AcDbArc
 50
359.9999999998753
 51
89.9999999998308
  0
LINE
  5
248
330
70
100
AcDbEntity
  8
LCF8-8080-Sketch v2_0
100
AcDbLine
 10
2.580796897832305
 20
-2.770000000000316
 30
0.0
 11
1.419203102167302
 21
-2.770000000000303
 31
0.0
  0
ARC
  5
249
330
70
100
AcDbEntity
  8
LCF8-8080-Sketch v2_0
100
AcDbCircle
 10
2.580796897832304
 20
-2.800000000000864
 30
0.0
 40
0.0300000000005487
100
AcDbArc
 50
45.0
 51
89.99999999999916
  0
LINE
  5
24A
330
70
100
AcDbEntity
  8
LCF8-8080-Sketch v2_0
100
AcDbLine
 10
2.41000000000006
 20
-3.8700000000001
 30
0.0
 11
2.410000000000009
 21
-3.579999999999882
 31
0.0
  0
ARC
  5
24B
330
70
100
AcDbEntity
  8
LCF8-8080-Sketch v2_0
100
AcDbCircle
 10
2.440000000000028
 20
-3.57999999999995
 30
0.0
 40
0.0300000000000531
210
0.0
220
0.0
230
-1.0
100
AcDbArc
 50
90.00000000007888
 51
179.9999999998711
  0
LINE
  5
24C
330
70
100
AcDbEntity
  8
LCF8-8080-Sketch v2_0
100
AcDbLine
 10
-2.409999999999975
 20
-3.579999999999882
 30
0.0
 11
-2.409999999999945
 21
-3.869999999999917
 31
0.0
  0
ENDSEC
  0
SECTION
  2
OBJECTS
  0
DICTIONARY
  5
C
330
0
100
AcDbDictionary
281
     1
  3
ACAD_COLOR
350
63
  3
ACAD_DETAILVIEWSTYLE
350
6A
  3
ACAD_GROUP
350
D
  3
ACAD_LAYOUT
350
62
  3
ACAD_MATERIAL
350
10
  3
ACAD_MLEADERSTYLE
350
66
  3
ACAD_MLINESTYLE
350
5F
  3
ACAD_PLOTSETTINGS
350
61
  3
ACAD_PLOTSTYLENAME
350
E
  3
ACAD_SCALELIST
350
42
  3
ACAD_SECTIONVIEWSTYLE
350
68
  3
ACAD_TABLESTYLE
350
64
  3
ACAD_VISUALSTYLE
350
29
  3
ACDB_RECOMPOSE_DATA
350
255
  3
AcDbVariableDictionary
350
24D
  0
DICTIONARY
  5
63
102
{ACAD_REACTORS
330
C
102
}
330
C
100
AcDbDictionary
281
     1
  0
DICTIONARY
  5
6A
102
{ACAD_REACTORS
330
C
102
}
330
C
100
AcDbDictionary
281
     1
  3
Imperial24
350
6B
  0
DICTIONARY
  5
D
102
{ACAD_REACTORS
330
C
102
}
330
C
100
AcDbDictionary
281
     1
  0
DICTIONARY
  5
62
102
{ACAD_REACTORS
330
C
102
}
330
C
100
AcDbDictionary
281
     1
  3
Layout1
350
6F
  3
Layout2
350
77
  3
Model
350
73
  0
DICTIONARY
  5
10
102
{ACAD_REACTORS
330
C
102
}
330
C
100
AcDbDictionary
281
     1
  3
ByBlock
350
19
  3
ByLayer
350
11
  3
Global
350
21
  0
DICTIONARY
  5
66
102
{ACAD_REACTORS
330
C
102
}
330
C
100
AcDbDictionary
281
     1
  3
Standard
350
67
  0
DICTIONARY
  5
5F
102
{ACAD_REACTORS
330
C
102
}
330
C
100
AcDbDictionary
281
     1
  3
Standard
350
60
  0
DICTIONARY
  5
61
102
{ACAD_REACTORS
330
C
102
}
330
C
100
AcDbDictionary
281
     1
  0
ACDBDICTIONARYWDFLT
  5
E
102
{ACAD_REACTORS
330
C
102
}
330
C
100
AcDbDictionary
281
     1
  3
Normal
350
F
100
AcDbDictionaryWithDefault
340
F
  0
DICTIONARY
  5
42
102
{ACAD_REACTORS
330
C
102
}
330
C
100
AcDbDictionary
281
     1
  3
A0
350
43
  3
A1
350
44
  3
A2
350
45
  3
A3
350
46
  3
A4
350
47
  3
A5
350
48
  3
A6
350
49
  3
A7
350
4A
  3
A8
350
4B
  3
A9
350
4C
  3
B0
350
4D
  3
B1
350
4E
  3
B2
350
4F
  3
B3
350
50
  3
B4
350
51
  3
B5
350
52
  3
B6
350
53
  0
DICTIONARY
  5
68
102
{ACAD_REACTORS
330
C
102
}
330
C
100
AcDbDictionary
281
     1
  3
Imperial24
350
69
  0
DICTIONARY
  5
64
102
{ACAD_REACTORS
330
C
102
}
330
C
100
AcDbDictionary
281
     1
  3
Standard
350
65
  0
DICTIONARY
  5
29
102
{ACAD_REACTORS
330
C
102
}
330
C
100
AcDbDictionary
281
     1
  3
2dWireframe
350
2F
  3
Basic
350
2E
  3
Brighten
350
35
  3
ColorChange
350
39
  3
Conceptual
350
32
  3
Dim
350
34
  3
EdgeColorOff
350
41
  3
Facepattern
350
38
  3
Flat
350
2A
  3
FlatWithEdges
350
2B
  3
Gouraud
350
2C
  3
GouraudWithEdges
350
2D
  3
Hidden
350
31
  3
JitterOff
350
3F
  3
Linepattern
350
37
  3
OverhangOff
350
40
  3
Realistic
350
33
  3
Shaded
350
3E
  3
Shaded with edges
350
3D
  3
Shades of Gray
350
3A
  3
Sketchy
350
3B
  3
Thicken
350
36
  3
Wireframe
350
30
  3
X-Ray
350
3C
  0
XRECORD
  5
255
102
{ACAD_REACTORS
330
C
102
}
330
C
100
AcDbXrecord
280
     1
 90
        1
330
65
  0
DICTIONARY
  5
24D
102
{ACAD_REACTORS
330
C
102
}
330
C
100
AcDbDictionary
281
     1
  3
CANNOSCALE
350
252
  3
CMLEADERSTYLE
350
24F
  3
CTABLESTYLE
350
24E
  3
CVIEWDETAILSTYLE
350
250
  3
CVIEWSECTIONSTYLE
350
251
  0
ACDBDETAILVIEWSTYLE
  5
6B
102
{ACAD_XDICTIONARY
360
258
102
}
102
{ACAD_REACTORS
330
6A
102
}
330
6A
100
AcDbModelDocViewStyle
 70
     0
  3
Imperial24
290
     0
100
AcDbDetailViewStyle
 70
     0
 71
     0
 90
        3
 71
     1
340
55
 62
   256
 40
0.24
340
0
 62
   256
 40
0.24
300

 40
0.36
280
     3
 71
     2
340
5D
 90
       25
 62
   256
 71
     3
340
55
 62
   256
 40
0.24
 90
        1
 40
0.75
 90
        1
300
%<\AcVar ViewType \f "%tc1">% %<\AcVar ViewDetailId>%\PSCALE %<\AcVar ViewScale \f "%sn">%
 71
     4
340
5D
 90
       25
 62
   256
340
5D
 90
       25
 62
   256
280
     0
  0
LAYOUT
  5
6F
102
{ACAD_REACTORS
330
62
102
}
330
62
100
AcDbPlotSettings
  1

  2

  4

  6

 40
0.0
 41
0.0
 42
0.0
 43
0.0
 44
0.0
 45
0.0
 46
0.0
 47
0.0
 48
0.0
 49
0.0
140
0.0
141
0.0
142
1.0
143
1.0
 70
   688
 72
     0
 73
     0
 74
     5
  7

 75
    16
147
1.0
 76
     0
 77
     2
 78
   300
148
0.0
149
0.0
100
AcDbLayout
  1
Layout1
 70
     1
 71
     1
 10
0.0
 20
0.0
 11
12.0
 21
9.0
 12
0.0
 22
0.0
 32
0.0
 14
0.0
 24
0.0
 34
0.0
 15
0.0
 25
0.0
 35
0.0
146
0.0
 13
0.0
 23
0.0
 33
0.0
 16
1.0
 26
0.0
 36
0.0
 17
0.0
 27
1.0
 37
0.0
 76
     0
330
6C
  0
LAYOUT
  5
77
102
{ACAD_REACTORS
330
62
102
}
330
62
100
AcDbPlotSettings
  1

  2

  4

  6

 40
0.0
 41
0.0
 42
0.0
 43
0.0
 44
0.0
 45
0.0
 46
0.0
 47
0.0
 48
0.0
 49
0.0
140
0.0
141
0.0
142
1.0
143
1.0
 70
   688
 72
     0
 73
     0
 74
     5
  7

 75
    16
147
1.0
 76
     0
 77
     2
 78
   300
148
0.0
149
0.0
100
AcDbLayout
  1
Layout2
 70
     1
 71
     2
 10
0.0
 20
0.0
 11
12.0
 21
9.0
 12
0.0
 22
0.0
 32
0.0
 14
0.0
 24
0.0
 34
0.0
 15
0.0
 25
0.0
 35
0.0
146
0.0
 13
0.0
 23
0.0
 33
0.0
 16
1.0
 26
0.0
 36
0.0
 17
0.0
 27
1.0
 37
0.0
 76
     0
330
74
  0
LAYOUT
  5
73
102
{ACAD_REACTORS
330
62
102
}
330
62
100
AcDbPlotSettings
  1

  2

  4

  6

 40
0.0
 41
0.0
 42
0.0
 43
0.0
 44
0.0
 45
0.0
 46
0.0
 47
0.0
 48
0.0
 49
0.0
140
0.0
141
0.0
142
1.0
143
1.0
 70
  1712
 72
     0
 73
     0
 74
     0
  7

 75
     0
147
1.0
 76
     0
 77
     2
 78
   300
148
0.0
149
0.0
100
AcDbLayout
  1
Model
 70
     1
 71
     0
 10
0.0
 20
0.0
 11
12.0
 21
9.0
 12
0.0
 22
0.0
 32
0.0
 14
0.0
 24
0.0
 34
0.0
 15
0.0
 25
0.0
 35
0.0
146
0.0
 13
0.0
 23
0.0
 33
0.0
 16
1.0
 26
0.0
 36
0.0
 17
0.0
 27
1.0
 37
0.0
 76
     0
330
70
  0
MATERIAL
  5
19
102
{ACAD_XDICTIONARY
360
1A
102
}
102
{ACAD_REACTORS
330
10
102
}
330
10
100
AcDbMaterial
  1
ByBlock
 72
     0
 43
0.0208333333333333
 43
0.0
 43
0.0
 43
0.0
 43
0.0
 43
0.0208333333333333
 43
0.0
 43
0.0
 43
0.0
 43
0.0
 43
1.0
 43
0.0
 43
0.0
 43
0.0
 43
0.0
 43
1.0
 77
     0
 47
0.0208333333333333
 47
0.0
 47
0.0
 47
0.0
 47
0.0
 47
0.0208333333333333
 47
0.0
 47
0.0
 47
0.0
 47
0.0
 47
1.0
 47
0.0
 47
0.0
 47
0.0
 47
0.0
 47
1.0
171
     0
 49
0.0208333333333333
 49
0.0
 49
0.0
 49
0.0
 49
0.0
 49
0.0208333333333333
 49
0.0
 49
0.0
 49
0.0
 49
0.0
 49
1.0
 49
0.0
 49
0.0
 49
0.0
 49
0.0
 49
1.0
175
     0
142
0.0208333333333333
142
0.0
142
0.0
142
0.0
142
0.0
142
0.0208333333333333
142
0.0
142
0.0
142
0.0
142
0.0
142
1.0
142
0.0
142
0.0
142
0.0
142
0.0
142
1.0
179
     0
144
0.0208333333333333
144
0.0
144
0.0
144
0.0
144
0.0
144
0.0208333333333333
144
0.0
144
0.0
144
0.0
144
0.0
144
1.0
144
0.0
144
0.0
144
0.0
144
0.0
144
1.0
147
0.0208333333333333
147
0.0
147
0.0
147
0.0
147
0.0
147
0.0208333333333333
147
0.0
147
0.0
147
0.0
147
0.0
147
1.0
147
0.0
147
0.0
147
0.0
147
0.0
147
1.0
  0
MATERIAL
  5
11
102
{ACAD_XDICTIONARY
360
12
102
}
102
{ACAD_REACTORS
330
10
102
}
330
10
100
AcDbMaterial
  1
ByLayer
 72
     0
 43
0.0208333333333333
 43
0.0
 43
0.0
 43
0.0
 43
0.0
 43
0.0208333333333333
 43
0.0
 43
0.0
 43
0.0
 43
0.0
 43
1.0
 43
0.0
 43
0.0
 43
0.0
 43
0.0
 43
1.0
 77
     0
 47
0.0208333333333333
 47
0.0
 47
0.0
 47
0.0
 47
0.0
 47
0.0208333333333333
 47
0.0
 47
0.0
 47
0.0
 47
0.0
 47
1.0
 47
0.0
 47
0.0
 47
0.0
 47
0.0
 47
1.0
171
     0
 49
0.0208333333333333
 49
0.0
 49
0.0
 49
0.0
 49
0.0
 49
0.0208333333333333
 49
0.0
 49
0.0
 49
0.0
 49
0.0
 49
1.0
 49
0.0
 49
0.0
 49
0.0
 49
0.0
 49
1.0
175
     0
142
0.0208333333333333
142
0.0
142
0.0
142
0.0
142
0.0
142
0.0208333333333333
142
0.0
142
0.0
142
0.0
142
0.0
142
1.0
142
0.0
142
0.0
142
0.0
142
0.0
142
1.0
179
     0
144
0.0208333333333333
144
0.0
144
0.0
144
0.0
144
0.0
144
0.0208333333333333
144
0.0
144
0.0
144
0.0
144
0.0
144
1.0
144
0.0
144
0.0
144
0.0
144
0.0
144
1.0
147
0.0208333333333333
147
0.0
147
0.0
147
0.0
147
0.0
147
0.0208333333333333
147
0.0
147
0.0
147
0.0
147
0.0
147
1.0
147
0.0
147
0.0
147
0.0
147
0.0
147
1.0
  0
MATERIAL
  5
21
102
{ACAD_XDICTIONARY
360
22
102
}
102
{ACAD_REACTORS
330
10
102
}
330
10
100
AcDbMaterial
  1
Global
 72
     0
 43
0.0208333333333333
 43
0.0
 43
0.0
 43
0.0
 43
0.0
 43
0.0208333333333333
 43
0.0
 43
0.0
 43
0.0
 43
0.0
 43
1.0
 43
0.0
 43
0.0
 43
0.0
 43
0.0
 43
1.0
 77
     0
 47
0.0208333333333333
 47
0.0
 47
0.0
 47
0.0
 47
0.0
 47
0.0208333333333333
 47
0.0
 47
0.0
 47
0.0
 47
0.0
 47
1.0
 47
0.0
 47
0.0
 47
0.0
 47
0.0
 47
1.0
171
     0
 49
0.0208333333333333
 49
0.0
 49
0.0
 49
0.0
 49
0.0
 49
0.0208333333333333
 49
0.0
 49
0.0
 49
0.0
 49
0.0
 49
1.0
 49
0.0
 49
0.0
 49
0.0
 49
0.0
 49
1.0
175
     0
142
0.0208333333333333
142
0.0
142
0.0
142
0.0
142
0.0
142
0.0208333333333333
142
0.0
142
0.0
142
0.0
142
0.0
142
1.0
142
0.0
142
0.0
142
0.0
142
0.0
142
1.0
179
     0
144
0.0208333333333333
144
0.0
144
0.0
144
0.0
144
0.0
144
0.0208333333333333
144
0.0
144
0.0
144
0.0
144
0.0
144
1.0
144
0.0
144
0.0
144
0.0
144
0.0
144
1.0
147
0.0208333333333333
147
0.0
147
0.0
147
0.0
147
0.0
147
0.0208333333333333
147
0.0
147
0.0
147
0.0
147
0.0
147
1.0
147
0.0
147
0.0
147
0.0
147
0.0
147
1.0
  0
MLEADERSTYLE
  5
67
102
{ACAD_REACTORS
330
66
102
}
330
66
100
AcDbMLeaderStyle
179
     2
170
     2
171
     1
172
     0
 90
        2
 40
0.0
 41
0.0
173
     1
 91
-1056964608
340
5B
 92
       -2
290
     1
 42
0.09
291
     1
 43
0.36
  3
Standard
 44
0.18
300

342
55
174
     1
178
     6
175
     1
176
     0
 93
-1056964608
 45
0.18
292
     0
297
     0
 46
0.18
 94
-1056964608
 47
1.0
 49
1.0
140
1.0
293
     1
141
0.0
294
     1
177
     0
142
1.0
295
     0
296
     0
143
0.125
271
     0
272
     9
273
     9
298
     1
  0
MLINESTYLE
  5
60
102
{ACAD_REACTORS
330
5F
102
}
330
5F
100
AcDbMlineStyle
  2
STANDARD
 70
     0
  3

 62
   256
 51
90.0
 52
90.0
 71
     2
 49
0.5
 62
   256
  6
BYLAYER
 49
-0.5
 62
   256
  6
BYLAYER
  0
ACDBPLACEHOLDER
  5
F
102
{ACAD_REACTORS
330
E
102
}
330
E
  0
SCALE
  5
43
102
{ACAD_REACTORS
330
42
102
}
330
42
100
AcDbScale
 70
     0
300
1:1
140
1.0
141
1.0
290
     1
  0
SCALE
  5
44
102
{ACAD_REACTORS
330
42
102
}
330
42
100
AcDbScale
 70
     0
300
1/128" = 1'-0"
140
0.0078125
141
12.0
290
     0
  0
SCALE
  5
45
102
{ACAD_REACTORS
330
42
102
}
330
42
100
AcDbScale
 70
     0
300
1/64" = 1'-0"
140
0.015625
141
12.0
290
     0
  0
SCALE
  5
46
102
{ACAD_REACTORS
330
42
102
}
330
42
100
AcDbScale
 70
     0
300
1/32" = 1'-0"
140
0.03125
141
12.0
290
     0
  0
SCALE
  5
47
102
{ACAD_REACTORS
330
42
102
}
330
42
100
AcDbScale
 70
     0
300
1/16" = 1'-0"
140
0.0625
141
12.0
290
     0
  0
SCALE
  5
48
102
{ACAD_REACTORS
330
42
102
}
330
42
100
AcDbScale
 70
     0
300
3/32" = 1'-0"
140
0.09375
141
12.0
290
     0
  0
SCALE
  5
49
102
{ACAD_REACTORS
330
42
102
}
330
42
100
AcDbScale
 70
     0
300
1/8" = 1'-0"
140
0.125
141
12.0
290
     0
  0
SCALE
  5
4A
102
{ACAD_REACTORS
330
42
102
}
330
42
100
AcDbScale
 70
     0
300
3/16" = 1'-0"
140
0.1875
141
12.0
290
     0
  0
SCALE
  5
4B
102
{ACAD_REACTORS
330
42
102
}
330
42
100
AcDbScale
 70
     0
300
1/4" = 1'-0"
140
0.25
141
12.0
290
     0
  0
SCALE
  5
4C
102
{ACAD_REACTORS
330
42
102
}
330
42
100
AcDbScale
 70
     0
300
3/8" = 1'-0"
140
0.375
141
12.0
290
     0
  0
SCALE
  5
4D
102
{ACAD_REACTORS
330
42
102
}
330
42
100
AcDbScale
 70
     0
300
1/2" = 1'-0"
140
0.5
141
12.0
290
     0
  0
SCALE
  5
4E
102
{ACAD_REACTORS
330
42
102
}
330
42
100
AcDbScale
 70
     0
300
3/4" = 1'-0"
140
0.75
141
12.0
290
     0
  0
SCALE
  5
4F
102
{ACAD_REACTORS
330
42
102
}
330
42
100
AcDbScale
 70
     0
300
1" = 1'-0"
140
1.0
141
12.0
290
     0
  0
SCALE
  5
50
102
{ACAD_REACTORS
330
42
102
}
330
42
100
AcDbScale
 70
     0
300
1-1/2" = 1'-0"
140
1.5
141
12.0
290
     0
  0
SCALE
  5
51
102
{ACAD_REACTORS
330
42
102
}
330
42
100
AcDbScale
 70
     0
300
3" = 1'-0"
140
3.0
141
12.0
290
     0
  0
SCALE
  5
52
102
{ACAD_REACTORS
330
42
102
}
330
42
100
AcDbScale
 70
     0
300
6" = 1'-0"
140
6.0
141
12.0
290
     0
  0
SCALE
  5
53
102
{ACAD_REACTORS
330
42
102
}
330
42
100
AcDbScale
 70
     0
300
1'-0" = 1'-0"
140
12.0
141
12.0
290
     0
  0
ACDBSECTIONVIEWSTYLE
  5
69
102
{ACAD_XDICTIONARY
360
256
102
}
102
{ACAD_REACTORS
330
68
102
}
330
68
100
AcDbModelDocViewStyle
 70
     0
  3
Imperial24
290
     0
100
AcDbSectionViewStyle
 70
     0
 71
     0
 90
       78
 71
     1
340
55
 62
   256
 40
0.24
340
0
340
0
 62
   256
 40
0.24
300
I, O, Q, S, X, Z
 40
0.48
 90
        3
 40
0.18
 90
        1
 71
     2
340
5D
 90
       25
 62
   256
340
5D
 90
       50
 62
   256
 40
0.24
 40
0.0
 40
0.24
 71
     3
340
55
 62
   256
 40
0.24
 90
        1
 40
0.75
 90
        1
300
%<\AcVar ViewType \f "%tc1">% %<\AcVar ViewSectionStartId>%-%<\AcVar ViewSectionEndId>%\PSCALE %<\AcVar ViewScale \f "%sn">%
 71
     4
 62
   256
 62
   257
300
ANSI31
 40
1.0
 90
        0
290
     0
290
     0
 90
        6
 40
0.0
 40
1.570796326794896
 40
0.2617993877991494
 40
1.308996938995747
 40
-0.2617993877991494
 40
1.832595714594046
  0
TABLESTYLE
  5
65
102
{ACAD_XDICTIONARY
360
253
102
}
102
{ACAD_REACTORS
330
64
102
}
330
64
100
AcDbTableStyle
280
     0
  3
Standard
 70
     0
 71
     0
 40
0.06
 41
0.06
280
     0
281
     0
  7
Standard
140
0.18
170
     2
 62
     0
 63
     7
283
     0
 90
      512
 91
        0
  1

274
    -2
284
     1
 64
     0
275
    -2
285
     1
 65
     0
276
    -2
286
     1
 66
     0
277
    -2
287
     1
 67
     0
278
    -2
288
     1
 68
     0
279
    -2
289
     1
 69
     0
  7
Standard
140
0.25
170
     5
 62
     0
 63
     7
283
     0
 90
      512
 91
        0
  1

274
    -2
284
     1
 64
     0
275
    -2
285
     1
 65
     0
276
    -2
286
     1
 66
     0
277
    -2
287
     1
 67
     0
278
    -2
288
     1
 68
     0
279
    -2
289
     1
 69
     0
  7
Standard
140
0.18
170
     5
 62
     0
 63
     7
283
     0
 90
      512
 91
        0
  1

274
    -2
284
     1
 64
     0
275
    -2
285
     1
 65
     0
276
    -2
286
     1
 66
     0
277
    -2
287
     1
 67
     0
278
    -2
288
     1
 68
     0
279
    -2
289
     1
 69
     0
  0
VISUALSTYLE
  5
2F
102
{ACAD_REACTORS
330
29
102
}
330
29
100
AcDbVisualStyle
  2
2dWireframe
 70
     4
177
     3
291
     0
 70
    58
 90
        0
176
     1
 90
        2
176
     1
 90
        0
176
     1
 90
        0
176
     1
 40
0.6
176
     1
 40
30.0
176
     1
 62
     7
420
 16777215
176
     1
 90
        1
176
     1
 90
        4
176
     1
 62
     7
176
     1
 62
   257
176
     1
 90
        1
176
     1
 90
        1
176
     1
 40
1.0
176
     1
 90
        0
176
     1
 62
   257
176
     1
 40
1.0
176
     1
 90
        1
176
     1
 90
        6
176
     1
 90
        2
176
     1
 62
     7
176
     1
 90
        5
176
     1
 90
        0
176
     1
 90
        0
176
     1
290
     0
176
     1
 90
        1
176
     1
 40
0.0
176
     1
 90
        0
176
     1
290
     1
176
     1
290
     1
176
     1
290
     0
176
     1
290
     0
176
     1
290
     0
176
     1
290
     0
176
     1
290
     0
176
     1
290
     0
176
     1
290
     0
176
     1
 90
       50
176
     1
 40
0.0
176
     1
 40
1.0
176
     1
 90
        0
176
     1
 62
    18
420
        0
176
     1
 90
       50
176
     1
 90
        3
176
     1
 62
     5
420
      255
176
     1
290
     0
176
     1
 90
       50
176
     1
 90
       50
176
     1
 90
       50
176
     1
290
     0
176
     1
 90
       50
176
     1
 62
   256
176
     0
 40
1.0
176
     0
 90
        2
176
     1
  1
strokes_ogs.tif
176
     1
290
     0
176
     1
 40
1.0
176
     1
 40
1.0
176
     1
1001
ACAD
1000
AcDbSavedByObjectVersion
1070
     0
  0
VISUALSTYLE
  5
2E
102
{ACAD_REACTORS
330
29
102
}
330
29
100
AcDbVisualStyle
  2
Basic
 70
     7
177
     3
291
     1
 70
    58
 90
        1
176
     1
 90
        0
176
     1
 90
        1
176
     1
 90
        0
176
     1
 40
0.6
176
     1
 40
30.0
176
     1
 62
     7
420
 16777215
176
     1
 90
        0
176
     1
 90
        4
176
     1
 62
     7
176
     1
 62
   257
176
     1
 90
        1
176
     1
 90
        1
176
     1
 40
1.0
176
     1
 90
        8
176
     1
 62
     7
176
     1
 40
1.0
176
     1
 90
        1
176
     1
 90
        6
176
     1
 90
        2
176
     1
 62
     7
176
     1
 90
        5
176
     1
 90
        0
176
     1
 90
        0
176
     1
290
     0
176
     1
 90
        1
176
     1
 40
0.0
176
     1
 90
        0
176
     1
290
     0
176
     1
290
     1
176
     1
290
     1
176
     1
290
     0
176
     1
290
     0
176
     1
290
     0
176
     1
290
     0
176
     1
290
     0
176
     1
290
     0
176
     1
 90
       50
176
     1
 40
0.0
176
     1
 40
1.0
176
     1
 90
        0
176
     1
 62
    18
420
        0
176
     1
 90
       50
176
     1
 90
        3
176
     1
 62
     5
420
      255
176
     1
290
     0
176
     1
 90
       50
176
     1
 90
       50
176
     1
 90
       50
176
     1
290
     0
176
     1
 90
       50
176
     1
 62
   256
176
     0
 40
1.0
176
     0
 90
        2
176
     1
  1
strokes_ogs.tif
176
     1
290
     0
176
     1
 40
1.0
176
     1
 40
1.0
176
     1
1001
ACAD
1000
AcDbSavedByObjectVersion
1070
     0
  0
VISUALSTYLE
  5
35
102
{ACAD_REACTORS
330
29
102
}
330
29
100
AcDbVisualStyle
  2
Brighten
 70
    12
177
     3
291
     1
 70
    58
 90
        2
176
     1
 90
        2
176
     1
 90
        0
176
     1
 90
        0
176
     1
 40
0.6
176
     1
 40
30.0
176
     1
 62
     7
420
 16777215
176
     1
 90
        1
176
     1
 90
        4
176
     1
 62
     7
176
     1
 62
   257
176
     1
 90
        1
176
     1
 90
        1
176
     1
 40
1.0
176
     1
 90
        8
176
     1
 62
     7
176
     1
 40
1.0
176
     1
 90
        1
176
     1
 90
        6
176
     1
 90
        2
176
     1
 62
     7
176
     1
 90
        5
176
     1
 90
        0
176
     1
 90
        0
176
     1
290
     0
176
     1
 90
        1
176
     1
 40
50.0
176
     1
 90
        0
176
     1
290
     0
176
     1
290
     1
176
     1
290
     1
176
     1
290
     0
176
     1
290
     0
176
     1
290
     0
176
     1
290
     0
176
     1
290
     0
176
     1
290
     0
176
     1
 90
       50
176
     1
 40
0.0
176
     1
 40
1.0
176
     1
 90
        0
176
     1
 62
    18
420
        0
176
     1
 90
       50
176
     1
 90
        3
176
     1
 62
     5
420
      255
176
     1
290
     0
176
     1
 90
       50
176
     1
 90
       50
176
     1
 90
       50
176
     1
290
     0
176
     1
 90
       50
176
     1
 62
   256
176
     0
 40
1.0
176
     0
 90
        2
176
     1
  1
strokes_ogs.tif
176
     1
290
     0
176
     1
 40
1.0
176
     1
 40
1.0
176
     1
1001
ACAD
1000
AcDbSavedByObjectVersion
1070
     0
  0
VISUALSTYLE
  5
39
102
{ACAD_REACTORS
330
29
102
}
330
29
100
AcDbVisualStyle
  2
ColorChange
 70
    16
177
     3
291
     1
 70
    58
 90
        2
176
     1
 90
        2
176
     1
 90
        3
176
     1
 90
        0
176
     1
 40
0.6
176
     1
 40
30.0
176
     1
 62
     8
420
  8421504
176
     1
 90
        1
176
     1
 90
        4
176
     1
 62
     7
176
     1
 62
   257
176
     1
 90
        1
176
     1
 90
        1
176
     1
 40
1.0
176
     1
 90
        8
176
     1
 62
     8
420
  8421504
176
     1
 40
1.0
176
     1
 90
        1
176
     1
 90
        6
176
     1
 90
        2
176
     1
 62
     7
176
     1
 90
        5
176
     1
 90
        0
176
     1
 90
        0
176
     1
290
     0
176
     1
 90
        1
176
     1
 40
0.0
176
     1
 90
        0
176
     1
290
     0
176
     1
290
     1
176
     1
290
     1
176
     1
290
     0
176
     1
290
     0
176
     1
290
     0
176
     1
290
     0
176
     1
290
     0
176
     1
290
     0
176
     1
 90
       50
176
     1
 40
0.0
176
     1
 40
1.0
176
     1
 90
        0
176
     1
 62
    18
420
        0
176
     1
 90
       50
176
     1
 90
        3
176
     1
 62
     5
420
      255
176
     1
290
     0
176
     1
 90
       50
176
     1
 90
       50
176
     1
 90
       50
176
     1
290
     0
176
     1
 90
       50
176
     1
 62
   256
176
     0
 40
1.0
176
     0
 90
        2
176
     1
  1
strokes_ogs.tif
176
     1
290
     0
176
     1
 40
1.0
176
     1
 40
1.0
176
     1
1001
ACAD
1000
AcDbSavedByObjectVersion
1070
     0
  0
VISUALSTYLE
  5
32
102
{ACAD_REACTORS
330
29
102
}
330
29
100
AcDbVisualStyle
  2
Conceptual
 70
     9
177
     3
291
     0
 70
    58
 90
        3
176
     1
 90
        2
176
     1
 90
        0
176
     1
 90
        0
176
     1
 40
0.6
176
     1
 40
30.0
176
     1
 62
     7
420
 16777215
176
     1
 90
        2
176
     1
 90
        2
176
     1
 62
     7
176
     1
 62
   257
176
     1
 90
        1
176
     1
 90
        1
176
     1
 40
179.0
176
     1
 90
        8
176
     1
 62
     7
176
     1
 40
1.0
176
     1
 90
        1
176
     1
 90
        6
176
     1
 90
        2
176
     1
 62
     7
176
     1
 90
        3
176
     1
 90
        0
176
     1
 90
        0
176
     1
290
     0
176
     1
 90
        1
176
     1
 40
0.0
176
     1
 90
        0
176
     1
290
     0
176
     1
290
     1
176
     1
290
     1
176
     1
290
     0
176
     1
290
     0
176
     1
290
     0
176
     1
290
     0
176
     1
290
     0
176
     1
290
     0
176
     1
 90
       50
176
     1
 40
0.0
176
     1
 40
1.0
176
     1
 90
        0
176
     1
 62
    18
420
        0
176
     1
 90
       50
176
     1
 90
        3
176
     1
 62
     5
420
      255
176
     1
290
     0
176
     1
 90
       50
176
     1
 90
       50
176
     1
 90
       50
176
     1
290
     0
176
     1
 90
       50
176
     1
 62
   256
176
     0
 40
1.0
176
     0
 90
        2
176
     1
  1
strokes_ogs.tif
176
     1
290
     0
176
     1
 40
1.0
176
     1
 40
1.0
176
     1
1001
ACAD
1000
AcDbSavedByObjectVersion
1070
     0
  0
VISUALSTYLE
  5
34
102
{ACAD_REACTORS
330
29
102
}
330
29
100
AcDbVisualStyle
  2
Dim
 70
    11
177
     3
291
     1
 70
    58
 90
        2
176
     1
 90
        2
176
     1
 90
        0
176
     1
 90
        0
176
     1
 40
0.6
176
     1
 40
30.0
176
     1
 62
     7
420
 16777215
176
     1
 90
        1
176
     1
 90
        4
176
     1
 62
     7
176
     1
 62
   257
176
     1
 90
        1
176
     1
 90
        1
176
     1
 40
1.0
176
     1
 90
        8
176
     1
 62
     7
176
     1
 40
1.0
176
     1
 90
        1
176
     1
 90
        6
176
     1
 90
        2
176
     1
 62
     7
176
     1
 90
        5
176
     1
 90
        0
176
     1
 90
        0
176
     1
290
     0
176
     1
 90
        1
176
     1
 40
-50.0
176
     1
 90
        0
176
     1
290
     0
176
     1
290
     1
176
     1
290
     1
176
     1
290
     0
176
     1
290
     0
176
     1
290
     0
176
     1
290
     0
176
     1
290
     0
176
     1
290
     0
176
     1
 90
       50
176
     1
 40
0.0
176
     1
 40
1.0
176
     1
 90
        0
176
     1
 62
    18
420
        0
176
     1
 90
       50
176
     1
 90
        3
176
     1
 62
     5
420
      255
176
     1
290
     0
176
     1
 90
       50
176
     1
 90
       50
176
     1
 90
       50
176
     1
290
     0
176
     1
 90
       50
176
     1
 62
   256
176
     0
 40
1.0
176
     0
 90
        2
176
     1
  1
strokes_ogs.tif
176
     1
290
     0
176
     1
 40
1.0
176
     1
 40
1.0
176
     1
1001
ACAD
1000
AcDbSavedByObjectVersion
1070
     0
  0
VISUALSTYLE
  5
41
102
{ACAD_REACTORS
330
29
102
}
330
29
100
AcDbVisualStyle
  2
EdgeColorOff
 70
    22
177
     3
291
     1
 70
    58
 90
        2
176
     0
 90
        2
176
     0
 90
        0
176
     0
 90
        0
176
     0
 40
0.6
176
     0
 40
30.0
176
     0
 62
     7
420
 16777215
176
     0
 90
        1
176
     0
 90
        4
176
     0
 62
     7
176
     0
 62
   257
176
     0
 90
        1
176
     0
 90
        1
176
     0
 40
1.0
176
     0
 90
        8
176
     2
 62
     7
176
     0
 40
1.0
176
     0
 90
        1
176
     0
 90
        6
176
     0
 90
        2
176
     0
 62
     7
176
     0
 90
        5
176
     0
 90
        0
176
     0
 90
        0
176
     0
290
     0
176
     0
 90
        1
176
     0
 40
0.0
176
     0
 90
        0
176
     0
290
     0
176
     0
290
     1
176
     0
290
     1
176
     0
290
     0
176
     0
290
     0
176
     0
290
     0
176
     0
290
     0
176
     0
290
     0
176
     0
290
     0
176
     0
 90
       50
176
     0
 40
0.0
176
     0
 40
1.0
176
     0
 90
        0
176
     0
 62
    18
420
        0
176
     0
 90
       50
176
     0
 90
        3
176
     0
 62
     5
420
      255
176
     0
290
     0
176
     0
 90
       50
176
     0
 90
       50
176
     0
 90
       50
176
     0
290
     0
176
     0
 90
       50
176
     0
 62
   256
176
     0
 40
1.0
176
     0
 90
        2
176
     0
  1
strokes_ogs.tif
176
     0
290
     0
176
     0
 40
1.0
176
     0
 40
1.0
176
     0
1001
ACAD
1000
AcDbSavedByObjectVersion
1070
     0
  0
VISUALSTYLE
  5
38
102
{ACAD_REACTORS
330
29
102
}
330
29
100
AcDbVisualStyle
  2
Facepattern
 70
    15
177
     3
291
     1
 70
    58
 90
        2
176
     1
 90
        2
176
     1
 90
        0
176
     1
 90
        0
176
     1
 40
0.6
176
     1
 40
30.0
176
     1
 62
     7
420
 16777215
176
     1
 90
        1
176
     1
 90
        4
176
     1
 62
     7
176
     1
 62
   257
176
     1
 90
        1
176
     1
 90
        1
176
     1
 40
1.0
176
     1
 90
        8
176
     1
 62
     7
176
     1
 40
1.0
176
     1
 90
        1
176
     1
 90
        6
176
     1
 90
        2
176
     1
 62
     7
176
     1
 90
        5
176
     1
 90
        0
176
     1
 90
        0
176
     1
290
     0
176
     1
 90
        1
176
     1
 40
0.0
176
     1
 90
        0
176
     1
290
     0
176
     1
290
     1
176
     1
290
     1
176
     1
290
     0
176
     1
290
     0
176
     1
290
     0
176
     1
290
     0
176
     1
290
     0
176
     1
290
     0
176
     1
 90
       50
176
     1
 40
0.0
176
     1
 40
1.0
176
     1
 90
        0
176
     1
 62
    18
420
        0
176
     1
 90
       50
176
     1
 90
        3
176
     1
 62
     5
420
      255
176
     1
290
     0
176
     1
 90
       50
176
     1
 90
       50
176
     1
 90
       50
176
     1
290
     0
176
     1
 90
       50
176
     1
 62
   256
176
     0
 40
1.0
176
     0
 90
        2
176
     1
  1
strokes_ogs.tif
176
     1
290
     0
176
     1
 40
1.0
176
     1
 40
1.0
176
     1
1001
ACAD
1000
AcDbSavedByObjectVersion
1070
     0
  0
VISUALSTYLE
  5
2A
102
{ACAD_REACTORS
330
29
102
}
330
29
100
AcDbVisualStyle
  2
Flat
 70
     0
177
     3
291
     1
 70
    58
 90
        2
176
     1
 90
        1
176
     1
 90
        1
176
     1
 90
        2
176
     1
 40
0.6
176
     1
 40
30.0
176
     1
 62
     7
420
 16777215
176
     1
 90
        0
176
     1
 90
        0
176
     1
 62
     7
176
     1
 62
   257
176
     1
 90
        1
176
     1
 90
        1
176
     1
 40
1.0
176
     1
 90
        8
176
     1
 62
     7
176
     1
 40
1.0
176
     1
 90
        1
176
     1
 90
        6
176
     1
 90
        2
176
     1
 62
     7
176
     1
 90
        5
176
     1
 90
        0
176
     1
 90
        0
176
     1
290
     0
176
     1
 90
       13
176
     1
 40
0.0
176
     1
 90
        0
176
     1
290
     0
176
     1
290
     1
176
     1
290
     1
176
     1
290
     0
176
     1
290
     0
176
     1
290
     0
176
     1
290
     0
176
     1
290
     0
176
     1
290
     0
176
     1
 90
       50
176
     1
 40
0.0
176
     1
 40
1.0
176
     1
 90
        0
176
     1
 62
    18
420
        0
176
     1
 90
       50
176
     1
 90
        3
176
     1
 62
     5
420
      255
176
     1
290
     0
176
     1
 90
       50
176
     1
 90
       50
176
     1
 90
       50
176
     1
290
     0
176
     1
 90
       50
176
     1
 62
   256
176
     0
 40
1.0
176
     0
 90
        2
176
     1
  1
strokes_ogs.tif
176
     1
290
     0
176
     1
 40
1.0
176
     1
 40
1.0
176
     1
1001
ACAD
1000
AcDbSavedByObjectVersion
1070
     0
  0
VISUALSTYLE
  5
2B
102
{ACAD_REACTORS
330
29
102
}
330
29
100
AcDbVisualStyle
  2
FlatWithEdges
 70
     1
177
     3
291
     1
 70
    58
 90
        2
176
     1
 90
        1
176
     1
 90
        1
176
     1
 90
        2
176
     1
 40
0.6
176
     1
 40
30.0
176
     1
 62
     7
420
 16777215
176
     1
 90
        1
176
     1
 90
        0
176
     1
 62
     7
176
     1
 62
   257
176
     1
 90
        1
176
     1
 90
        1
176
     1
 40
1.0
176
     1
 90
        0
176
     1
 62
   257
176
     1
 40
1.0
176
     1
 90
        1
176
     1
 90
        6
176
     1
 90
        2
176
     1
 62
     7
176
     1
 90
        5
176
     1
 90
        0
176
     1
 90
        0
176
     1
290
     0
176
     1
 90
       13
176
     1
 40
0.0
176
     1
 90
        0
176
     1
290
     0
176
     1
290
     1
176
     1
290
     1
176
     1
290
     0
176
     1
290
     0
176
     1
290
     0
176
     1
290
     0
176
     1
290
     0
176
     1
290
     0
176
     1
 90
       50
176
     1
 40
0.0
176
     1
 40
1.0
176
     1
 90
        0
176
     1
 62
    18
420
        0
176
     1
 90
       50
176
     1
 90
        3
176
     1
 62
     5
420
      255
176
     1
290
     0
176
     1
 90
       50
176
     1
 90
       50
176
     1
 90
       50
176
     1
290
     0
176
     1
 90
       50
176
     1
 62
   256
176
     0
 40
1.0
176
     0
 90
        2
176
     1
  1
strokes_ogs.tif
176
     1
290
     0
176
     1
 40
1.0
176
     1
 40
1.0
176
     1
1001
ACAD
1000
AcDbSavedByObjectVersion
1070
     0
  0
VISUALSTYLE
  5
2C
102
{ACAD_REACTORS
330
29
102
}
330
29
100
AcDbVisualStyle
  2
Gouraud
 70
     2
177
     3
291
     1
 70
    58
 90
        2
176
     1
 90
        2
176
     1
 90
        1
176
     1
 90
        2
176
     1
 40
0.6
176
     1
 40
30.0
176
     1
 62
     7
420
 16777215
176
     1
 90
        0
176
     1
 90
        0
176
     1
 62
     7
176
     1
 62
   257
176
     1
 90
        1
176
     1
 90
        1
176
     1
 40
1.0
176
     1
 90
        0
176
     1
 62
     7
176
     1
 40
1.0
176
     1
 90
        1
176
     1
 90
        6
176
     1
 90
        2
176
     1
 62
     7
176
     1
 90
        5
176
     1
 90
        0
176
     1
 90
        0
176
     1
290
     0
176
     1
 90
       13
176
     1
 40
0.0
176
     1
 90
        0
176
     1
290
     0
176
     1
290
     1
176
     1
290
     1
176
     1
290
     0
176
     1
290
     0
176
     1
290
     0
176
     1
290
     0
176
     1
290
     0
176
     1
290
     0
176
     1
 90
       50
176
     1
 40
0.0
176
     1
 40
1.0
176
     1
 90
        0
176
     1
 62
    18
420
        0
176
     1
 90
       50
176
     1
 90
        3
176
     1
 62
     5
420
      255
176
     1
290
     0
176
     1
 90
       50
176
     1
 90
       50
176
     1
 90
       50
176
     1
290
     0
176
     1
 90
       50
176
     1
 62
   256
176
     0
 40
1.0
176
     0
 90
        2
176
     1
  1
strokes_ogs.tif
176
     1
290
     0
176
     1
 40
1.0
176
     1
 40
1.0
176
     1
1001
ACAD
1000
AcDbSavedByObjectVersion
1070
     0
  0
VISUALSTYLE
  5
2D
102
{ACAD_REACTORS
330
29
102
}
330
29
100
AcDbVisualStyle
  2
GouraudWithEdges
 70
     3
177
     3
291
     1
 70
    58
 90
        2
176
     1
 90
        2
176
     1
 90
        1
176
     1
 90
        2
176
     1
 40
0.6
176
     1
 40
30.0
176
     1
 62
     7
420
 16777215
176
     1
 90
        1
176
     1
 90
        0
176
     1
 62
     7
176
     1
 62
   257
176
     1
 90
        1
176
     1
 90
        1
176
     1
 40
1.0
176
     1
 90
        0
176
     1
 62
   257
176
     1
 40
1.0
176
     1
 90
        1
176
     1
 90
        6
176
     1
 90
        2
176
     1
 62
     7
176
     1
 90
        5
176
     1
 90
        0
176
     1
 90
        0
176
     1
290
     0
176
     1
 90
       13
176
     1
 40
0.0
176
     1
 90
        0
176
     1
290
     0
176
     1
290
     1
176
     1
290
     1
176
     1
290
     0
176
     1
290
     0
176
     1
290
     0
176
     1
290
     0
176
     1
290
     0
176
     1
290
     0
176
     1
 90
       50
176
     1
 40
0.0
176
     1
 40
1.0
176
     1
 90
        0
176
     1
 62
    18
420
        0
176
     1
 90
       50
176
     1
 90
        3
176
     1
 62
     5
420
      255
176
     1
290
     0
176
     1
 90
       50
176
     1
 90
       50
176
     1
 90
       50
176
     1
290
     0
176
     1
 90
       50
176
     1
 62
   256
176
     0
 40
1.0
176
     0
 90
        2
176
     1
  1
strokes_ogs.tif
176
     1
290
     0
176
     1
 40
1.0
176
     1
 40
1.0
176
     1
1001
ACAD
1000
AcDbSavedByObjectVersion
1070
     0
  0
VISUALSTYLE
  5
31
102
{ACAD_REACTORS
330
29
102
}
330
29
100
AcDbVisualStyle
  2
Hidden
 70
     6
177
     3
291
     0
 70
    58
 90
        1
176
     1
 90
        2
176
     1
 90
        2
176
     1
 90
        0
176
     1
 40
0.6
176
     1
 40
30.0
176
     1
 62
     7
420
 16777215
176
     1
 90
        2
176
     1
 90
        2
176
     1
 62
     7
176
     1
 62
   257
176
     1
 90
        2
176
     1
 90
        1
176
     1
 40
40.0
176
     1
 90
        0
176
     1
 62
   257
176
     1
 40
1.0
176
     1
 90
        1
176
     1
 90
        6
176
     1
 90
        2
176
     1
 62
     7
176
     1
 90
        3
176
     1
 90
        0
176
     1
 90
        0
176
     1
290
     0
176
     1
 90
        1
176
     1
 40
0.0
176
     1
 90
        0
176
     1
290
     0
176
     1
290
     1
176
     1
290
     1
176
     1
290
     0
176
     1
290
     0
176
     1
290
     0
176
     1
290
     0
176
     1
290
     0
176
     1
290
     0
176
     1
 90
       50
176
     1
 40
0.0
176
     1
 40
1.0
176
     1
 90
        0
176
     1
 62
    18
420
        0
176
     1
 90
       50
176
     1
 90
        3
176
     1
 62
     5
420
      255
176
     1
290
     0
176
     1
 90
       50
176
     1
 90
       50
176
     1
 90
       50
176
     1
290
     0
176
     1
 90
       50
176
     1
 62
   256
176
     0
 40
1.0
176
     0
 90
        2
176
     1
  1
strokes_ogs.tif
176
     1
290
     0
176
     1
 40
1.0
176
     1
 40
1.0
176
     1
1001
ACAD
1000
AcDbSavedByObjectVersion
1070
     0
  0
VISUALSTYLE
  5
3F
102
{ACAD_REACTORS
330
29
102
}
330
29
100
AcDbVisualStyle
  2
JitterOff
 70
    20
177
     3
291
     1
 70
    58
 90
        2
176
     0
 90
        2
176
     0
 90
        0
176
     0
 90
        0
176
     0
 40
0.6
176
     0
 40
30.0
176
     0
 62
     7
420
 16777215
176
     0
 90
        1
176
     0
 90
        4
176
     0
 62
     7
176
     0
 62
   257
176
     0
 90
        1
176
     0
 90
        1
176
     0
 40
1.0
176
     0
 90
       10
176
     2
 62
     7
176
     0
 40
1.0
176
     0
 90
        1
176
     0
 90
        6
176
     0
 90
        2
176
     0
 62
     7
176
     0
 90
        5
176
     0
 90
        0
176
     0
 90
        0
176
     0
290
     0
176
     0
 90
        1
176
     0
 40
0.0
176
     0
 90
        0
176
     0
290
     0
176
     0
290
     1
176
     0
290
     1
176
     0
290
     0
176
     0
290
     0
176
     0
290
     0
176
     0
290
     0
176
     0
290
     0
176
     0
290
     0
176
     0
 90
       50
176
     0
 40
0.0
176
     0
 40
1.0
176
     0
 90
        0
176
     0
 62
    18
420
        0
176
     0
 90
       50
176
     0
 90
        3
176
     0
 62
     5
420
      255
176
     0
290
     0
176
     0
 90
       50
176
     0
 90
       50
176
     0
 90
       50
176
     0
290
     0
176
     0
 90
       50
176
     0
 62
   256
176
     0
 40
1.0
176
     0
 90
        2
176
     0
  1
strokes_ogs.tif
176
     0
290
     0
176
     0
 40
1.0
176
     0
 40
1.0
176
     0
1001
ACAD
1000
AcDbSavedByObjectVersion
1070
     0
  0
VISUALSTYLE
  5
37
102
{ACAD_REACTORS
330
29
102
}
330
29
100
AcDbVisualStyle
  2
Linepattern
 70
    14
177
     3
291
     1
 70
    58
 90
        2
176
     1
 90
        2
176
     1
 90
        0
176
     1
 90
        0
176
     1
 40
0.6
176
     1
 40
30.0
176
     1
 62
     7
420
 16777215
176
     1
 90
        1
176
     1
 90
        4
176
     1
 62
     7
176
     1
 62
   257
176
     1
 90
        7
176
     1
 90
        7
176
     1
 40
1.0
176
     1
 90
        8
176
     1
 62
     7
176
     1
 40
1.0
176
     1
 90
        1
176
     1
 90
        6
176
     1
 90
        2
176
     1
 62
     7
176
     1
 90
        5
176
     1
 90
        0
176
     1
 90
        0
176
     1
290
     0
176
     1
 90
        1
176
     1
 40
0.0
176
     1
 90
        0
176
     1
290
     0
176
     1
290
     1
176
     1
290
     1
176
     1
290
     0
176
     1
290
     0
176
     1
290
     0
176
     1
290
     0
176
     1
290
     0
176
     1
290
     0
176
     1
 90
       50
176
     1
 40
0.0
176
     1
 40
1.0
176
     1
 90
        0
176
     1
 62
    18
420
        0
176
     1
 90
       50
176
     1
 90
        3
176
     1
 62
     5
420
      255
176
     1
290
     0
176
     1
 90
       50
176
     1
 90
       50
176
     1
 90
       50
176
     1
290
     0
176
     1
 90
       50
176
     1
 62
   256
176
     0
 40
1.0
176
     0
 90
        2
176
     1
  1
strokes_ogs.tif
176
     1
290
     0
176
     1
 40
1.0
176
     1
 40
1.0
176
     1
1001
ACAD
1000
AcDbSavedByObjectVersion
1070
     0
  0
VISUALSTYLE
  5
40
102
{ACAD_REACTORS
330
29
102
}
330
29
100
AcDbVisualStyle
  2
OverhangOff
 70
    21
177
     3
291
     1
 70
    58
 90
        2
176
     0
 90
        2
176
     0
 90
        0
176
     0
 90
        0
176
     0
 40
0.6
176
     0
 40
30.0
176
     0
 62
     7
420
 16777215
176
     0
 90
        1
176
     0
 90
        4
176
     0
 62
     7
176
     0
 62
   257
176
     0
 90
        1
176
     0
 90
        1
176
     0
 40
1.0
176
     0
 90
        9
176
     2
 62
     7
176
     0
 40
1.0
176
     0
 90
        1
176
     0
 90
        6
176
     0
 90
        2
176
     0
 62
     7
176
     0
 90
        5
176
     0
 90
        0
176
     0
 90
        0
176
     0
290
     0
176
     0
 90
        1
176
     0
 40
0.0
176
     0
 90
        0
176
     0
290
     0
176
     0
290
     1
176
     0
290
     1
176
     0
290
     0
176
     0
290
     0
176
     0
290
     0
176
     0
290
     0
176
     0
290
     0
176
     0
290
     0
176
     0
 90
       50
176
     0
 40
0.0
176
     0
 40
1.0
176
     0
 90
        0
176
     0
 62
    18
420
        0
176
     0
 90
       50
176
     0
 90
        3
176
     0
 62
     5
420
      255
176
     0
290
     0
176
     0
 90
       50
176
     0
 90
       50
176
     0
 90
       50
176
     0
290
     0
176
     0
 90
       50
176
     0
 62
   256
176
     0
 40
1.0
176
     0
 90
        2
176
     0
  1
strokes_ogs.tif
176
     0
290
     0
176
     0
 40
1.0
176
     0
 40
1.0
176
     0
1001
ACAD
1000
AcDbSavedByObjectVersion
1070
     0
  0
VISUALSTYLE
  5
33
102
{ACAD_REACTORS
330
29
102
}
330
29
100
AcDbVisualStyle
  2
Realistic
 70
     8
177
     3
291
     0
 70
    58
 90
        2
176
     1
 90
        3
176
     1
 90
        0
176
     1
 90
        2
176
     1
 40
0.6
176
     1
 40
30.0
176
     1
 62
     7
420
 16777215
176
     1
 90
        0
176
     1
 90
        0
176
     1
 62
     7
176
     1
 62
   257
176
     1
 90
        1
176
     1
 90
        1
176
     1
 40
1.0
176
     1
 90
        8
176
     1
 62
   257
176
     1
 40
1.0
176
     1
 90
        1
176
     1
 90
        6
176
     1
 90
        2
176
     1
 62
     7
176
     1
 90
        3
176
     1
 90
        0
176
     1
 90
        0
176
     1
290
     0
176
     1
 90
       13
176
     1
 40
0.0
176
     1
 90
        0
176
     1
290
     0
176
     1
290
     1
176
     1
290
     1
176
     1
290
     0
176
     1
290
     0
176
     1
290
     0
176
     1
290
     0
176
     1
290
     0
176
     1
290
     0
176
     1
 90
       50
176
     1
 40
0.0
176
     1
 40
1.0
176
     1
 90
        0
176
     1
 62
    18
420
        0
176
     1
 90
       50
176
     1
 90
        3
176
     1
 62
     5
420
      255
176
     1
290
     0
176
     1
 90
       50
176
     1
 90
       50
176
     1
 90
       50
176
     1
290
     0
176
     1
 90
       50
176
     1
 62
   256
176
     0
 40
1.0
176
     0
 90
        2
176
     1
  1
strokes_ogs.tif
176
     1
290
     0
176
     1
 40
1.0
176
     1
 40
1.0
176
     1
1001
ACAD
1000
AcDbSavedByObjectVersion
1070
     0
  0
VISUALSTYLE
  5
3E
102
{ACAD_REACTORS
330
29
102
}
330
29
100
AcDbVisualStyle
  2
Shaded
 70
    27
177
     3
291
     0
 70
    58
 90
        2
176
     1
 90
        2
176
     1
 90
        1
176
     1
 90
        2
176
     1
 40
0.6
176
     1
 40
30.0
176
     1
 62
     7
420
 16777215
176
     1
 90
        0
176
     1
 90
        4
176
     1
 62
     7
176
     1
 62
   257
176
     1
 90
        1
176
     1
 90
        1
176
     1
 40
1.0
176
     1
 90
        8
176
     1
 62
   257
176
     1
 40
1.0
176
     1
 90
        1
176
     1
 90
        6
176
     1
 90
        2
176
     1
 62
     8
420
  7895160
176
     1
 90
        3
176
     1
 90
        0
176
     1
 90
        0
176
     1
290
     0
176
     1
 90
        5
176
     1
 40
0.0
176
     1
 90
        0
176
     1
290
     0
176
     1
290
     1
176
     1
290
     1
176
     1
290
     0
176
     1
290
     0
176
     1
290
     0
176
     1
290
     0
176
     1
290
     0
176
     1
290
     0
176
     1
 90
       50
176
     1
 40
0.0
176
     1
 40
1.0
176
     1
 90
        0
176
     1
 62
    18
420
        0
176
     1
 90
       50
176
     1
 90
        3
176
     1
 62
     5
420
      255
176
     1
290
     0
176
     1
 90
       50
176
     1
 90
       50
176
     1
 90
       50
176
     1
290
     0
176
     1
 90
       50
176
     1
 62
   256
176
     0
 40
1.0
176
     0
 90
        2
176
     1
  1
strokes_ogs.tif
176
     1
290
     0
176
     1
 40
1.0
176
     1
 40
1.0
176
     1
1001
ACAD
1000
AcDbSavedByObjectVersion
1070
     0
  0
VISUALSTYLE
  5
3D
102
{ACAD_REACTORS
330
29
102
}
330
29
100
AcDbVisualStyle
  2
Shaded with edges
 70
    26
177
     3
291
     0
 70
    58
 90
        2
176
     1
 90
        2
176
     1
 90
        1
176
     1
 90
        2
176
     1
 40
0.6
176
     1
 40
30.0
176
     1
 62
     7
420
 16777215
176
     1
 90
        1
176
     1
 90
        2
176
     1
 62
     7
176
     1
 62
   257
176
     1
 90
        2
176
     1
 90
        1
176
     1
 40
1.0
176
     1
 90
        8
176
     1
 62
   257
176
     1
 40
1.0
176
     1
 90
        1
176
     1
 90
        6
176
     1
 90
        2
176
     1
 62
     7
176
     1
 90
        3
176
     1
 90
        0
176
     1
 90
        0
176
     1
290
     0
176
     1
 90
        5
176
     1
 40
0.0
176
     1
 90
        0
176
     1
290
     0
176
     1
290
     1
176
     1
290
     1
176
     1
290
     0
176
     1
290
     0
176
     1
290
     0
176
     1
290
     0
176
     1
290
     0
176
     1
290
     0
176
     1
 90
       50
176
     1
 40
0.0
176
     1
 40
1.0
176
     1
 90
        0
176
     1
 62
    18
420
        0
176
     1
 90
       50
176
     1
 90
        3
176
     1
 62
     5
420
      255
176
     1
290
     0
176
     1
 90
       50
176
     1
 90
       50
176
     1
 90
       50
176
     1
290
     0
176
     1
 90
       50
176
     1
 62
   256
176
     0
 40
1.0
176
     0
 90
        2
176
     1
  1
strokes_ogs.tif
176
     1
290
     0
176
     1
 40
1.0
176
     1
 40
1.0
176
     1
1001
ACAD
1000
AcDbSavedByObjectVersion
1070
     0
  0
VISUALSTYLE
  5
3A
102
{ACAD_REACTORS
330
29
102
}
330
29
100
AcDbVisualStyle
  2
Shades of Gray
 70
    23
177
     3
291
     0
 70
    58
 90
        2
176
     1
 90
        2
176
     1
 90
        3
176
     1
 90
        0
176
     1
 40
0.6
176
     1
 40
30.0
176
     1
 62
     7
420
 16777215
176
     1
 90
        2
176
     1
 90
        2
176
     1
 62
     7
176
     1
 62
     7
176
     1
 90
        1
176
     1
 90
        1
176
     1
 40
40.0
176
     1
 90
        8
176
     1
 62
     7
176
     1
 40
1.0
176
     1
 90
        1
176
     1
 90
        6
176
     1
 90
        2
176
     1
 62
     7
176
     1
 90
        3
176
     1
 90
        0
176
     1
 90
        0
176
     1
290
     0
176
     1
 90
        1
176
     1
 40
0.0
176
     1
 90
        0
176
     1
290
     0
176
     1
290
     1
176
     1
290
     1
176
     1
290
     0
176
     1
290
     0
176
     1
290
     0
176
     1
290
     0
176
     1
290
     0
176
     1
290
     0
176
     1
 90
       50
176
     1
 40
0.0
176
     1
 40
1.0
176
     1
 90
        0
176
     1
 62
    18
420
        0
176
     1
 90
       50
176
     1
 90
        3
176
     1
 62
     5
420
      255
176
     1
290
     0
176
     1
 90
       50
176
     1
 90
       50
176
     1
 90
       50
176
     1
290
     0
176
     1
 90
       50
176
     1
 62
   256
176
     0
 40
1.0
176
     0
 90
        2
176
     1
  1
strokes_ogs.tif
176
     1
290
     0
176
     1
 40
1.0
176
     1
 40
1.0
176
     1
1001
ACAD
1000
AcDbSavedByObjectVersion
1070
     0
  0
VISUALSTYLE
  5
3B
102
{ACAD_REACTORS
330
29
102
}
330
29
100
AcDbVisualStyle
  2
Sketchy
 70
    24
177
     3
291
     0
 70
    58
 90
        1
176
     1
 90
        2
176
     1
 90
        2
176
     1
 90
        0
176
     1
 40
0.6
176
     1
 40
30.0
176
     1
 62
     7
420
 16777215
176
     1
 90
        2
176
     1
 90
        2
176
     1
 62
     7
176
     1
 62
     7
176
     1
 90
        1
176
     1
 90
        1
176
     1
 40
40.0
176
     1
 90
       11
176
     1
 62
     7
176
     1
 40
1.0
176
     1
 90
        1
176
     1
 90
        6
176
     1
 90
        2
176
     1
 62
     7
176
     1
 90
        6
176
     1
 90
        0
176
     1
 90
        0
176
     1
290
     0
176
     1
 90
        1
176
     1
 40
0.0
176
     1
 90
        0
176
     1
290
     0
176
     1
290
     1
176
     1
290
     1
176
     1
290
     0
176
     1
290
     0
176
     1
290
     0
176
     1
290
     0
176
     1
290
     0
176
     1
290
     0
176
     1
 90
       50
176
     1
 40
0.0
176
     1
 40
1.0
176
     1
 90
        0
176
     1
 62
    18
420
        0
176
     1
 90
       50
176
     1
 90
        3
176
     1
 62
     5
420
      255
176
     1
290
     0
176
     1
 90
       50
176
     1
 90
       50
176
     1
 90
       50
176
     1
290
     0
176
     1
 90
       50
176
     1
 62
   256
176
     0
 40
1.0
176
     0
 90
        2
176
     1
  1
strokes_ogs.tif
176
     1
290
     0
176
     1
 40
1.0
176
     1
 40
1.0
176
     1
1001
ACAD
1000
AcDbSavedByObjectVersion
1070
     0
  0
VISUALSTYLE
  5
36
102
{ACAD_REACTORS
330
29
102
}
330
29
100
AcDbVisualStyle
  2
Thicken
 70
    13
177
     3
291
     1
 70
    58
 90
        2
176
     1
 90
        2
176
     1
 90
        0
176
     1
 90
        0
176
     1
 40
0.6
176
     1
 40
30.0
176
     1
 62
     7
420
 16777215
176
     1
 90
        1
176
     1
 90
        4
176
     1
 62
     7
176
     1
 62
   257
176
     1
 90
        1
176
     1
 90
        1
176
     1
 40
1.0
176
     1
 90
       12
176
     1
 62
     7
176
     1
 40
1.0
176
     1
 90
        1
176
     1
 90
        6
176
     1
 90
        2
176
     1
 62
     7
176
     1
 90
        5
176
     1
 90
        0
176
     1
 90
        0
176
     1
290
     0
176
     1
 90
        1
176
     1
 40
0.0
176
     1
 90
        0
176
     1
290
     0
176
     1
290
     1
176
     1
290
     1
176
     1
290
     0
176
     1
290
     0
176
     1
290
     0
176
     1
290
     0
176
     1
290
     0
176
     1
290
     0
176
     1
 90
       50
176
     1
 40
0.0
176
     1
 40
1.0
176
     1
 90
        0
176
     1
 62
    18
420
        0
176
     1
 90
       50
176
     1
 90
        3
176
     1
 62
     5
420
      255
176
     1
290
     0
176
     1
 90
       50
176
     1
 90
       50
176
     1
 90
       50
176
     1
290
     0
176
     1
 90
       50
176
     1
 62
   256
176
     0
 40
1.0
176
     0
 90
        2
176
     1
  1
strokes_ogs.tif
176
     1
290
     0
176
     1
 40
1.0
176
     1
 40
1.0
176
     1
1001
ACAD
1000
AcDbSavedByObjectVersion
1070
     0
  0
VISUALSTYLE
  5
30
102
{ACAD_REACTORS
330
29
102
}
330
29
100
AcDbVisualStyle
  2
Wireframe
 70
     5
177
     3
291
     0
 70
    58
 90
        0
176
     1
 90
        2
176
     1
 90
        0
176
     1
 90
        0
176
     1
 40
0.6
176
     1
 40
30.0
176
     1
 62
     7
420
 16777215
176
     1
 90
        1
176
     1
 90
        4
176
     1
 62
     7
176
     1
 62
   257
176
     1
 90
        1
176
     1
 90
        1
176
     1
 40
1.0
176
     1
 90
        0
176
     1
 62
   257
176
     1
 40
1.0
176
     1
 90
        1
176
     1
 90
        6
176
     1
 90
        2
176
     1
 62
     7
176
     1
 90
        3
176
     1
 90
        0
176
     1
 90
        0
176
     1
290
     0
176
     1
 90
        1
176
     1
 40
0.0
176
     1
 90
        0
176
     1
290
     0
176
     1
290
     1
176
     1
290
     1
176
     1
290
     0
176
     1
290
     0
176
     1
290
     0
176
     1
290
     0
176
     1
290
     0
176
     1
290
     0
176
     1
 90
       50
176
     1
 40
0.0
176
     1
 40
1.0
176
     1
 90
        0
176
     1
 62
    18
420
        0
176
     1
 90
       50
176
     1
 90
        3
176
     1
 62
     5
420
      255
176
     1
290
     0
176
     1
 90
       50
176
     1
 90
       50
176
     1
 90
       50
176
     1
290
     0
176
     1
 90
       50
176
     1
 62
   256
176
     0
 40
1.0
176
     0
 90
        2
176
     1
  1
strokes_ogs.tif
176
     1
290
     0
176
     1
 40
1.0
176
     1
 40
1.0
176
     1
1001
ACAD
1000
AcDbSavedByObjectVersion
1070
     0
  0
VISUALSTYLE
  5
3C
102
{ACAD_REACTORS
330
29
102
}
330
29
100
AcDbVisualStyle
  2
X-Ray
 70
    25
177
     3
291
     0
 70
    58
 90
        2
176
     1
 90
        2
176
     1
 90
        1
176
     1
 90
        1
176
     1
 40
0.5
176
     1
 40
30.0
176
     1
 62
     7
420
 16777215
176
     1
 90
        1
176
     1
 90
        0
176
     1
 62
     7
176
     1
 62
   257
176
     1
 90
        1
176
     1
 90
        1
176
     1
 40
1.0
176
     1
 90
        8
176
     1
 62
     7
176
     1
 40
1.0
176
     1
 90
        1
176
     1
 90
        6
176
     1
 90
        2
176
     1
 62
     7
176
     1
 90
        3
176
     1
 90
        0
176
     1
 90
        0
176
     1
290
     0
176
     1
 90
       13
176
     1
 40
0.0
176
     1
 90
        0
176
     1
290
     0
176
     1
290
     1
176
     1
290
     1
176
     1
290
     0
176
     1
290
     0
176
     1
290
     0
176
     1
290
     0
176
     1
290
     0
176
     1
290
     0
176
     1
 90
       50
176
     1
 40
0.0
176
     1
 40
1.0
176
     1
 90
        0
176
     1
 62
    18
420
        0
176
     1
 90
       50
176
     1
 90
        3
176
     1
 62
     5
420
      255
176
     1
290
     0
176
     1
 90
       50
176
     1
 90
       50
176
     1
 90
       50
176
     1
290
     0
176
     1
 90
       50
176
     1
 62
   256
176
     0
 40
1.0
176
     0
 90
        2
176
     1
  1
strokes_ogs.tif
176
     1
290
     0
176
     1
 40
1.0
176
     1
 40
1.0
176
     1
1001
ACAD
1000
AcDbSavedByObjectVersion
1070
     0
  0
DICTIONARYVAR
  5
252
102
{ACAD_REACTORS
330
24D
102
}
330
24D
100
DictionaryVariables
280
     0
  1
1:1
  0
DICTIONARYVAR
  5
24F
102
{ACAD_REACTORS
330
24D
102
}
330
24D
100
DictionaryVariables
280
     0
  1
STANDARD
  0
DICTIONARYVAR
  5
24E
102
{ACAD_REACTORS
330
24D
102
}
330
24D
100
DictionaryVariables
280
     0
  1
STANDARD
  0
DICTIONARYVAR
  5
250
102
{ACAD_REACTORS
330
24D
102
}
330
24D
100
DictionaryVariables
280
     0
  1
Imperial24
  0
DICTIONARYVAR
  5
251
102
{ACAD_REACTORS
330
24D
102
}
330
24D
100
DictionaryVariables
280
     0
  1
Imperial24
  0
DICTIONARY
  5
258
330
6B
100
AcDbDictionary
280
     1
281
     1
  3
ACAD_XREC_ROUNDTRIP
360
259
  0
DICTIONARY
  5
1A
330
19
100
AcDbDictionary
280
     1
281
     1
  3
BUMPTILE
360
1C
  3
DIFFUSETILE
360
1B
  3
OPACITYTILE
360
1F
  3
REFLECTIONTILE
360
1E
  3
REFRACTIONTILE
360
20
  3
SPECULARTILE
360
1D
  0
DICTIONARY
  5
12
330
11
100
AcDbDictionary
280
     1
281
     1
  3
BUMPTILE
360
14
  3
DIFFUSETILE
360
13
  3
OPACITYTILE
360
17
  3
REFLECTIONTILE
360
16
  3
REFRACTIONTILE
360
18
  3
SPECULARTILE
360
15
  0
DICTIONARY
  5
22
330
21
100
AcDbDictionary
280
     1
281
     1
  3
BUMPTILE
360
24
  3
DIFFUSETILE
360
23
  3
OPACITYTILE
360
27
  3
REFLECTIONTILE
360
26
  3
REFRACTIONTILE
360
28
  3
SPECULARTILE
360
25
  0
DICTIONARY
  5
256
330
69
100
AcDbDictionary
280
     1
281
     1
  3
ACAD_XREC_ROUNDTRIP
360
257
  0
DICTIONARY
  5
253
330
65
100
AcDbDictionary
280
     1
281
     1
  3
ACAD_ROUNDTRIP_2008_TABLESTYLE_CELLSTYLEMAP
360
254
  0
XRECORD
  5
259
102
{ACAD_REACTORS
330
258
102
}
330
258
100
AcDbXrecord
280
     1
102
DISPLAYNAME
  1
Imperial24
102
FLAGS
 90
        0
  0
XRECORD
  5
1C
102
{ACAD_REACTORS
330
1A
102
}
330
1A
100
AcDbXrecord
280
     1
270
     1
271
     1
  0
XRECORD
  5
1B
102
{ACAD_REACTORS
330
1A
102
}
330
1A
100
AcDbXrecord
280
     1
270
     1
271
     1
  0
XRECORD
  5
1F
102
{ACAD_REACTORS
330
1A
102
}
330
1A
100
AcDbXrecord
280
     1
270
     1
271
     1
  0
XRECORD
  5
1E
102
{ACAD_REACTORS
330
1A
102
}
330
1A
100
AcDbXrecord
280
     1
270
     1
271
     1
  0
XRECORD
  5
20
102
{ACAD_REACTORS
330
1A
102
}
330
1A
100
AcDbXrecord
280
     1
270
     1
271
     1
  0
XRECORD
  5
1D
102
{ACAD_REACTORS
330
1A
102
}
330
1A
100
AcDbXrecord
280
     1
270
     1
271
     1
  0
XRECORD
  5
14
102
{ACAD_REACTORS
330
12
102
}
330
12
100
AcDbXrecord
280
     1
270
     1
271
     1
  0
XRECORD
  5
13
102
{ACAD_REACTORS
330
12
102
}
330
12
100
AcDbXrecord
280
     1
270
     1
271
     1
  0
XRECORD
  5
17
102
{ACAD_REACTORS
330
12
102
}
330
12
100
AcDbXrecord
280
     1
270
     1
271
     1
  0
XRECORD
  5
16
102
{ACAD_REACTORS
330
12
102
}
330
12
100
AcDbXrecord
280
     1
270
     1
271
     1
  0
XRECORD
  5
18
102
{ACAD_REACTORS
330
12
102
}
330
12
100
AcDbXrecord
280
     1
270
     1
271
     1
  0
XRECORD
  5
15
102
{ACAD_REACTORS
330
12
102
}
330
12
100
AcDbXrecord
280
     1
270
     1
271
     1
  0
XRECORD
  5
24
102
{ACAD_REACTORS
330
22
102
}
330
22
100
AcDbXrecord
280
     1
270
     1
271
     1
  0
XRECORD
  5
23
102
{ACAD_REACTORS
330
22
102
}
330
22
100
AcDbXrecord
280
     1
270
     1
271
     1
  0
XRECORD
  5
27
102
{ACAD_REACTORS
330
22
102
}
330
22
100
AcDbXrecord
280
     1
270
     1
271
     1
  0
XRECORD
  5
26
102
{ACAD_REACTORS
330
22
102
}
330
22
100
AcDbXrecord
280
     1
270
     1
271
     1
  0
XRECORD
  5
28
102
{ACAD_REACTORS
330
22
102
}
330
22
100
AcDbXrecord
280
     1
270
     1
271
     1
  0
XRECORD
  5
25
102
{ACAD_REACTORS
330
22
102
}
330
22
100
AcDbXrecord
280
     1
270
     1
271
     1
  0
XRECORD
  5
257
102
{ACAD_REACTORS
330
256
102
}
330
256
100
AcDbXrecord
280
     1
102
DISPLAYNAME
  1
Imperial24
102
FLAGS
 90
        0
  0
CELLSTYLEMAP
  5
254
102
{ACAD_REACTORS
330
253
102
}
330
253
100
AcDbCellStyleMap
 90
        3
300
CELLSTYLE
  1
TABLEFORMAT_BEGIN
 90
        5
170
     1
 91
        0
 92
    32768
 62
   257
 93
        1
300
CONTENTFORMAT
  1
CONTENTFORMAT_BEGIN
 90
        0
 91
        0
 92
      512
 93
        0
300

 40
0.0
140
1.0
 94
        5
 62
     0
340
55
144
0.25
309
CONTENTFORMAT_END
171
     0
 94
        0
309
TABLEFORMAT_END
  1
CELLSTYLE_BEGIN
 90
        1
 91
        1
300
_TITLE
309
CELLSTYLE_END
300
CELLSTYLE
  1
TABLEFORMAT_BEGIN
 90
        5
170
     1
 91
        0
 92
        0
 62
   257
 93
        1
300
CONTENTFORMAT
  1
CONTENTFORMAT_BEGIN
 90
        0
 91
        0
 92
      512
 93
        0
300

 40
0.0
140
1.0
 94
        5
 62
     0
340
55
144
0.18
309
CONTENTFORMAT_END
171
     0
 94
        0
309
TABLEFORMAT_END
  1
CELLSTYLE_BEGIN
 90
        2
 91
        1
300
_HEADER
309
CELLSTYLE_END
300
CELLSTYLE
  1
TABLEFORMAT_BEGIN
 90
        5
170
     1
 91
        0
 92
        0
 62
   257
 93
        1
300
CONTENTFORMAT
  1
CONTENTFORMAT_BEGIN
 90
        0
 91
        0
 92
      512
 93
        0
300

 40
0.0
140
1.0
 94
        2
 62
     0
340
55
144
0.18
309
CONTENTFORMAT_END
171
     0
 94
        0
309
TABLEFORMAT_END
  1
CELLSTYLE_BEGIN
 90
        3
 91
        2
300
_DATA
309
CELLSTYLE_END
  0
ENDSEC
  0
EOF
